<svg xmlns="http://www.w3.org/2000/svg" width="596.238" height="393.241" viewBox="0 0 596.238 393.241">
  <g id="Group_2426" data-name="Group 2426" transform="translate(-527.436 -600.11)">
    <path id="Path_12531" data-name="Path 12531" d="M956.177,2108.658c-46.219-2.975-203.447,2.065-251.265,4.03s-103.324-2.593-132.156-9.295-195.494.571-187.931,18.589,74.255,8.061,149.885,15.3,245.724-.905,284.092,0,73.551-1.811,123-5.432S982.968,2110.382,956.177,2108.658Z" transform="translate(142.861 -1146.961)" fill="#1dc68c" opacity="0.16"/>
    <g id="Group_2407" data-name="Group 2407" transform="translate(725.539 600.11)">
      <path id="Path_12532" data-name="Path 12532" d="M2340.671,610.775c16.347-15.561,44.287-15.208,43.7,8.488s1.368,25.923,8.1,38.353c23.342,43.132-27.822,40.594-49.16,42.008s-19.57-38.786-15.8-61.067S2335.888,615.329,2340.671,610.775Z" transform="translate(-2253.549 -600.11)" fill="#303c60"/>
      <path id="Path_12533" data-name="Path 12533" d="M2354.7,1221.577c-5.241,44.014-14.764,76.55-15.825,97.415s-5.3,103.021-5.3,103.021,11.671-.816,12.732-2.584,21.926-48.1,20.865-76.743,20.84-72.2,20.84-72.2l-5.279-42.735Z" transform="translate(-2259.961 -1075.047)" fill="#4476bd"/>
      <path id="Path_12534" data-name="Path 12534" d="M2395.7,1302.845l-8.2,3.43c-2.228,13.956-4.7,26.5-6.87,37.635,13.044,8.433,19.781,36.527,22.668,53.7,1.471-19.219,10.539-42.443,16.166-55.286Z" transform="translate(-2295.928 -1137.154)" fill="#3e6bab"/>
      <path id="Path_12535" data-name="Path 12535" d="M2491.694,1202.759s17.665,22.533,17.111,48.1c-.844,38.916-5.087,50.026,2.3,90.83,2.884,15.937-6.365,68.069-6.365,68.069s-7.9.62-12.146-1.494c.354-3.83-5.106-66.141-15.741-94.785-5.15-13.87-12.387-52.718-16.278-75s-4.6-26.877-3.183-26.877S2491.694,1202.759,2491.694,1202.759Z" transform="translate(-2354.07 -1060.666)" fill="#4476bd"/>
      <path id="Path_12536" data-name="Path 12536" d="M2137.121,866.017s.786-11.66-.471-15.261-12.1-6.745-12.1-6.745-.472,16.662.629,18.705,7.545,7.859,7.545,7.859Z" transform="translate(-2100.141 -786.504)" fill="#f09959"/>
      <path id="Path_12537" data-name="Path 12537" d="M2214.365,901.313c-24.834,26.729-32.938,37.977-34.825,37.977-5.895-10.4-25.473-32.411-25.473-32.411l-8.348,5.367s19.291,50.4,31.552,50.924,37.181-17.382,37.5-19.438S2214.365,901.313,2214.365,901.313Z" transform="translate(-2116.399 -830.295)" fill="#e8505b"/>
      <path id="Path_12538" data-name="Path 12538" d="M2327.015,960.556c12.148-4.946,26.067-15.291,26.3-16.824.316-2.056-.4-42.418-.4-42.418-5.414,5.827-10.14,11-14.242,15.515C2334.225,933.4,2334.515,951.435,2327.015,960.556Z" transform="translate(-2254.949 -830.295)" fill="#d4454f"/>
      <path id="Path_12539" data-name="Path 12539" d="M2418.611,826.678s23.764,11.912,28.951,33-10.162,47.135-12.048,61.037-45.267,16.347-45.267,1.466c0-14.266-10.869-44.548-10.256-52.261,1.44-18.1,27.9-40.269,27.9-40.269Z" transform="translate(-2295.415 -773.258)" fill="#e8505b"/>
      <path id="Path_12540" data-name="Path 12540" d="M2451.916,710.826l10.2,31.46s-10.893,8.406-29.536,28.629c.724-13.457,12-28.126,12-28.126l-7.718-29.708Z" transform="translate(-2335.625 -684.721)" fill="#f09959"/>
      <path id="Path_12541" data-name="Path 12541" d="M2470.548,725.5l-4.759-14.674-15.053,2.254,7.718,29.708s-.754,1.2-1.864,3.089A36.263,36.263,0,0,0,2470.548,725.5Z" transform="translate(-2349.499 -684.721)" fill="#e38540"/>
      <path id="Path_12542" data-name="Path 12542" d="M2397.807,668.706c-2.751,10.011-13.407,15.523-20.979,13.442s-9.192-10.967-6.44-20.978,11.12-16.441,18.692-14.359S2400.559,658.694,2397.807,668.706Z" transform="translate(-2287.137 -635.5)" fill="#f09959"/>
      <path id="Path_12543" data-name="Path 12543" d="M2386.476,1102.6c3.3,20.934-8.962,65.721-8.962,65.721s7.315,1.661,29.242-.46,31.594-24.007,34.9-24.617,5,20.366,6.625,22.024,1.876-26.491-2.381-37.556c-7.545-19.616-6.067-27.936-3.247-39.821C2447.663,1066.758,2386.476,1102.6,2386.476,1102.6Z" transform="translate(-2293.541 -967.784)" fill="#e8505b"/>
      <path id="Path_12544" data-name="Path 12544" d="M2258.6,2027.978c1.975,8.025-1.924,14.389-7.142,19.028-4.244,3.772-17.291,5.375-16.662,7.262s16.033,2.484,21.22,1.7,6.6-3.3,13.059-3.3c4.232,0,5.018-3.44,3.132-7.695s-2.546-6.607-.841-10.421S2258.6,2027.978,2258.6,2027.978Z" transform="translate(-2184.459 -1691.315)" fill="#4476bd"/>
      <path id="Path_12545" data-name="Path 12545" d="M2616.415,2009.056c-.315,8.331-1.282,14.537.761,18.4,7.893,6.6,14.452,14.1,11.947,14.618-11.947,2.467-16.5-4.693-23.264-6.728-8.295-2.5.786-12.92-2.464-26.289-1.806-7.433,12.524-5.651,12.524-5.651Z" transform="translate(-2465.294 -1672.393)" fill="#4476bd"/>
      <path id="Path_12546" data-name="Path 12546" d="M2494.054,981.28a39.256,39.256,0,0,0-1.783-6.829c-7.545-19.616-6.068-27.936-3.247-39.821a9.334,9.334,0,0,0,.285-2.481c.636-2.119,1.229-4.267,1.75-6.428l-2.56-23.117-18.464-21.927c-13.838,20.277-4.5,45.505-6.575,59.417s-25.263,31.648-25.263,31.648l.755,4.935a12.532,12.532,0,0,0,14.1,10.532c9.556-1.326,22.092-3.991,27.671-9.168C2486.116,973.033,2490.9,976.909,2494.054,981.28Z" transform="translate(-2339.916 -814.526)" fill="#d4454f"/>
      <path id="Path_12547" data-name="Path 12547" d="M2404.516,1263.53s-10.237,2.864-11.46,3.5-1.9,4.024-1.9,4.024-5.859,5.087-3.615,6.889,6.253,6.363,11.552,4.241c3.253-1.3,5.774-13.254,7.907-13.35S2404.516,1263.53,2404.516,1263.53Z" transform="translate(-2300.813 -1107.109)" fill="#f09959"/>
      <path id="Path_12548" data-name="Path 12548" d="M2482.189,869.325c10.955.31,20.887,20.041,24.349,37.159s7.1,41.454,7.1,41.454-18.155,14.329-36.094,18.516c-15.649,3.653-23.638,5.082-23.638,5.082l-3.175-8.934,37.442-21.992s-13.768-25.936-15.136-45.506S2473.864,869.089,2482.189,869.325Z" transform="translate(-2349.499 -805.845)" fill="#e8505b"/>
      <rect id="Rectangle_532" data-name="Rectangle 532" width="27.852" height="17.689" transform="translate(0 59.062) rotate(-11.346)" fill="#f5dc95"/>
      <path id="Path_12549" data-name="Path 12549" d="M2130.848,876.43c.377-7.173-3.177-16.956-5.22-16.943s.628,6.411-.471,10.655C2124.559,872.443,2130.848,876.43,2130.848,876.43Z" transform="translate(-2100.437 -798.332)" fill="#f09959"/>
      <path id="Path_12550" data-name="Path 12550" d="M2382.965,641.27c.606,19.648,23.556,18.142,29.843,16.93s-7.654,41.452,4.323,43.914c8.8,1.808,6.814-11.95,16.583-11.03,4.323.407,8.667,7.089,8.667,7.089a13.342,13.342,0,0,0-3.951-7.089c-3.3-2.973-11.955-21.206-14.23-34.253s-17.679-21.485-22.238-21.746-15.719,4.926-15.719,4.926Z" transform="translate(-2297.707 -626.832)" fill="#303c60"/>
      <g id="Group_2405" data-name="Group 2405" transform="translate(112.413 30.794)">
        <path id="Path_12551" data-name="Path 12551" d="M2504.945,779.649a4.53,4.53,0,0,1-.946-.1c-3.833-.816-5.692-4.845-5.85-12.678-.135-6.715.975-15.332,2.15-24.456.475-3.686.966-7.5,1.37-11.189a.575.575,0,0,1,1.142.125c-.406,3.7-.9,7.519-1.373,11.21-2.274,17.652-4.422,34.326,2.8,35.863a3.218,3.218,0,0,0,.671.071c4.148,0,7.883-8.083,10.06-15.956a.574.574,0,0,1,1.107.306C2514.639,768.042,2510.773,779.648,2504.945,779.649Z" transform="translate(-2498.137 -730.714)" fill="#303c60"/>
      </g>
      <g id="Group_2406" data-name="Group 2406" transform="translate(110.804 30.794)">
        <path id="Path_12552" data-name="Path 12552" d="M2498.195,784.216a4.529,4.529,0,0,1-3.395-1.51c-7.823-8.27-.088-49.763.246-51.525a.574.574,0,1,1,1.128.213c-.08.426-7.962,42.675-.54,50.522a3.428,3.428,0,0,0,3.123,1.112c4.063-.537,6.409-6.049,8.478-10.912,2.007-4.717,3.894-9.173,7.258-9.056a.574.574,0,1,1-.041,1.148h-.083c-2.521,0-4.249,4.062-6.078,8.359-2.189,5.146-4.67,10.978-9.383,11.6A5.429,5.429,0,0,1,2498.195,784.216Z" transform="translate(-2491.313 -730.714)" fill="#303c60"/>
      </g>
      <path id="Path_12553" data-name="Path 12553" d="M2491.314,728.253c-1.617,2.084-4.151,2.825-5.66,1.654s-1.422-3.81.2-5.894,4.151-2.825,5.66-1.654S2492.931,726.169,2491.314,728.253Z" transform="translate(-2375.361 -693.111)" fill="#f09959"/>
    </g>
    <g id="Group_2412" data-name="Group 2412" transform="translate(578.41 689.221)">
      <path id="Path_12554" data-name="Path 12554" d="M1622.788,1016.324c5.6,11.2.965,24.105-10.054,28.664-11.092,4.588-23.22,1.982-28.823-9.221s-1.442-24.638,9.294-30.007S1617.185,1005.121,1622.788,1016.324Z" transform="translate(-1538.019 -997.535)" fill="#303c60"/>
      <g id="Group_2408" data-name="Group 2408" transform="translate(42.21 18.129)">
        <path id="Path_12555" data-name="Path 12555" d="M1588.733,1085.611c-1.237,0-3.674-.437-6.773-3.187a17.314,17.314,0,0,1-5.14-9.739c-.975-5.08-.34-10.92,1.887-17.357a.574.574,0,0,1,1.086.375c-2.16,6.245-2.781,11.886-1.844,16.766a16.165,16.165,0,0,0,4.774,9.1c3.929,3.487,6.564,2.852,6.591,2.845a.578.578,0,0,1,.7.4.572.572,0,0,1-.394.7A3.475,3.475,0,0,1,1588.733,1085.611Z" transform="translate(-1576.377 -1054.942)" fill="#303c60"/>
      </g>
      <g id="Group_2411" data-name="Group 2411" transform="translate(0 58.46)">
        <path id="Path_12556" data-name="Path 12556" d="M1690.772,1242.649c6.377,1.429,14.427,19.148,18.369,30.5,3.977,11.45,10.717,25.653,15.13,30.066s33.412,14.644,33.412,14.644-71.651.139-70.183,0S1690.772,1242.649,1690.772,1242.649Z" transform="translate(-1619.072 -1238.723)" fill="#a8ceff"/>
        <path id="Path_12557" data-name="Path 12557" d="M1738.106,1312.167c-3.923-.56-18.073,1.261-12.049-1.261s5.184-5.744,5.184-5.744-8.546,7.145-10.087.9c-1.329-5.387-1.837-24.408-6.881-43.472-4.167-9.453-9.619-18.91-14.207-19.937,0,0-.161,6.712-.427,16.124,1.759,20.828,4.746,51.428,5.5,59.141,9.5.015,25.392,0,38.689-.017l8.844-.422S1742.029,1312.727,1738.106,1312.167Z" transform="translate(-1628.367 -1238.723)" fill="#93bbf0"/>
        <path id="Path_12558" data-name="Path 12558" d="M1518.4,1226s-20.283,11.333-25.011,13.744,13.247,73.156,17.244,76.188,39.192.522,43.2-3.3-3.075-15.543.393-39.015-10.576-43.737-12.38-43.692-13.579-3.927-13.579-3.927Z" transform="translate(-1470.147 -1225.996)" fill="#a8ceff"/>
        <path id="Path_12559" data-name="Path 12559" d="M1510.841,1363.824c4,3.032,29.182,3.1,39.9-.236,1.21-.377,6.7-2.566,6.832-4.623-1.294-.243-6.43.374-8.515-.105-7.25-1.666-11.243-10.647-11.243-10.647s-3.993-1.436-12.924-5.219-5.254-15.236-5.464-20.279-8.826-21.541-25.008-34.044l-1.484.665C1491.781,1300.832,1507.143,1361.02,1510.841,1363.824Z" transform="translate(-1470.352 -1273.893)" fill="#93bbf0"/>
        <g id="Group_2410" data-name="Group 2410" transform="translate(78.979 34.223)">
          <path id="Path_12560" data-name="Path 12560" d="M1929.709,1372.006h-48.841l-22.244,47.337h53.8l20.135-42.849A3.148,3.148,0,0,0,1929.709,1372.006Z" transform="translate(-1828.845 -1371.802)" fill="#75a1de"/>
          <g id="Group_2409" data-name="Group 2409">
            <path id="Path_12561" data-name="Path 12561" d="M1765.011,1419.354h-29.389a3.3,3.3,0,0,1,0-6.6h27.283l18.446-39.7a3.3,3.3,0,0,1,5.987,2.782L1768,1417.444A3.3,3.3,0,0,1,1765.011,1419.354Z" transform="translate(-1732.321 -1371.142)" fill="#3e6bab"/>
          </g>
        </g>
        <path id="Path_12562" data-name="Path 12562" d="M1643.289,1532.736c12.75,2.382,15.885,5.309,22.834,6.429,7.879,1.27,6.941,3.011,1.09,3.011s-20.555.227-25.6-.894S1643.289,1532.736,1643.289,1532.736Z" transform="translate(-1582.585 -1460.413)" fill="#f09959"/>
        <path id="Path_12563" data-name="Path 12563" d="M1419.005,1285.933c-9.771,31.241-23.623,66.691-21.417,66.691s58.313,2.268,60.52.379,1.576-9.139,1.261-10.085-31.9-6.55-31.9-6.55,4.159-8.1,5.735-23.945S1420.858,1280.009,1419.005,1285.933Z" transform="translate(-1397.354 -1270.862)" fill="#a8ceff"/>
      </g>
      <path id="Path_12564" data-name="Path 12564" d="M1608.016,1110.857l-7.871,28.763s13.3,20.76,16.957,18.916-2.044-16.874-2.044-18.916,5.7-23.115,5.7-23.115Z" transform="translate(-1552.331 -1079.545)" fill="#f09959"/>
      <path id="Path_12565" data-name="Path 12565" d="M1632.4,1141.086a7.685,7.685,0,0,1-.273-1.466c0-2.042,5.7-23.115,5.7-23.115l-12.743-5.648-2.6,9.518A49.618,49.618,0,0,0,1632.4,1141.086Z" transform="translate(-1569.4 -1079.545)" fill="#e38540"/>
      <path id="Path_12566" data-name="Path 12566" d="M1666.634,1067.273c1.5,8.34.512,19.418-6.895,22.234s-16.328-2.572-19.927-12.035-.512-19.418,6.895-22.235S1664.843,1057.308,1666.634,1067.273Z" transform="translate(-1581.497 -1036.436)" fill="#f09959"/>
      <path id="Path_12567" data-name="Path 12567" d="M1625.491,1115.543c1.038,2.916.136,5.9-2.014,6.666s-4.735-.978-5.773-3.893-.136-5.9,2.014-6.666S1624.454,1112.627,1625.491,1115.543Z" transform="translate(-1565.421 -1080.012)" fill="#f09959"/>
      <path id="Path_12568" data-name="Path 12568" d="M1648.935,1043.019c-2.521,19.572-26.3,17.051-26.3,17.051s-4.9-6.447-7.111-3.066,3.061-19.843,16.706-20.575C1636.712,1036.188,1648.935,1043.019,1648.935,1043.019Z" transform="translate(-1563.712 -1022.66)" fill="#303c60"/>
      <ellipse id="Ellipse_432" data-name="Ellipse 432" cx="12.879" cy="12.084" rx="12.879" ry="12.084" transform="translate(35.295 0)" fill="#303c60"/>
    </g>
    <g id="Group_2415" data-name="Group 2415" transform="translate(600.931 824.734)">
      <g id="Group_2414" data-name="Group 2414" transform="translate(0 5.479)">
        <path id="Path_12569" data-name="Path 12569" d="M1492.874,1890.346h2.945l19.018-88.112h-6.479Z" transform="translate(-1492.874 -1748.9)" fill="#2e5b9a"/>
        <path id="Path_12570" data-name="Path 12570" d="M1799.936,1880.25h-2.945l-22.133-91.227h6.479Z" transform="translate(-1708.372 -1738.804)" fill="#2e5b9a"/>
        <g id="Group_2413" data-name="Group 2413" transform="translate(1.662)">
          <path id="Path_12571" data-name="Path 12571" d="M1531.863,1632.668c-11.8,0-19.272-2.119-24.042-6.765-5.913-5.76-7.136-14.682-7.154-26.306-.014-9.149-.231-15.107-.728-19.923a3.3,3.3,0,1,1,6.567-.676c.52,5.049.748,11.206.762,20.589.018,11.781,1.512,18.035,5.158,21.587,3.74,3.644,10.5,5.147,21.922,4.861a129.762,129.762,0,0,0,24.718-3.054c8.022-1.63,13.818-2.809,20.691.476a3.3,3.3,0,0,1-2.846,5.957c-4.879-2.331-9.017-1.49-16.53.037a135.5,135.5,0,0,1-25.869,3.185Q1533.154,1632.668,1531.863,1632.668Z" transform="translate(-1499.922 -1576.034)" fill="#2e5b9a"/>
        </g>
      </g>
      <path id="Path_12572" data-name="Path 12572" d="M1521.706,1574.38l18.059.751-4.807,49.86s-13.461-8.593-13.251-17.839S1521.706,1574.38,1521.706,1574.38Z" transform="translate(-1514.906 -1569.291)" fill="#2e5b9a"/>
      <path id="Path_12573" data-name="Path 12573" d="M1891.646,1590.987c15.271-2.316,20.46-1.586,29.8,15.806s21.785,48.707,28.939,52.752c10.773,6.09,14.342,21.024,18.765,20.353s7.27,1.284,2.457,5.284-12.585,7.406-15.244,6.7-4.719-12.194-11.661-15.923-4.856-6.792-4.4-10.09-20.264-18.484-35.882-37.37c-9.543-11.54-14.458-19.157-15.187-26.061A18.111,18.111,0,0,1,1891.646,1590.987Z" transform="translate(-1795.699 -1581.254)" fill="#f09959"/>
      <path id="Path_12574" data-name="Path 12574" d="M1929.5,1654.055c-3.547-9-7.1-23.846-10.447-37.461-4.756-19.36-9.74-23.957-12.9-26.022-3.818-.957-8.341-.519-14.511.417a18.109,18.109,0,0,0-2.408,11.447c.729,6.9,5.643,14.52,15.187,26.06,8.224,9.944,17.86,18.861,25.077,25.559Z" transform="translate(-1795.699 -1581.255)" fill="#e38540"/>
      <path id="Path_12575" data-name="Path 12575" d="M1871.563,1606.3s-4.064,30.656-7.846,33.771c-2.706,2.229-4.623,2.377-6.515-6.766s2.942-43.267,2.942-43.267Z" transform="translate(-1770.965 -1581.254)" fill="#2e5b9a"/>
      <path id="Path_12576" data-name="Path 12576" d="M1783.923,1640.513l-37.6,6.318,21.229-30.439,16.156-3.29,9.688,2.228Z" transform="translate(-1686.563 -1598.882)" fill="#f09959"/>
      <path id="Path_12577" data-name="Path 12577" d="M2103.7,1911.651c-1.219,4.913-1.072,8.545,1.046,10.364s10.121,15.343,10.121,15.343l2.493-.378-5.772-12.373Z" transform="translate(-1959.09 -1827.04)" fill="#2e5b9a"/>
      <path id="Path_12578" data-name="Path 12578" d="M2120.15,1936.921c2.658.71,10.43-2.7,15.244-6.7s1.966-5.955-2.457-5.284a1.917,1.917,0,0,1-.741-.037c-2.209,4.935-9.475,8.636-11.82,3.423-2.324-5.166-12.28-15.448-16.29-17.649a.918.918,0,0,1,0,.229c-.456,3.3-2.542,6.361,4.4,10.09S2117.492,1936.211,2120.15,1936.921Z" transform="translate(-1959.481 -1826.297)" fill="#2e5b9a"/>
      <path id="Path_12579" data-name="Path 12579" d="M1553.475,1595.043c-13.341,23.941-4.228,39.158,11.986,40.708s41.812-1.41,56.733-13.809,27.169-25.509,25.458-27.465S1553.475,1595.043,1553.475,1595.043Z" transform="translate(-1534.276 -1584.081)" fill="#e38540"/>
      <path id="Path_12580" data-name="Path 12580" d="M1885.564,1627.722c2.732-8.2,5.881-14.484,11.979-14.6,6.41-.12,10.354,3.216,10.628,13.7.326,12.488.766,53.85.189,72.24-.437,13.921,3.62,18.379,3.278,32.892-.258,10.929,11.395,5.408,6.893,11.077-3.1,3.9-12.31,2.624-17.969,1.9-5.042-.641,2.61-15.754-4.369-19.8-5.989-3.467-6.106-9.1-2.324-13.358s.42-16.87-2.1-25.7-6.433-18.375-9-39.245C1882.033,1640.9,1883.9,1632.728,1885.564,1627.722Z" transform="translate(-1790.712 -1598.897)" fill="#f09959"/>
      <path id="Path_12581" data-name="Path 12581" d="M1942.767,2057.438a26.4,26.4,0,0,1-6.385,1.308c-4.2.14-5.464-4.483-5.744-10.764-.244-5.484-4.228-14.119-8.312-17.621-.075.1-.152.2-.234.289-3.783,4.261-3.665,9.891,2.324,13.358,6.98,4.041-.674,19.154,4.369,19.8,5.66.72,14.874,1.995,17.97-1.9C1949.68,2058.216,1946.049,2057.923,1942.767,2057.438Z" transform="translate(-1818.934 -1917.76)" fill="#2e5b9a"/>
      <path id="Path_12582" data-name="Path 12582" d="M1916.233,2024.963s-6.129,6.4-5.569,9.063,2.45,9.387,2.766,14.571.6,11.134.6,11.134,2.207,0,2.382-.626,1.4-21.07,1.4-21.07Z" transform="translate(-1812.13 -1913.635)" fill="#2e5b9a"/>
      <path id="Path_12583" data-name="Path 12583" d="M1537.417,1590.034s-7.913,33.582,2.084,42.89,51.513.935,61.291.377c6.62-.377,13.029,7.7,13.029,7.7s-4.624-18.736-1.471-33.867,8.239-16.148,8.239-16.148l-6.768-.954Z" transform="translate(-1524.643 -1581.254)" fill="#75a1de"/>
      <path id="Path_12584" data-name="Path 12584" d="M1533.889,1552.8c3.384,7.179-3.642,19.578-1.18,23.151s16.56.5,25.8-6.935,26.722-9.07,26.722-9.07Z" transform="translate(-1522.908 -1552.795)" fill="#a8ceff"/>
      <path id="Path_12585" data-name="Path 12585" d="M1567.565,1781.457c27.951,1.051,57.372.554,57.372-3.611s-1.261-7.107-22.906-5.426-36.356,3.993-42.871,2.522S1567.565,1781.457,1567.565,1781.457Z" transform="translate(-1542.272 -1720.269)" fill="#2e5b9a"/>
    </g>
    <rect id="Rectangle_533" data-name="Rectangle 533" width="399.891" height="7.609" rx="3.805" transform="translate(527.436 829.444)" fill="#2e5b9a"/>
    <g id="Group_2420" data-name="Group 2420" transform="translate(803.801 699.434)">
      <path id="Path_12586" data-name="Path 12586" d="M2997.834,1095.066c2.708,9.546-3.905,19.384-11.19,21.45s-12.484-4.42-15.192-13.966,1-18.96,8.288-21.027S2995.126,1085.52,2997.834,1095.066Z" transform="translate(-2825.025 -1067.03)" fill="#f09959"/>
      <path id="Path_12587" data-name="Path 12587" d="M2885.634,1924.823s18.671,29,21.193,30.26,8.826,1.576,6.462,6.3-3.31,23.326-5.517,24.271-21.119,3.152-18.282,0,4.582-1.576,6.013-7.25,3.443-16.391.764-18.6-19.07-22.064-19.07-22.064Z" transform="translate(-2753.671 -1711.806)" fill="#f09959"/>
      <path id="Path_12588" data-name="Path 12588" d="M2391.283,1977.643s-22.7,37.406-26.9,40.769-18.073,8.406-6.724,9.247,16.812-3.783,23.957-5.884,15.971-3.363,12.609-8.826-1.965-17.392,5.283-24.958S2391.283,1977.643,2391.283,1977.643Z" transform="translate(-2353.292 -1752.172)" fill="#f09959"/>
      <path id="Path_12589" data-name="Path 12589" d="M2599,1609.66s-56.184-1.469-78.46,16.812c-13.029,19.754-44.549,78.039-47,84.462,1.681,1.681,11.138,4.715,15.341,4.294,12.4-14.784,28.787-27.565,35.305-39.161,8.032-14.29,10.507-21.435,23.537-22.7s42.45-5.464,51.277-5.464S2599,1609.66,2599,1609.66Z" transform="translate(-2445.191 -1470.93)" fill="#6791c9"/>
      <path id="Path_12590" data-name="Path 12590" d="M3135.451,1904.606h-2.945l-21.119-88.112h6.479Z" transform="translate(-2932.643 -1629.019)" fill="#2e5b9a"/>
      <path id="Path_12591" data-name="Path 12591" d="M2839.274,1894.51h2.945l24.234-91.227h-6.479Z" transform="translate(-2724.689 -1618.923)" fill="#2e5b9a"/>
      <path id="Path_12592" data-name="Path 12592" d="M2783.349,1593.429l-32.666,5.638s-43.407.4-63.249,4.094c-18.052,3.363-20.712,23.874,0,52.117,11.765,16.044,21.713,28.842,42.057,43.273,5.175-3.8,7.155-5.237,8.585-14.378-1.473-2.019-5.284-14.654-6.467-17.126-11.252-23.521-26.271-32.075-26.48-34.389,2.522-4.1,66.8,21.36,79.577,6.385C2796.907,1624.745,2783.349,1593.429,2783.349,1593.429Z" transform="translate(-2597.528 -1458.548)" fill="#75a1de"/>
      <path id="Path_12593" data-name="Path 12593" d="M3012.064,1278.58a34.181,34.181,0,0,0-25.559,6.361c-7.161,7.3-15.263,19.336-14.767,39.192.63,25.217-3.9,26.836.826,33.771,19.72,8.143,53.448,43.132,45.5,5.622-5.751-27.161,12.613-47.405-2.2-77.533C3014.662,1283.54,3013.155,1281.161,3012.064,1278.58Z" transform="translate(-2824.886 -1217.65)" fill="#f37168"/>
      <path id="Path_12594" data-name="Path 12594" d="M2971.736,1354.042c-.384,13.146-2.24,17.019-.821,21.141,8.04.821,22.745,4.038,26.42,9.183,4.2,5.884,8.406,6.725,6.445,2.382s-7.146-10.508.84-31.663,11.769-35.445,3.923-50.156Z" transform="translate(-2824.89 -1238.07)" fill="#d54a41"/>
      <path id="Path_12595" data-name="Path 12595" d="M3064.313,1193.468c-5.3-12.541-6.6-26.631-6.6-26.631l-13.869,4.1s7.88,17.651.315,23.956a72.284,72.284,0,0,0-5.407,4.938A34.18,34.18,0,0,1,3064.313,1193.468Z" transform="translate(-2877.135 -1132.538)" fill="#f09959"/>
      <path id="Path_12596" data-name="Path 12596" d="M3074.7,1172.581c-.822-.731-1.849-1.643-2.929-2.6l-11.313,3.342-.024.061a46.215,46.215,0,0,1,3.534,13.817c3.371-2.046,7.063-5.381,11.282-11.206C3075.027,1174.706,3074.845,1173.553,3074.7,1172.581Z" transform="translate(-2893.708 -1134.943)" fill="#e38540"/>
      <path id="Path_12597" data-name="Path 12597" d="M2832.7,1295.227c-14.285,5-12.7,20.044-25.847,42.238-6.8,11.485-13.124,11.315-13.124,11.315a304.45,304.45,0,0,1-35.256-2.232c-12.085-1.478-12.853,2.12-4.447,5.125,16.952,6.061,34.545,12.585,48.729,11.009s38.445-37.767,39.7-47.188C2844.179,1302.464,2839.893,1292.711,2832.7,1295.227Z" transform="translate(-2655.271 -1230.352)" fill="#f09959"/>
      <g id="Group_2416" data-name="Group 2416" transform="translate(120.225 96.335)">
        <path id="Path_12598" data-name="Path 12598" d="M2913.042,1524.388q-1.328,0-2.724-.035a135.5,135.5,0,0,1-25.869-3.185c-7.513-1.527-11.652-2.368-16.53-.037a3.3,3.3,0,1,1-2.846-5.957c6.873-3.285,12.669-2.107,20.691-.476a129.714,129.714,0,0,0,24.717,3.055c12.418.307,20.015-1.555,23.9-5.858,3.466-3.844,4.487-10.251,3.212-20.164-.431-3.358-.863-6.149-1.244-8.612-1.069-6.911-1.775-11.476-.9-18.515.813-6.561,2.99-15.314,8.032-32.3a3.3,3.3,0,0,1,6.329,1.88c-9.433,31.766-8.953,34.868-6.934,47.923.387,2.5.825,5.337,1.268,8.779,1.539,11.967,0,20.046-4.857,25.427C2934.279,1521.862,2926.125,1524.388,2913.042,1524.388Z" transform="translate(-2863.194 -1429.946)" fill="#2e5b9a"/>
      </g>
      <path id="Path_12599" data-name="Path 12599" d="M2392.825,2111.357c-15.06,7.365-23.165,11.586-27.993,11.184-1.139-.095-2.084-.211-2.876-.335-5.371,3.175-13.943,6.925-4.3,7.64,11.348.84,16.812-3.783,23.957-5.885s15.972-3.362,12.609-8.826A11.5,11.5,0,0,1,2392.825,2111.357Z" transform="translate(-2353.291 -1854.359)" fill="#d54a41"/>
      <path id="Path_12600" data-name="Path 12600" d="M2947.375,2055.773c-.368,11.923-2.007,23.738-9.3,25.971a12.254,12.254,0,0,1-5.254.468c-1.147,1.418-2.546,1.434-4.424,3.521-2.837,3.152,16.076.946,18.282,0s3.152-19.543,5.516-24.271C2954.138,2057.578,2950.231,2056.672,2947.375,2055.773Z" transform="translate(-2792.578 -1811.88)" fill="#d54a41"/>
      <g id="Group_2417" data-name="Group 2417" transform="translate(26.313 82.47)">
        <path id="Path_12601" data-name="Path 12601" d="M2535.367,1419.354h-47.843a3.3,3.3,0,0,1-2.994-1.91l-19.334-41.61a3.3,3.3,0,0,1,5.987-2.782l18.446,39.7h45.737a3.3,3.3,0,1,1,0,6.6Z" transform="translate(-2464.889 -1371.141)" fill="#75a1de"/>
      </g>
      <path id="Path_12602" data-name="Path 12602" d="M2668.37,1499.267c-9.667-.14-19.254-5.9-24.017-5.061s-20.315,11.628-18.353,12.048,14.29-5.97,14.71-6.067,3.083,4.426,9.667,6.087.047-4.935,20.458,1.23C2684.106,1511.512,2668.37,1499.267,2668.37,1499.267Z" transform="translate(-2561.571 -1382.655)" fill="#f09959"/>
      <path id="Path_12603" data-name="Path 12603" d="M3035.062,1231.247l1.423,11.444s-12.509.744-18.734,4.247-15.412,13.622-15.412,13.622l7.505-12.922,1.081-8.266Z" transform="translate(-2849.307 -1181.761)" fill="#f2e5de"/>
      <path id="Path_12604" data-name="Path 12604" d="M2882.365,1289.925c-9.292-1.741-13.59,6.585-19.615,20.174s-16.308,30.095-18.353,32.223-34.465,0-34.465,0-.981,9.387,0,10.507,6.585.981,6.585.981,2.241,1.79,4.343,3.207,19.894,4.079,28.16,3.658,15.831-1.121,16.952-2.382,23.677-36.006,25.078-48.475S2887.107,1290.813,2882.365,1289.925Z" transform="translate(-2701.933 -1226.429)" fill="#f2e5de"/>
      <path id="Path_12605" data-name="Path 12605" d="M2953.805,1027.7c-17.573.841-14.817,27.276-14.817,27.276s4.564,1.409,14.126-.167c-.735-2.837-.42-10.087-.42-10.087a66.1,66.1,0,0,0,2.522,9.457c2.021.927,4.308.105,8.2-.834,2,8.4,7.638,11.949,11.5,13.163,4.268,1.342,8.786,2.942,13.83.42s2.27-28.3-.409-33.484c-4.02-7.781-10.7-14.745-22.259-11.068A85.86,85.86,0,0,0,2953.805,1027.7Z" transform="translate(-2800.772 -1021.366)" fill="#303c60"/>
      <path id="Path_12606" data-name="Path 12606" d="M3131.946,1175.263l7.185,10.494s-7.962,19.894,15.2,28.907c18.136,7.059,16,19.5,7.8,32s4.9,23.431,4.9,23.431,2-13.856,19.619-16.471c24.027-3.566,30.83-35.825,12.884-51.954-14.85-13.348-19.368-2.294-29.421-14.272s-29.029-3.887-29.029-3.887l-6.955-10.143Z" transform="translate(-2948.355 -1137.532)" fill="#303c60"/>
      <g id="Group_2418" data-name="Group 2418" transform="translate(192.158 41.479)">
        <path id="Path_12607" data-name="Path 12607" d="M3235.569,1252.382a.574.574,0,0,1-.5-.85c6.056-11.067,1.115-24.476-1.371-28.108-.262-.384-.511-.772-.775-1.184-2.443-3.813-5.483-8.559-21.689-11.477-3.882-.7-7.03-3.01-10.364-5.457-6.913-5.075-14.749-10.827-31.772-2.992a.574.574,0,0,1-.48-1.043c17.639-8.118,25.764-2.153,32.933,3.11,3.223,2.366,6.268,4.6,9.888,5.253,16.7,3.006,19.889,7.986,22.452,11.987.259.4.5.786.756,1.155a31.11,31.11,0,0,1,4.1,11.917c.657,4.5.726,11.179-2.673,17.392A.575.575,0,0,1,3235.569,1252.382Z" transform="translate(-3168.279 -1197.288)" fill="#303c60"/>
      </g>
      <g id="Group_2419" data-name="Group 2419" transform="translate(161.044 23.553)">
        <path id="Path_12608" data-name="Path 12608" d="M3055.028,1146.126a25.2,25.2,0,0,1-3.722-.3c-6.125-.917-14.343-4.4-14.988-23.973a.574.574,0,0,1,.555-.593.566.566,0,0,1,.593.555c.266,8.1,1.876,14.1,4.782,17.822a13.466,13.466,0,0,0,9.227,5.053c5.719.856,9.512-.2,11.273-3.153a.575.575,0,1,1,.986.59C3062.146,1144.788,3059.224,1146.126,3055.028,1146.126Z" transform="translate(-3036.318 -1121.261)" fill="#303c60"/>
      </g>
    </g>
    <g id="Group_2425" data-name="Group 2425" transform="translate(1024.656 851.504)">
      <path id="Path_12629" data-name="Path 12629" d="M3465.826,1780.1c6.7,6.117,3.787,12.234-1.165,23.594s-5.826,53.307-5.826,53.307l4.078-.583s-.583-43.111,4.952-54.763,7.864-17.478,12.816-13.691S3465.826,1780.1,3465.826,1780.1Z" transform="translate(-3419.025 -1753.276)" fill="#74b570"/>
      <path id="Path_12630" data-name="Path 12630" d="M3471.7,1685.237c.814-3.626,5.646-7.548,12.107-10.875-.961,5.347-4.041,14.089-.854,15.882,4.3,2.418.419-9.787,2.078-16.5a79.838,79.838,0,0,1,20.088-6.589c-.01.025-.018.048-.027.074-3.787,9.613-8.738,13.4-6.7,14.856,1.534,1.1,6.53-10.008,13.129-15.7,4.952-.264,9.142.408,11.621,2.37,3.831,3.033,6.4,5.724,2.549,14.959a17.312,17.312,0,0,1-8.365,3.032c-8.739.874-12.817,1.165-6.7,4.078,3,1.427,8.017-.081,12.087-1-1.321,2.434-2.944,5.188-4.917,8.325a30.9,30.9,0,0,1-4.095,5.21c-2.816.54-5.272.546-6.572-.011-4.078-1.748-14.564-7.282-17.186-4.952-2.566,2.281,19.421,3.725,17.9,9.521-10.658,6.14-22.853,3.219-25.008-2.42C3479.942,1697.93,3469.253,1696.148,3471.7,1685.237Z" transform="translate(-3428.582 -1666.332)" fill="#1dc68c"/>
      <path id="Path_12631" data-name="Path 12631" d="M3459.449,1910.092c-11.651-8.739-23.594-.583-29.712,8.739s-1.747,30.295-1.747,30.295,2.33,0,2.33-.874-6.408-24.76,8.739-35.538c9.476-6.743,16.312-3.5,17.186-.292s-3.787,9.03-3.787,9.03Z" transform="translate(-3394.297 -1849.77)" fill="#74b570"/>
      <path id="Path_12632" data-name="Path 12632" d="M3450.979,1845.989c11.651,0,15.439,18.06,12.234,28.547s-7.574,30-7.574,30l-2.913-2.913s11.07-27.382,8.448-39.616-9.03-14.273-10.2-14.273S3450.979,1845.989,3450.979,1845.989Z" transform="translate(-3412.625 -1803.63)" fill="#9cd499"/>
      <path id="Path_12633" data-name="Path 12633" d="M3484.627,1959.052a8.443,8.443,0,0,1,3.067-2.577,23.06,23.06,0,0,1-.605,2.5c-1.46,4.777-3.162,11.43-4.582,17.256-.129-.746-.328-1.9-.636-3.67-.072-.419-.129-.874-.168-1.355A113.046,113.046,0,0,0,3484.627,1959.052Z" transform="translate(-3436.501 -1888.065)" fill="#74b570"/>
      <path id="Path_12634" data-name="Path 12634" d="M3488.09,1914.544c22.138-9.321,10.475-22.113,29.991-13.665a14.483,14.483,0,0,1,4.728,4.164,14.535,14.535,0,0,1-6.184.5c-5.826-.874-3.787,3.787,5.826,4.952a21.585,21.585,0,0,1,4.5.95c4.58,8.8,6.644,20.369-3.048,24.392a21.956,21.956,0,0,1-6.9,1.416c-2.991-2.377.729-16.131-3.88-14.232-4.427,1.823,1.387,11.79.59,14.3a63.827,63.827,0,0,1-13.829-1.938,6.884,6.884,0,0,1-3.657-4.207c-1.457-6.117,8.156-9.9,8.448-15.147.268-4.82-3.523,10.6-13.567,12.875C3482.033,1924.658,3477.742,1918.9,3488.09,1914.544Z" transform="translate(-3436.778 -1843.469)" fill="#1dc68c"/>
      <path id="Path_12635" data-name="Path 12635" d="M3325.528,1829.432c2.33-4.952-3.788-6.117-3.5-2.331.258,3.356.287,11.512-3.154,13.733a53.992,53.992,0,0,1-20.115-6.68,2.473,2.473,0,0,1,.257-1.518c2.621-5.243,19.517-9.613,14.273-11.36-4.176-1.392-11.493,6.824-17.389,10.962-3.542-2.687-5.914-5.89-5.914-9.465,0-4.839,5.88-10.317,13.484-12.936,3.422.345,6.6,2.216,11.567,5.03,7.335,4.157,5.639-2.563-1.3-6.552a20.889,20.889,0,0,1,16.359,8.979s-.417,2.612,2.348,6.653c7.542,11.023-1.162,17.458-11.567,17.041C3321.474,1838.083,3323.918,1832.854,3325.528,1829.432Z" transform="translate(-3289.99 -1774.838)" fill="#1dc68c"/>
      <path id="Path_12636" data-name="Path 12636" d="M3554.9,1919.841c5.7,4.4,12.024,9.548,19.792,13.044s6.215,14.889,6.215,14.889,1.165-9.84-5.309-13.206-10.746-7.38-15.666-8.156a71.153,71.153,0,0,1-7.638-1.554s1.553-3.107.647-4.272S3554.9,1919.841,3554.9,1919.841Z" transform="translate(-3490.449 -1860.012)" fill="#74b570"/>
      <path id="Path_12637" data-name="Path 12637" d="M3546.889,1700.848c-20.845,5.567-36.123,18.9-38.97,22.139s-2.849,4.143-2.849,4.143l2.2,4.143,1.036-.518s-1.684-3.5,2.718-8.027c7.591-7.814,16.832-13.982,23.176-16.7S3546.889,1700.848,3546.889,1700.848Z" transform="translate(-3454.358 -1692.71)" fill="#74b570"/>
      <path id="Rectangle_534" data-name="Rectangle 534" d="M14.235,0h0A14.235,14.235,0,0,1,28.471,14.235V28.551a0,0,0,0,1,0,0H0a0,0,0,0,1,0,0V14.235A14.235,14.235,0,0,1,14.235,0Z" transform="translate(53.21 123.517) rotate(180)" fill="#75a1de"/>
      <rect id="Rectangle_535" data-name="Rectangle 535" width="28.471" height="2.004" transform="translate(24.739 98.237)" fill="#fff"/>
      <rect id="Rectangle_536" data-name="Rectangle 536" width="28.471" height="1.179" transform="translate(24.739 101.892)" fill="#fff"/>
    </g>
  </g>
</svg>
