<svg xmlns="http://www.w3.org/2000/svg" width="26.448" height="33.411" viewBox="0 0 26.448 33.411">
  <g id="android" transform="translate(-53.35 0.001)">
    <g id="Group_2200" data-name="Group 2200" transform="translate(58.918 12.53)">
      <g id="Group_2199" data-name="Group 2199">
        <path id="Path_12196" data-name="Path 12196" d="M153.3,192.034h-13.92a.7.7,0,0,0-.7.7v11.136a3.486,3.486,0,0,0,2.784,3.411v3.55a2.088,2.088,0,0,0,4.176,0v-3.48h1.392v3.48a2.088,2.088,0,1,0,4.176,0v-3.55A3.485,3.485,0,0,0,154,203.866V192.73A.7.7,0,0,0,153.3,192.034Z" transform="translate(-138.683 -192.034)" fill="#fff"/>
      </g>
    </g>
    <g id="Group_2202" data-name="Group 2202" transform="translate(58.918 -0.001)">
      <g id="Group_2201" data-name="Group 2201" transform="translate(0 0)">
        <path id="Path_12197" data-name="Path 12197" d="M149.983,3.709,151.156.971a.7.7,0,1,0-1.279-.547L148.7,3.163a7.585,7.585,0,0,0-4.725,0L142.8.423a.7.7,0,1,0-1.278.547L142.7,3.709a7.661,7.661,0,0,0-4.015,6.733.7.7,0,0,0,.7.7H153.3a.7.7,0,0,0,.7-.7A7.663,7.663,0,0,0,149.983,3.709Zm-6.427,4.645a.7.7,0,1,1,.7-.7A.7.7,0,0,1,143.556,8.354Zm5.568,0a.7.7,0,1,1,.7-.7A.7.7,0,0,1,149.124,8.354Z" transform="translate(-138.684 0.001)" fill="#fff"/>
      </g>
    </g>
    <g id="Group_2204" data-name="Group 2204" transform="translate(75.622 12.53)">
      <g id="Group_2203" data-name="Group 2203" transform="translate(0)">
        <path id="Path_12198" data-name="Path 12198" d="M396.772,192.034a2.091,2.091,0,0,0-2.088,2.088v6.96a2.088,2.088,0,1,0,4.176,0v-6.96A2.091,2.091,0,0,0,396.772,192.034Z" transform="translate(-394.684 -192.034)" fill="#fff"/>
      </g>
    </g>
    <g id="Group_2206" data-name="Group 2206" transform="translate(53.35 12.53)">
      <g id="Group_2205" data-name="Group 2205" transform="translate(0)">
        <path id="Path_12199" data-name="Path 12199" d="M55.438,192.034a2.091,2.091,0,0,0-2.088,2.088v6.96a2.088,2.088,0,1,0,4.176,0v-6.96A2.091,2.091,0,0,0,55.438,192.034Z" transform="translate(-53.35 -192.034)" fill="#fff"/>
      </g>
    </g>
  </g>
</svg>
