<svg xmlns="http://www.w3.org/2000/svg" width="88.833" height="292.285" viewBox="0 0 88.833 292.285">
  <g id="undraw_build_wireframe_u9m2" transform="translate(-19.385 -37.949)">
    <path id="Path_12122" data-name="Path 12122" d="M113.086,103.449l-.466,11.644,14.9,10.247,2.329-21.89Z" transform="translate(-60.167 -34.993)" fill="#ffb9b9"/>
    <path id="Path_12123" data-name="Path 12123" d="M406.728,342.974l5.123,14.9,10.246,35.4s10.246,17.233,1.4,17.7-6.986-15.37-6.986-15.37L402.07,370.453l-3.26-26.548Z" transform="translate(-318.878 -214.903)" fill="#ffb9b9"/>
    <path id="Path_12124" data-name="Path 12124" d="M391.5,714.636s3.4,9.277,6.866,13.759-1.867,7.349-1.867,7.349l-16.938-2s1.021-14.825-.3-17.287Z" transform="translate(-308.435 -413.463)" fill="#ffb9b9"/>
    <path id="Path_12125" data-name="Path 12125" d="M394.158,744.463s2.718-6.749,4.261-3.877,7.692,6.441,7.692,6.441,16.338,2.851,4.19,7.795-19.779.585-19.779.585-11.451.338-12.774-2.123-1.7-11.922.683-10.486S391.569,748.5,394.158,744.463Z" transform="translate(-307.064 -426.947)" fill="#2f2e41"/>
    <path id="Path_12126" data-name="Path 12126" d="M314.372,684.166s-1.4,9.781-.466,15.37-5.123,5.589-5.123,5.589l-13.973-9.781s7.918-12.575,7.918-15.37Z" transform="translate(-263.316 -394.945)" fill="#ffb9b9"/>
    <path id="Path_12127" data-name="Path 12127" d="M354.645,449.618s-3.726,45.178-11.178,61.945-19.1,49.37-19.1,49.37l-19.562-6.986s9.315-42.383,17.7-48.438l5.589-67.534Z" transform="translate(-268.658 -265.656)" fill="#2f2e41"/>
    <path id="Path_12128" data-name="Path 12128" d="M354.671,449.6l-6.521,24.685,13.973,92.219-17.7,4.192L322.068,466.836s-6.986-13.507-2.794-26.548S354.671,449.6,354.671,449.6Z" transform="translate(-275.67 -264.711)" fill="#2f2e41"/>
    <path id="Path_12129" data-name="Path 12129" d="M306.44,713.269s5.589-4.658,5.589-1.4,3.726,9.315,3.726,9.315,13.041,10.247,0,8.849-17.7-8.849-17.7-8.849-10.247-5.123-10.247-7.918,4.146-11.306,5.566-8.913S302.248,715.6,306.44,713.269Z" transform="translate(-259.576 -407.747)" fill="#2f2e41"/>
    <circle id="Ellipse_407" data-name="Ellipse 407" cx="13.973" cy="13.973" r="13.973" transform="translate(46.864 46.565)" fill="#ffb9b9"/>
    <path id="Path_12130" data-name="Path 12130" d="M316.44,227.974l14.9,11.644,2.795-6.52,3.26,5.589s16.3,8.849,16.3,12.575.466,86.164.466,86.164-14.438,13.972-28.411-5.589-18.63,9.781-18.63,9.781L303.4,284.33l-5.589-37.26a11.156,11.156,0,0,1,3.726-3.726c2.794-1.863,12.575-9.315,12.575-9.315Z" transform="translate(-264.919 -153.464)" fill="#e8505b"/>
    <path id="Path_12131" data-name="Path 12131" d="M177.551,160.449l6.055,2.329,5.589,31.671-12.575,2.794Z" transform="translate(-94.359 -65.446)" fill="#e8505b"/>
    <path id="Path_12132" data-name="Path 12132" d="M273,338.974,268.81,360.4l28.411,28.877s6.986,13.973,12.575,7.918-9.781-13.973-9.781-13.973l-17.7-28.877,4.192-10.246Z" transform="translate(-249.425 -212.766)" fill="#ffb9b9"/>
    <path id="Path_12133" data-name="Path 12133" d="M322.094,163s-2.589-5.7,4.142-8.284c0,0,5.7-9.319,17.085-3.106,0,0,7.766,3.106,7.766,11.39s2.589,9.837,2.589,9.837-3.855-3.955-4.89-7.061-9.088-3.811-12.195-.7-10.872,2.589-10.872,2.589l.518,11.39s-2.589-6.73-3.624-6.73S320.541,163,322.094,163Z" transform="translate(-277.469 -111.526)" fill="#2f2e41"/>
    <path id="Path_12134" data-name="Path 12134" d="M61.853,157.449H56.73l-12.11,35.4,16.767,5.123L70.7,174.682Z" transform="translate(-23.838 -63.843)" fill="#e8505b"/>
    <path id="Path_12135" data-name="Path 12135" d="M122,515.477l-5.879-43.528,8.4,36.757Z" transform="translate(-62.037 -231.864)" opacity="0.3"/>
  </g>
</svg>
