<svg xmlns="http://www.w3.org/2000/svg" width="452.719" height="438.421" viewBox="0 0 452.719 438.421">
  <g id="bus_girl" data-name="bus girl" transform="translate(-12.221 -68.005)">
    <g id="Background_Complete" data-name="Background Complete" transform="translate(29.155 76.096)">
      <g id="Group_23" data-name="Group 23" transform="translate(15.764 292.055)">
        <g id="Group_4" data-name="Group 4" transform="translate(6.401 3.91)">
          <g id="Group_2" data-name="Group 2">
            <rect id="Rectangle_5" data-name="Rectangle 5" width="85.155" height="112.316" fill="#e0e0e0"/>
          </g>
          <g id="Group_3" data-name="Group 3" transform="translate(45.227)">
            <rect id="Rectangle_6" data-name="Rectangle 6" width="39.927" height="112.316" fill="#f0f0f0"/>
          </g>
        </g>
        <g id="Group_9" data-name="Group 9" transform="translate(6.402 19.116)">
          <g id="Group_5" data-name="Group 5" transform="translate(17.855)">
            <rect id="Rectangle_7" data-name="Rectangle 7" width="7.657" height="18.602" fill="#f5f5f5"/>
          </g>
          <g id="Group_6" data-name="Group 6" transform="translate(17.855 72.804)">
            <rect id="Rectangle_8" data-name="Rectangle 8" width="7.657" height="18.602" fill="#f5f5f5"/>
          </g>
          <g id="Group_8" data-name="Group 8" transform="translate(0 25.612)">
            <g id="Group_7" data-name="Group 7">
              <path id="Path_5" data-name="Path 5" d="M92.537,377.794c0,.16-10.126.29-22.613.29s-22.615-.129-22.615-.29,10.123-.291,22.615-.291S92.537,377.633,92.537,377.794Z" transform="translate(-47.31 -377.503)" fill="#fff"/>
            </g>
          </g>
        </g>
        <g id="Group_13" data-name="Group 13" transform="translate(6.402 55.794)">
          <g id="Group_10" data-name="Group 10" transform="translate(17.855)">
            <rect id="Rectangle_9" data-name="Rectangle 9" width="7.657" height="18.602" fill="#f5f5f5"/>
          </g>
          <g id="Group_12" data-name="Group 12" transform="translate(0 25.612)">
            <g id="Group_11" data-name="Group 11">
              <path id="Path_6" data-name="Path 6" d="M92.537,410.71c0,.16-10.126.29-22.613.29s-22.615-.129-22.615-.29,10.123-.291,22.615-.291S92.537,410.549,92.537,410.71Z" transform="translate(-47.31 -410.419)" fill="#fff"/>
            </g>
          </g>
        </g>
        <g id="Group_14" data-name="Group 14" transform="translate(60.108 19.116)">
          <rect id="Rectangle_10" data-name="Rectangle 10" width="7.656" height="18.602" fill="#e0e0e0"/>
        </g>
        <g id="Group_15" data-name="Group 15" transform="translate(76.718 19.116)">
          <rect id="Rectangle_11" data-name="Rectangle 11" width="7.656" height="18.602" fill="#e0e0e0"/>
        </g>
        <g id="Group_16" data-name="Group 16" transform="translate(60.108 54.414)">
          <rect id="Rectangle_12" data-name="Rectangle 12" width="7.656" height="18.602" fill="#e0e0e0"/>
        </g>
        <g id="Group_17" data-name="Group 17" transform="translate(76.718 54.414)">
          <rect id="Rectangle_13" data-name="Rectangle 13" width="7.656" height="18.602" fill="#e0e0e0"/>
        </g>
        <g id="Group_18" data-name="Group 18" transform="translate(60.108 89.712)">
          <rect id="Rectangle_14" data-name="Rectangle 14" width="7.656" height="18.602" fill="#e0e0e0"/>
        </g>
        <g id="Group_19" data-name="Group 19" transform="translate(76.718 89.712)">
          <rect id="Rectangle_15" data-name="Rectangle 15" width="7.656" height="18.602" fill="#e0e0e0"/>
        </g>
        <g id="Group_20" data-name="Group 20" transform="translate(0 0)">
          <rect id="Rectangle_16" data-name="Rectangle 16" width="97.957" height="4.05" fill="#e0e0e0"/>
        </g>
        <g id="Group_22" data-name="Group 22" transform="translate(7.135 4.141)">
          <g id="Group_21" data-name="Group 21">
            <path id="Path_7" data-name="Path 7" d="M132.985,341.37c0,.16-19.033.29-42.506.29s-42.511-.129-42.511-.29,19.029-.291,42.511-.291S132.985,341.209,132.985,341.37Z" transform="translate(-47.968 -341.079)" fill="#fff"/>
          </g>
        </g>
      </g>
      <g id="Group_45" data-name="Group 45" transform="translate(277.22 324.013)">
        <g id="Group_26" data-name="Group 26" transform="translate(4.604 2.812)">
          <g id="Group_24" data-name="Group 24">
            <rect id="Rectangle_17" data-name="Rectangle 17" width="61.25" height="80.786" fill="#e0e0e0"/>
          </g>
          <g id="Group_25" data-name="Group 25" transform="translate(32.531)">
            <rect id="Rectangle_18" data-name="Rectangle 18" width="28.719" height="80.786" fill="#f0f0f0"/>
          </g>
        </g>
        <g id="Group_31" data-name="Group 31" transform="translate(4.604 13.75)">
          <g id="Group_27" data-name="Group 27" transform="translate(12.843)">
            <rect id="Rectangle_19" data-name="Rectangle 19" width="5.507" height="13.38" fill="#f5f5f5"/>
          </g>
          <g id="Group_28" data-name="Group 28" transform="translate(12.843 52.366)">
            <rect id="Rectangle_20" data-name="Rectangle 20" width="5.507" height="13.38" fill="#f5f5f5"/>
          </g>
          <g id="Group_30" data-name="Group 30" transform="translate(0 18.422)">
            <g id="Group_29" data-name="Group 29">
              <path id="Path_8" data-name="Path 8" d="M312.865,395.123c0,.116-7.283.21-16.264.21s-16.267-.094-16.267-.21,7.282-.208,16.267-.208S312.865,395.009,312.865,395.123Z" transform="translate(-280.334 -394.915)" fill="#fff"/>
            </g>
          </g>
        </g>
        <g id="Group_35" data-name="Group 35" transform="translate(4.604 40.131)">
          <g id="Group_32" data-name="Group 32" transform="translate(12.843)">
            <rect id="Rectangle_21" data-name="Rectangle 21" width="5.507" height="13.38" fill="#f5f5f5"/>
          </g>
          <g id="Group_34" data-name="Group 34" transform="translate(0 18.423)">
            <g id="Group_33" data-name="Group 33">
              <path id="Path_9" data-name="Path 9" d="M312.865,418.8c0,.115-7.283.208-16.264.208s-16.267-.094-16.267-.208,7.282-.208,16.267-.208S312.865,418.685,312.865,418.8Z" transform="translate(-280.334 -418.591)" fill="#fff"/>
            </g>
          </g>
        </g>
        <g id="Group_36" data-name="Group 36" transform="translate(43.234 13.75)">
          <rect id="Rectangle_22" data-name="Rectangle 22" width="5.507" height="13.38" fill="#e0e0e0"/>
        </g>
        <g id="Group_37" data-name="Group 37" transform="translate(55.182 13.75)">
          <rect id="Rectangle_23" data-name="Rectangle 23" width="5.507" height="13.38" fill="#e0e0e0"/>
        </g>
        <g id="Group_38" data-name="Group 38" transform="translate(43.234 39.138)">
          <rect id="Rectangle_24" data-name="Rectangle 24" width="5.507" height="13.38" fill="#e0e0e0"/>
        </g>
        <g id="Group_39" data-name="Group 39" transform="translate(55.182 39.138)">
          <rect id="Rectangle_25" data-name="Rectangle 25" width="5.507" height="13.38" fill="#e0e0e0"/>
        </g>
        <g id="Group_40" data-name="Group 40" transform="translate(43.234 64.527)">
          <rect id="Rectangle_26" data-name="Rectangle 26" width="5.507" height="13.38" fill="#e0e0e0"/>
        </g>
        <g id="Group_41" data-name="Group 41" transform="translate(55.182 64.527)">
          <rect id="Rectangle_27" data-name="Rectangle 27" width="5.507" height="13.38" fill="#e0e0e0"/>
        </g>
        <g id="Group_42" data-name="Group 42">
          <rect id="Rectangle_28" data-name="Rectangle 28" width="70.458" height="2.913" fill="#e0e0e0"/>
        </g>
        <g id="Group_44" data-name="Group 44" transform="translate(5.132 2.979)">
          <g id="Group_43" data-name="Group 43">
            <path id="Path_10" data-name="Path 10" d="M341.957,368.924c0,.116-13.69.209-30.573.209s-30.576-.094-30.576-.209,13.687-.208,30.576-.208S341.957,368.81,341.957,368.924Z" transform="translate(-280.808 -368.716)" fill="#fff"/>
          </g>
        </g>
      </g>
      <g id="Group_46" data-name="Group 46" transform="translate(0 77.117)">
        <path id="Path_11" data-name="Path 11" d="M27.418,173.192H90.142s.008-14.36-7.406-14.36a11.4,11.4,0,0,0-11.5,8.9s0-26.8-13.485-22.869c-12.761,3.722-14.2,20.878-14.2,20.878s-2.3-8.628-9.213-3.766S27.418,173.192,27.418,173.192Z" transform="translate(-27.418 -144.472)" fill="#e0e0e0"/>
      </g>
      <g id="Group_47" data-name="Group 47" transform="translate(316.189)">
        <path id="Path_12" data-name="Path 12" d="M311.174,93.885h40.664s.006-9.309-4.8-9.309a7.391,7.391,0,0,0-7.456,5.771s0-17.375-8.742-14.826c-8.274,2.412-9.209,13.535-9.209,13.535s-1.489-5.594-5.973-2.441S311.174,93.885,311.174,93.885Z" transform="translate(-311.174 -75.266)" fill="#ebebeb"/>
      </g>
      <g id="Group_48" data-name="Group 48" transform="translate(395.121 134.529)">
        <path id="Path_13" data-name="Path 13" d="M382.009,214.615h40.664s.006-9.31-4.8-9.31a7.392,7.392,0,0,0-7.456,5.772s0-17.375-8.743-14.826c-8.273,2.412-9.207,13.534-9.207,13.534s-1.489-5.593-5.974-2.44S382.009,214.615,382.009,214.615Z" transform="translate(-382.009 -195.996)" fill="#e0e0e0"/>
      </g>
    </g>
    <g id="Floor" transform="translate(12.221 484.086)">
      <g id="Group_49" data-name="Group 49">
        <path id="Path_14" data-name="Path 14" d="M448.718,441.7c0,.159-97.721.29-218.238.29-120.559,0-218.259-.13-218.259-.29s97.7-.291,218.259-.291C351,441.406,448.718,441.536,448.718,441.7Z" transform="translate(-12.221 -441.406)" fill="#263238"/>
      </g>
    </g>
    <g id="Device" transform="translate(118.715 68.005)">
      <g id="Group_53" data-name="Group 53">
        <g id="Group_50" data-name="Group 50">
          <path id="Path_15" data-name="Path 15" d="M279.705,484.4l-141.28-.653a30.776,30.776,0,0,1-30.633-30.905l1.5-354.191a30.775,30.775,0,0,1,30.917-30.644l141.28.652a30.775,30.775,0,0,1,30.632,30.905l-1.5,354.191A30.775,30.775,0,0,1,279.705,484.4Z" transform="translate(-107.792 -68.005)" fill="#263238"/>
        </g>
        <g id="Group_51" data-name="Group 51" transform="translate(9.471 14.671)">
          <path id="Path_16" data-name="Path 16" d="M117.043,231.835v.111l.02,0Z" transform="translate(-116.205 -63.95)" fill="#fff"/>
          <path id="Path_17" data-name="Path 17" d="M148.81,234.324l-27.735,5.3a166.387,166.387,0,0,0,2.4,26.65,34.279,34.279,0,0,0,2.785,9.712A16.712,16.712,0,0,0,139.372,285c4.1-10.678,6-23.164,7.692-36.71Zm-5.917,11.588-2,18.253a19.806,19.806,0,0,1-1.163,5.577,6.233,6.233,0,0,1-3.861,3.77c-2.375.617-4.873-.937-6.235-3.071s-1.836-4.739-2.281-7.265q-.8-4.541-1.6-9.082a12.162,12.162,0,0,1-.057-5.91c1.023-3.07,4.272-4.66,7.323-5.217s6.25-.435,9.134-1.617l.937,2.872Z" transform="translate(-115.744 -63.666)" fill="#fff"/>
          <path id="Path_18" data-name="Path 18" d="M163.044,278.557c1.53-7.015,8.524-11.072,14.99-8.683l13.552,5.007a146.584,146.584,0,0,1,4.73-25.4L156.9,234.718l-1.833,14.654c-2.846,22.764-6.267,42.827-19.354,57.824a72.649,72.649,0,0,1-12.986,11.342l9.293,10.315a55.3,55.3,0,0,0,5.33-4.456C149.3,312.667,159.287,295.794,163.044,278.557Z" transform="translate(-115.555 -63.621)" fill="#fff"/>
          <path id="Path_19" data-name="Path 19" d="M265.648,97.206V81.289l-25.876-.118a6.733,6.733,0,0,0-6.655,6.777C243.694,89.4,255.031,92.073,265.648,97.206Z" transform="translate(-102.938 -81.171)" fill="#fff"/>
          <path id="Path_20" data-name="Path 20" d="M214.734,257.247l24.7,9.25a36.917,36.917,0,0,1,15.282,10.861l35.031-25.287.076-18.036-13.3,14.294-33.271-15.214L261.083,209.7l28.788,13.163L289.9,216l-24.929-11.4,11.2-14.708,13.825,2.5.038-8.836L273.6,180.946Zm57.3-4.089L258.694,267.49,228.262,252.8l11.1-14.578Z" transform="translate(-105.039 -69.767)" fill="#fff"/>
          <path id="Path_21" data-name="Path 21" d="M194.04,250.455l1.666-91.256-30.617-9.223L154.382,235.6Zm-22.649-85.082h16.973v57.994H171.391Zm-7.072,55.165v11.316h-4.243V220.537Z" transform="translate(-111.937 -73.307)" fill="#fff"/>
          <path id="Path_22" data-name="Path 22" d="M231.846,219.724l30.866-40.01-30.866-9.3Z" transform="translate(-103.083 -70.97)" fill="#fff"/>
          <path id="Path_23" data-name="Path 23" d="M269.927,116.634v63.307l13.839,2.2.032-7.639-2.216-.357a3.873,3.873,0,0,1-3.176-3.884l.009-29.266a3.74,3.74,0,0,1,5.539-3.431L284,127.328c-1.965-1.476-3.9-2.965-5.8-4.432C275.4,120.74,272.665,118.634,269.927,116.634Z" transform="translate(-98.73 -77.118)" fill="#fff"/>
          <path id="Path_24" data-name="Path 24" d="M198.025,313.945a149.463,149.463,0,0,0-29.22,22.913c-4.422,4.462-8.616,9.152-13.036,13.493l8.492,9.426c2.889-2.583,5.8-5.311,8.741-8.079,10.063-9.456,21.059-19.78,34.293-26.857A52.079,52.079,0,0,1,198.025,313.945Z" transform="translate(-111.779 -54.565)" fill="#fff"/>
          <path id="Path_25" data-name="Path 25" d="M284.08,111.773l.038-9.015a21.511,21.511,0,0,0-14.191-20.3v19.3C274.886,104.847,279.549,108.3,284.08,111.773Z" transform="translate(-98.73 -81.024)" fill="#fff"/>
          <path id="Path_26" data-name="Path 26" d="M187.794,274.576l52.982,19.573c4.387,1.547,3.994,8.2-.544,9.152a148.484,148.484,0,0,0-42.568,16.134,47.215,47.215,0,0,0,9.738,10.921,71.6,71.6,0,0,1,15.25-5.248,66.191,66.191,0,0,1,20.805-1.135,38.7,38.7,0,0,0,14.662-23.725q.117-.633.213-1.278a29.626,29.626,0,0,0-18.593-32.1l-47.308-17.715A141.65,141.65,0,0,0,187.794,274.576Z" transform="translate(-108.118 -61.97)" fill="#fff"/>
          <path id="Path_27" data-name="Path 27" d="M165.162,81.263l-.567,0c.181.047.369.088.55.135Z" transform="translate(-110.77 -81.16)" fill="#fff"/>
          <path id="Path_28" data-name="Path 28" d="M150.392,235.37,161.2,148.906l-43.765-2.778-.318,75.029,3.628,19.875Zm-22.835-80.7,26.743,1.3-4.748,43.786h-22Zm21.217,53.571v18.389H123.313V208.246Z" transform="translate(-116.196 -73.746)" fill="#fff"/>
          <path id="Path_29" data-name="Path 29" d="M222.671,100.324c-4.787-.248-9.706-.391-14.461-.529-11.945-.349-24.3-.708-36.527-2.738-.142-.023-.279-.052-.42-.077l-6.3,50.354,108.47,32.675v-66.85c-1.587-.965-3.19-1.887-4.832-2.729C253.782,102.813,236.271,101.028,222.671,100.324Zm-27.03,46.105-20.958-6.139,3.119-32.513h17.839Zm8.487-40.066h18.388v19.8H204.128Zm63.652,59.348-57.994-15.776v-9.624H231V119.093H267.78Z" transform="translate(-110.727 -79.364)" fill="#fff"/>
          <path id="Path_30" data-name="Path 30" d="M232.277,325.074c-20.163,4.411-35.74,19.049-49.484,31.966-13.187,12.393-25.641,24.1-40.545,26.708-2.392.419-4.993.622-7.747.836a70.019,70.019,0,0,0-15.273,2.4c-.949.29-1.885.625-2.814.986l-.053,12.686a29.616,29.616,0,0,1,6.14-2.688c7.039-2.145,14.546-1.673,21.776-2.938,35.453-6.209,55.272-51.062,90.459-58.758,18.728-4.1,38.767,3.848,52.367,17.977A79.622,79.622,0,0,1,300.41,373.12l.085-20.093a86.5,86.5,0,0,0-5.969-6.909C277.527,328.457,253.674,320.393,232.277,325.074Z" transform="translate(-116.283 -53.443)" fill="#fff"/>
          <path id="Path_31" data-name="Path 31" d="M130.306,300.762a51.375,51.375,0,0,0,7.974-12.614,20.636,20.636,0,0,1-14.834-10.912,37.792,37.792,0,0,1-3.172-10.878,170.769,170.769,0,0,1-2.453-26.636l-.781.149-.305,72.336A69.554,69.554,0,0,0,130.306,300.762Z" transform="translate(-116.24 -63.049)" fill="#fff"/>
          <path id="Path_32" data-name="Path 32" d="M129.615,322.325l-9.378-10.41q-1.767,1.193-3.533,2.351l-.08,19.206C119.678,329.515,124.777,325.852,129.615,322.325Z" transform="translate(-116.253 -54.797)" fill="#fff"/>
          <path id="Path_33" data-name="Path 33" d="M260.128,291.423a38.957,38.957,0,0,1-.429,5.762q-.119.792-.264,1.581a48.028,48.028,0,0,1-12.185,23.957,81.49,81.49,0,0,1,38.34,22.611l.04-9.495-11.283-8.053,8.138-21.367,3.265,1.371.132-31.239-25.87,11.884Q260.126,289.92,260.128,291.423Z" transform="translate(-101.322 -58.839)" fill="#fff"/>
          <path id="Path_34" data-name="Path 34" d="M117.141,375.767a76.335,76.335,0,0,1,16.944-2.719c2.58-.2,5-.39,7.02-.743,8.522-1.492,16.605-7.006,24.761-14l-8.386-9.309a62.389,62.389,0,0,1-13.06,9.522,21.671,21.671,0,0,1-27.874-6.46l-.1,23.931,0,.009C116.681,375.921,116.91,375.838,117.141,375.767Z" transform="translate(-116.273 -50.559)" fill="#fff"/>
          <path id="Path_35" data-name="Path 35" d="M168.57,97.081c-13.26-3.181-24.53-8.371-33.653-15.514-6.44.9-10.5,3.665-13.042,6.906A22.837,22.837,0,0,0,118,98.021l8.1.537V137.6l-8.635-.475-.032,7.693,44.806,2.845ZM133.178,137.9V98.918l26.579,1.761-4.078,38.453Z" transform="translate(-116.16 -81.126)" fill="#fff"/>
          <path id="Path_36" data-name="Path 36" d="M232.006,170.413l-37.015-11.15-1.67,91.526,15.474,5.8L232.006,226.5Zm-28.29,67.451h-5.658V220.889h5.658Zm8.487,0h-5.657V220.889H212.2Zm8.487,0h-5.657V220.889h5.657Zm-19.8-33.947V169.41l25.461,8.151v26.355Z" transform="translate(-107.486 -72.245)" fill="#fff"/>
          <path id="Path_37" data-name="Path 37" d="M257.7,282.881l27.6-12.678.089-21.118-32.647,23.565A38.883,38.883,0,0,1,257.7,282.881Z" transform="translate(-100.695 -61.978)" fill="#fff"/>
          <path id="Path_38" data-name="Path 38" d="M170.617,98.518c.142.025.279.053.42.077,12.231,2.03,24.581,2.389,36.527,2.738,4.756.138,9.674.281,14.461.529,13.6.7,31.111,2.489,45.935,10.106,1.641.842,3.245,1.764,4.832,2.729V96.937c-10.617-5.132-21.954-7.8-32.531-9.258l0,.035-.022,4.89a6.734,6.734,0,0,1-6.656,6.812l-53.2-.243a6.741,6.741,0,0,1-6.6-6.873V87.735a8.469,8.469,0,0,0-1.286-4.21Z" transform="translate(-110.081 -80.902)" fill="#f5f5f5"/>
          <path id="Path_39" data-name="Path 39" d="M269.927,118.561c2.738,2,5.473,4.106,8.268,6.262,1.9,1.466,3.838,2.955,5.8,4.432l.082-19.461c-4.531-3.47-9.194-6.926-14.153-10.02Z" transform="translate(-98.73 -79.045)" fill="#f5f5f5"/>
          <path id="Path_40" data-name="Path 40" d="M168.743,81.406c-.182-.047-.37-.088-.55-.135l-.222-.06-6.06.08H137.937a33.28,33.28,0,0,0-4.813.316c9.123,7.144,20.393,12.333,33.653,15.514Z" transform="translate(-114.367 -81.166)" fill="#e0e0e0"/>
          <path id="Path_41" data-name="Path 41" d="M234.744,335.1c-35.187,7.7-55.006,52.549-90.459,58.758-7.23,1.266-14.737.793-21.776,2.938a29.618,29.618,0,0,0-6.14,2.688l-.079,18.866a21.526,21.526,0,0,0,21.432,21.612l140.863.65a21.527,21.527,0,0,0,21.632-21.428l.2-47.236a79.623,79.623,0,0,0-13.307-18.871C273.511,338.947,253.473,331,234.744,335.1Z" transform="translate(-116.291 -52.27)" fill="#fff"/>
          <path id="Path_42" data-name="Path 42" d="M144.41,361.686a62.388,62.388,0,0,0,13.06-9.522l-27.845-30.907c-4.837,3.527-9.936,7.191-12.992,11.147l-.1,22.822A21.671,21.671,0,0,0,144.41,361.686Z" transform="translate(-116.263 -53.729)" fill="#f5f5f5"/>
          <path id="Path_43" data-name="Path 43" d="M191.6,295.747c-.338-1.785-.633-3.589-.841-5.426a94.774,94.774,0,0,1-.126-18.977l-13.552-5.007c-6.465-2.389-13.46,1.668-14.99,8.683-3.756,17.237-13.742,34.11-25.694,45.841a55.308,55.308,0,0,1-5.33,4.456L144.3,340Z" transform="translate(-114.602 -60.085)" fill="#f5f5f5"/>
          <path id="Path_44" data-name="Path 44" d="M170.006,338.842a149.465,149.465,0,0,1,29.22-22.913,65.519,65.519,0,0,1-8.288-19.334l-45.682,42.738,11.714,13C161.39,347.993,165.584,343.3,170.006,338.842Z" transform="translate(-112.98 -56.548)" fill="#f5f5f5"/>
          <path id="Path_45" data-name="Path 45" d="M240.808,291.542l-52.982-19.573a88.911,88.911,0,0,0,.208,17.161,64.033,64.033,0,0,0,9.661,27.7,148.484,148.484,0,0,1,42.568-16.134C244.8,299.739,245.195,293.088,240.808,291.542Z" transform="translate(-108.15 -59.363)" fill="#f5f5f5"/>
          <path id="Path_46" data-name="Path 46" d="M132.582,242.246c-3.051.557-6.3,2.147-7.323,5.217a12.162,12.162,0,0,0,.057,5.91q.8,4.541,1.6,9.082c.445,2.526.919,5.131,2.281,7.265s3.86,3.688,6.235,3.071a6.233,6.233,0,0,0,3.861-3.77,19.806,19.806,0,0,0,1.163-5.577l2-18.253.2-1.69-.937-2.872C138.832,241.811,135.632,241.689,132.582,242.246Z" transform="translate(-115.306 -62.945)" fill="#f5f5f5"/>
          <path id="Path_47" data-name="Path 47" d="M277.545,138.9l-.009,29.266a3.873,3.873,0,0,0,3.176,3.884l2.216.357.156-36.938A3.74,3.74,0,0,0,277.545,138.9Z" transform="translate(-97.86 -75.021)" fill="#f5f5f5"/>
          <path id="Path_48" data-name="Path 48" d="M240.327,230.166,273.6,245.379l13.3-14.294.047-11.167-28.787-13.163Z" transform="translate(-102.113 -66.817)" fill="#e6e6e6"/>
          <path id="Path_49" data-name="Path 49" d="M259.818,203.682l24.928,11.4.1-23.6-13.825-2.5Z" transform="translate(-99.886 -68.849)" fill="#e6e6e6"/>
          <path id="Path_50" data-name="Path 50" d="M278.988,114.966v66.85l-108.47-32.675,6.3-50.354,1.875-14.993a6.018,6.018,0,0,0-5.381-2.623l-2.629.035-.009.068-.017.137-1.966,15.716-6.325,50.58-44.806-2.845-.037,8.69,43.765,2.778-10.812,86.464-29.643,5.662L117.2,228.582l-.087,20.474.02.107-.02,0-.038,8.827.781-.149a170.768,170.768,0,0,0,2.453,26.636,37.792,37.792,0,0,0,3.172,10.878,20.636,20.636,0,0,0,14.834,10.912,51.376,51.376,0,0,1-7.974,12.614,69.555,69.555,0,0,1-13.571,11.445l-.045,10.311q1.765-1.16,3.533-2.351l9.378,10.41,27.845,30.907,8.386,9.309c-8.156,7-16.239,12.51-24.761,14-2.021.353-4.441.543-7.02.743a76.337,76.337,0,0,0-16.944,2.719c-.232.07-.46.154-.692.228l0-.009-.039,9.1c.928-.361,1.864-.7,2.814-.986a70.019,70.019,0,0,1,15.273-2.4c2.753-.214,5.354-.417,7.747-.836,14.9-2.61,27.358-14.314,40.545-26.708,13.744-12.917,29.321-27.554,49.484-31.966,21.4-4.681,45.249,3.383,62.248,21.044a86.5,86.5,0,0,1,5.969,6.909l.056-13.087a81.49,81.49,0,0,0-38.34-22.611A48.028,48.028,0,0,0,274.39,321.1q.145-.789.264-1.581a38.953,38.953,0,0,0,.429-5.762q0-1.5-.117-2.987l25.87-11.884.04-9.489-27.6,12.678a38.881,38.881,0,0,0-4.961-10.232l32.647-23.565.021-4.8-35.031,25.287A36.917,36.917,0,0,0,250.673,277.9l-24.7-9.25,58.864-76.3,16.439,2.612.037-8.77-13.839-2.2V82.605a21.456,21.456,0,0,0-7.242-1.309l-1.245-.007v33.676Zm-3.081,74.949-30.866,40.01V180.617Zm-75.86-22.851-1.666,91.256-39.658-14.851L169.43,157.84ZM126.792,293.49a34.279,34.279,0,0,1-2.785-9.712,166.387,166.387,0,0,1-2.4-26.65l27.735-5.3L147.6,265.794c-1.694,13.545-3.589,26.031-7.692,36.709A16.712,16.712,0,0,1,126.792,293.49Zm-3.343,42.6a72.649,72.649,0,0,0,12.986-11.342c13.087-15,16.508-35.06,19.354-57.824l1.833-14.654,39.415,14.76a146.582,146.582,0,0,0-4.73,25.4,94.775,94.775,0,0,0,.126,18.977c.208,1.836.5,3.64.841,5.426l-47.3,44.256L132.742,346.4ZM177.5,378.3c-2.945,2.768-5.851,5.5-8.741,8.079l-8.492-9.426-11.714-13,45.682-42.738a65.519,65.519,0,0,0,8.288,19.334,52.078,52.078,0,0,0,9.269,10.9C198.558,358.525,187.563,368.849,177.5,378.3Zm88.991-60.134q-.1.643-.213,1.278a38.7,38.7,0,0,1-14.662,23.725,66.191,66.191,0,0,0-20.805,1.135,71.6,71.6,0,0,0-15.25,5.248,47.217,47.217,0,0,1-9.738-10.921,64.032,64.032,0,0,1-9.661-27.7,88.91,88.91,0,0,1-.208-17.161,141.651,141.651,0,0,1,4.637-25.418L247.9,286.074A29.626,29.626,0,0,1,266.491,318.17Zm-64.379-58.455,1.67-91.526,37.015,11.15v56.086l-23.211,30.086Z" transform="translate(-116.277 -81.171)" fill="#e0e0e0"/>
          <path id="Path_51" data-name="Path 51" d="M153.23,155.1l-26.743-1.3v45.084h21.995Z" transform="translate(-115.125 -72.87)" fill="#ebebeb"/>
          <rect id="Rectangle_29" data-name="Rectangle 29" width="25.461" height="18.388" transform="translate(7.118 134.5)" fill="#ebebeb"/>
          <path id="Path_52" data-name="Path 52" d="M226.406,138.043H205.189v9.624l57.994,15.776V116.826H226.406Z" transform="translate(-106.13 -77.096)" fill="#ebebeb"/>
          <path id="Path_53" data-name="Path 53" d="M173.687,139.183l20.957,6.139V106.67H176.806Z" transform="translate(-109.73 -78.256)" fill="#ebebeb"/>
          <rect id="Rectangle_30" data-name="Rectangle 30" width="18.388" height="19.803" transform="translate(93.401 27)" fill="#e0e0e0"/>
          <path id="Path_54" data-name="Path 54" d="M226.874,246.923l30.433,14.692,13.336-14.333-32.666-14.937Z" transform="translate(-103.651 -63.892)" fill="#e6e6e6"/>
          <rect id="Rectangle_31" data-name="Rectangle 31" width="16.974" height="57.994" transform="translate(59.453 92.066)" fill="#ebebeb"/>
          <rect id="Rectangle_32" data-name="Rectangle 32" width="4.243" height="11.316" transform="translate(48.138 147.23)" fill="#e0e0e0"/>
          <path id="Path_55" data-name="Path 55" d="M200.111,168.369v34.506h25.461V176.52Z" transform="translate(-106.71 -71.204)" fill="#ebebeb"/>
          <rect id="Rectangle_33" data-name="Rectangle 33" width="5.658" height="16.974" transform="translate(90.572 148.645)" fill="#ebebeb"/>
          <rect id="Rectangle_34" data-name="Rectangle 34" width="5.658" height="16.974" transform="translate(99.059 148.645)" fill="#ebebeb"/>
          <rect id="Rectangle_35" data-name="Rectangle 35" width="5.658" height="16.974" transform="translate(107.546 148.645)" fill="#ebebeb"/>
          <path id="Path_56" data-name="Path 56" d="M126.1,96.871l-8.1-.537-.108-.007a21.29,21.29,0,0,0-.274,4.268l-.148,34.842,8.635.475Z" transform="translate(-116.156 -79.439)" fill="#e6e6e6"/>
          <path id="Path_57" data-name="Path 57" d="M131.564,97.138v38.979l22.5,1.236L158.143,98.9Z" transform="translate(-114.545 -79.346)" fill="#e6e6e6"/>
          <path id="Path_58" data-name="Path 58" d="M271.567,324.724l11.284,8.053.119-28.049-3.265-1.371Z" transform="translate(-98.543 -55.775)" fill="#f0f0f0"/>
        </g>
        <g id="Group_52" data-name="Group 52" transform="translate(47.162 112.542)">
          <path id="Path_59" data-name="Path 59" d="M150.857,389.658c23.093-11.191,38.166-33.568,60.54-45.819a45.806,45.806,0,0,1,18.686-5.979c5.851-.4,11.462.089,17.189-1.544,8.013-2.284,12.885-7.439,16.406-14.9,4.339-9.2,7.6-21.291,3.442-31.052a41.011,41.011,0,0,0-20.262-20.933c-4.974-2.349-10.311-3.737-15.4-5.821-3.309-1.356-7.285-2.837-9.991-5.27-2.074-1.864-1.256-3.052.079-5.482a61.171,61.171,0,0,1,6.076-8.553c4.12-5.149,9.043-10.154,12.066-16.083,2.115-4.149,2.488-8.826,2.557-13.413.222-14.87.78-29.7,1.157-44.576.041-1.644-2.439-1.619-2.538,0-.809,13.217-1.588,26.546-1.315,39.787.1,4.843.381,10.16-1.254,14.8-2.162,6.14-7.364,11.27-11.4,16.211a70.883,70.883,0,0,0-8.5,12.08c-1.021,1.982-1.628,3.329-.418,5.336,2.717,4.506,10.167,6.695,14.764,8.463,5.812,2.238,11.726,3.79,17.142,7.007a37.608,37.608,0,0,1,12.458,12.558c4.662,7.373,5.19,14.358,3.211,22.764-2.564,10.889-7.367,21.785-18.809,25.168-5.553,1.641-11,1.2-16.661,1.609a43.63,43.63,0,0,0-13.971,3.555c-25.412,10.843-41.788,35.848-65.749,49.247-.558.312-.068,1.121.495.848Z" transform="translate(-150.116 -169.003)" fill="#263238"/>
        </g>
        <path id="Path_60" data-name="Path 60" d="M160.063,350.754c.615-10.282-12.714-12.772-17.318-4.985-4.213,7.124,9.5,26.615,9.5,26.615h0m1.284-17.317a4.969,4.969,0,1,1,.87-6.973A4.969,4.969,0,0,1,153.531,355.067Z" transform="translate(-103.889 -36.779)" fill="#e8505b"/>
      </g>
    </g>
    <g id="Character" transform="translate(241.033 126.667)">
      <g id="Group_131" data-name="Group 131">
        <g id="Group_59" data-name="Group 59" transform="translate(0 29.094)">
          <path id="Path_61" data-name="Path 61" d="M362.33,196.9c-5.21-7.649-8.725-11.445-16.207-14.152a29.3,29.3,0,0,0-8.891-1.7h0c-7.158,2.213-12.092,2.2-19.251,0-3.666.459-6.8-2.183-25.519,9.4-7.725,4.78-13.026,7.951-22.2,12.67-2.5,1.171-4.274,1.845-4.661,1.612-1.7-1.02-20.161-34.8-20.161-34.8s-4.117-11.676-5.841-11.605-13.988.455-14.179,2.37.575,10.346,1.917,11.5,6.16,4.224,6.16,4.224,20.475,52.949,28.041,52.2c5.536-.55,26.881-9.415,37.951-14.137l2.46-.876,1.451,30.7-.586,38.692,48.284-2.739-.8-39.841c.373-9.914.116-13.12,1.143-21.337l14.464,5.5,2.581-16.337A84.085,84.085,0,0,0,362.33,196.9Z" transform="translate(-216.668 -145.439)" fill="#e5baab"/>
          <g id="Group_58" data-name="Group 58">
            <path id="Path_62" data-name="Path 62" d="M232.429,151.177c-2.766-6.708-13.869-5.456-14.8,1.587-1.3,9.826,17.743,17.618,17.743,17.618v-.667S234.561,156.351,232.429,151.177Zm-2.97,5.656a4.055,4.055,0,1,1-2.126-5.326A4.053,4.053,0,0,1,229.459,156.833Z" transform="translate(-217.563 -146.759)" fill="#e8505b"/>
            <g id="Group_54" data-name="Group 54" transform="translate(11.74 21.206)">
              <path id="Path_63" data-name="Path 63" d="M228.883,165.8a7.982,7.982,0,0,1,1.839,1.133l1.9,1.358c.357.266.723.517,1.117.839a2.084,2.084,0,0,1,.832,1.44,1.3,1.3,0,0,1-.8,1.274,1.958,1.958,0,0,1-1.355.058,13.7,13.7,0,0,1-1.941-.923c-1.1-.586-1.9-1.04-2.22-1.266l.092-.1c.059.154.075.231.053.242s-.078-.042-.176-.174l-.12-.162.213.065c.374.114,1.22.467,2.359.983a17.754,17.754,0,0,0,1.882.8c.628.213,1.5-.1,1.437-.771-.05-.821-1.044-1.327-1.692-1.884l-1.824-1.458A8.094,8.094,0,0,1,228.883,165.8Z" transform="translate(-228.099 -165.79)" fill="#d78776"/>
            </g>
            <g id="Group_55" data-name="Group 55" transform="translate(12.937 18.464)">
              <path id="Path_64" data-name="Path 64" d="M230.673,163.338a6.444,6.444,0,0,1,2.068.851,7.579,7.579,0,0,1,1.96,1.5,5.17,5.17,0,0,1,.845,1.231,2.219,2.219,0,0,1,.233,1.693,1.219,1.219,0,0,1-.688.7,1.859,1.859,0,0,1-.872.108,4.736,4.736,0,0,1-1.439-.43,9.5,9.5,0,0,1-2.1-1.268,4.676,4.676,0,0,1-1.5-1.668c.071-.064.635.577,1.744,1.338a10.742,10.742,0,0,0,2.067,1.1,4.487,4.487,0,0,0,1.278.358c.439.038.847-.091.969-.446a1.738,1.738,0,0,0-.2-1.245,4.949,4.949,0,0,0-.731-1.121,8.236,8.236,0,0,0-1.772-1.5A12.656,12.656,0,0,1,230.673,163.338Z" transform="translate(-229.173 -163.329)" fill="#d78776"/>
            </g>
            <g id="Group_57" data-name="Group 57" transform="translate(11.744 13.445)">
              <path id="Path_65" data-name="Path 65" d="M239.206,158.836l-9.621,2.835a1.738,1.738,0,0,0-1.12.683c-.362.67.276,1.452.933,1.84a7.864,7.864,0,0,0,4.678.9,23.4,23.4,0,0,0,4.71-1.072" transform="translate(-228.073 -158.824)" fill="#e5baab"/>
              <g id="Group_56" data-name="Group 56">
                <path id="Path_66" data-name="Path 66" d="M238.815,164.019a2.776,2.776,0,0,1-.846.371,20,20,0,0,1-2.416.7,10.507,10.507,0,0,1-3.765.2,7,7,0,0,1-2.167-.666,3.286,3.286,0,0,1-1.017-.732,1.629,1.629,0,0,1-.487-1.317,1.411,1.411,0,0,1,.975-1.032c.407-.152.764-.234,1.132-.347l2.1-.6,3.572-.988a19.936,19.936,0,0,1,3.334-.768A19.96,19.96,0,0,1,236.017,160l-3.538,1.106-2.095.635c-.7.231-1.621.367-1.7.93a1.086,1.086,0,0,0,.343.832,2.773,2.773,0,0,0,.848.614,6.674,6.674,0,0,0,1.991.643,10.91,10.91,0,0,0,3.6-.071C237.529,164.312,238.789,163.921,238.815,164.019Z" transform="translate(-228.103 -158.825)" fill="#d78776"/>
              </g>
            </g>
          </g>
        </g>
        <g id="Group_61" data-name="Group 61" transform="translate(142.904 171.242)">
          <path id="Path_67" data-name="Path 67" d="M354.383,328.435a21.369,21.369,0,0,0,18.787-33.763c-3.029-4.229-7.467-7.192-11.8-10.06l-15.557-10.286,4.758,40.335,3.816,13.774" transform="translate(-345.808 -274.326)" fill="#e8505b"/>
          <g id="Group_60" data-name="Group 60" transform="translate(2.724 16.74)">
            <path id="Path_68" data-name="Path 68" d="M376.258,300.013a2.99,2.99,0,0,1-.844,1.02,7.4,7.4,0,0,1-3.256,1.559c-3.005.712-7.42.084-11.521-2.133a36.635,36.635,0,0,1-9.194-7.407c-1.033-1.1-1.839-2.02-2.386-2.662a5.7,5.7,0,0,1-.8-1.04,5.82,5.82,0,0,1,.969.886l2.514,2.529a40.227,40.227,0,0,0,9.172,7.181c4,2.163,8.265,2.825,11.165,2.243a7.78,7.78,0,0,0,3.2-1.332C375.931,300.355,376.216,299.979,376.258,300.013Z" transform="translate(-348.252 -289.349)" fill="#263238"/>
          </g>
        </g>
        <g id="Group_84" data-name="Group 84" transform="translate(79.346 65.324)">
          <path id="Path_69" data-name="Path 69" d="M343.079,239.649l1.111-22.98s-7.9-6.613-5.312-36.319l-3.8-1.076s-2.343,37.391-21.309,35.75-12.3-35.24-12.3-35.24a9.206,9.206,0,0,0-5.631,2.326c-.145.07-.838,12.271-1.213,22.629a23.078,23.078,0,0,0-3.006,12.06,14.846,14.846,0,0,0,3.521,8.729c.511,7.027,1.016,16.366,1.016,16.366l-7.383,19.121,1.775,6.746,54.186-.607,1.6-7.213Z" transform="translate(-288.77 -179.273)" fill="#455a64"/>
          <g id="Group_62" data-name="Group 62" transform="translate(43.545 34.577)">
            <path id="Path_70" data-name="Path 70" d="M330.444,210.309c.136.085-.329,1.088-1.039,2.242s-1.4,2.021-1.533,1.937.329-1.086,1.039-2.241S330.308,210.225,330.444,210.309Z" transform="translate(-327.849 -210.303)" fill="#fff"/>
          </g>
          <g id="Group_63" data-name="Group 63" transform="translate(44.165 49.601)">
            <path id="Path_71" data-name="Path 71" d="M332.652,228.1c-.115.113-1.156-.76-2.326-1.948a8.092,8.092,0,0,1-1.911-2.356c.114-.113,1.154.76,2.326,1.949A8.125,8.125,0,0,1,332.652,228.1Z" transform="translate(-328.405 -223.786)" fill="#fff"/>
          </g>
          <g id="Group_64" data-name="Group 64" transform="translate(11.551 39.382)">
            <path id="Path_72" data-name="Path 72" d="M304.69,214.632a18.941,18.941,0,0,1-5.549,3.587,18.977,18.977,0,0,1,5.549-3.587Z" transform="translate(-299.136 -214.615)" fill="#fff"/>
          </g>
          <g id="Group_65" data-name="Group 65" transform="translate(3.905 35.329)">
            <path id="Path_73" data-name="Path 73" d="M296.933,213.68a6.485,6.485,0,0,1-2.472-1.089c-1.286-.74-2.262-1.452-2.183-1.59a6.452,6.452,0,0,1,2.473,1.088C296.036,212.829,297.013,213.541,296.933,213.68Z" transform="translate(-292.274 -210.978)" fill="#fff"/>
          </g>
          <g id="Group_66" data-name="Group 66" transform="translate(8.302 14.821)">
            <path id="Path_74" data-name="Path 74" d="M296.675,192.574a16.415,16.415,0,0,1-.27,6.138,16.416,16.416,0,0,1,.27-6.138Z" transform="translate(-296.22 -192.574)" fill="#fff"/>
          </g>
          <g id="Group_67" data-name="Group 67" transform="translate(46.273 18.859)">
            <path id="Path_75" data-name="Path 75" d="M332.131,196.2c.143.072-.144.935-.64,1.928s-1.015,1.739-1.159,1.668.144-.935.64-1.928S331.988,196.131,332.131,196.2Z" transform="translate(-330.296 -196.198)" fill="#fff"/>
          </g>
          <g id="Group_68" data-name="Group 68" transform="translate(27.421 44.193)">
            <path id="Path_76" data-name="Path 76" d="M314.263,223.869a10.917,10.917,0,0,1-.791-4.936,10.918,10.918,0,0,1,.791,4.936Z" transform="translate(-313.379 -218.933)" fill="#fff"/>
          </g>
          <g id="Group_69" data-name="Group 69" transform="translate(38.064 33.94)">
            <path id="Path_77" data-name="Path 77" d="M325.483,209.787c.068.145-.447.53-1.15.861s-1.329.481-1.4.337.447-.53,1.15-.861S325.414,209.642,325.483,209.787Z" transform="translate(-322.93 -209.732)" fill="#fff"/>
          </g>
          <g id="Group_70" data-name="Group 70" transform="translate(51.226 42.556)">
            <path id="Path_78" data-name="Path 78" d="M337.45,217.544c.049.153-.517.47-1.264.711s-1.393.311-1.442.158.517-.471,1.264-.711S337.4,217.392,337.45,217.544Z" transform="translate(-334.741 -217.464)" fill="#fff"/>
          </g>
          <g id="Group_71" data-name="Group 71" transform="translate(11.3 29.841)">
            <path id="Path_79" data-name="Path 79" d="M301.229,209.927c-.138.081-.762-.718-1.4-1.786s-1.034-2-.9-2.083.762.719,1.4,1.787S301.367,209.846,301.229,209.927Z" transform="translate(-298.911 -206.053)" fill="#fff"/>
          </g>
          <g id="Group_72" data-name="Group 72" transform="translate(13.041 48.771)">
            <path id="Path_80" data-name="Path 80" d="M301.834,224.594c-.152.061-.431-.279-.777-.657s-.65-.7-.572-.841.586-.012,1,.454S301.981,224.54,301.834,224.594Z" transform="translate(-300.473 -223.042)" fill="#fff"/>
          </g>
          <g id="Group_73" data-name="Group 73" transform="translate(7.394 72.189)">
            <path id="Path_81" data-name="Path 81" d="M295.476,248.7a5.135,5.135,0,0,1,.252-2.385c.3-1.281.661-2.291.817-2.254a5.135,5.135,0,0,1-.252,2.385C296,247.723,295.632,248.733,295.476,248.7Z" transform="translate(-295.406 -244.057)" fill="#fff"/>
          </g>
          <g id="Group_74" data-name="Group 74" transform="translate(15.707 73.559)">
            <path id="Path_82" data-name="Path 82" d="M306.26,248.964c-.118.109-.971-.624-1.9-1.636s-1.6-1.922-1.478-2.031.971.624,1.9,1.638S306.377,248.856,306.26,248.964Z" transform="translate(-302.866 -245.287)" fill="#fff"/>
          </g>
          <g id="Group_75" data-name="Group 75" transform="translate(9.777 81.971)">
            <path id="Path_83" data-name="Path 83" d="M301.562,254.313c-.053.152-1-.046-2.1-.439s-1.966-.836-1.911-.987,1,.046,2.1.44S301.617,254.162,301.562,254.313Z" transform="translate(-297.544 -252.836)" fill="#fff"/>
          </g>
          <g id="Group_76" data-name="Group 76" transform="translate(26.827 75.518)">
            <path id="Path_84" data-name="Path 84" d="M315.013,247.048a5.4,5.4,0,0,1-.807,2.328c-.591,1.216-1.186,2.145-1.329,2.075a5.4,5.4,0,0,1,.808-2.328C314.275,247.908,314.87,246.978,315.013,247.048Z" transform="translate(-312.845 -247.045)" fill="#fff"/>
          </g>
          <g id="Group_77" data-name="Group 77" transform="translate(36.568 78.476)">
            <path id="Path_85" data-name="Path 85" d="M327.073,249.7a6.676,6.676,0,0,1-5.485,3.8c-.042-.167,1.42-.588,2.919-1.641C326.021,250.827,326.93,249.607,327.073,249.7Z" transform="translate(-321.587 -249.699)" fill="#fff"/>
          </g>
          <g id="Group_78" data-name="Group 78" transform="translate(46.303 77.083)">
            <path id="Path_86" data-name="Path 86" d="M336.73,253.482a28.71,28.71,0,0,1-6.4-5.022,28.717,28.717,0,0,1,6.4,5.022Z" transform="translate(-330.323 -248.45)" fill="#fff"/>
          </g>
          <g id="Group_79" data-name="Group 79" transform="translate(30.386 63.754)">
            <path id="Path_87" data-name="Path 87" d="M321.641,236.5a23.209,23.209,0,0,1-5.595,4.709,23.208,23.208,0,0,1,5.595-4.709Z" transform="translate(-316.039 -236.488)" fill="#fff"/>
          </g>
          <g id="Group_80" data-name="Group 80" transform="translate(15.352 59.565)">
            <path id="Path_88" data-name="Path 88" d="M307.014,237.473a18.371,18.371,0,0,1-4.457-4.736,18.369,18.369,0,0,1,4.457,4.736Z" transform="translate(-302.547 -232.728)" fill="#fff"/>
          </g>
          <g id="Group_81" data-name="Group 81" transform="translate(29.305 56.506)">
            <path id="Path_89" data-name="Path 89" d="M320.917,230.028a16.1,16.1,0,0,1-5.847,1.685,16.118,16.118,0,0,1,5.847-1.685Z" transform="translate(-315.069 -229.983)" fill="#fff"/>
          </g>
          <g id="Group_82" data-name="Group 82" transform="translate(46.517 60.975)">
            <path id="Path_90" data-name="Path 90" d="M333.332,239.565A16.856,16.856,0,0,1,330.539,234a16.853,16.853,0,0,1,2.792,5.568Z" transform="translate(-330.515 -233.993)" fill="#fff"/>
          </g>
          <g id="Group_83" data-name="Group 83" transform="translate(8.799 60.686)">
            <path id="Path_91" data-name="Path 91" d="M297.348,233.734a15.033,15.033,0,0,1-.559,5.849,15.026,15.026,0,0,1,.559-5.849Z" transform="translate(-296.666 -233.734)" fill="#fff"/>
          </g>
        </g>
        <g id="Group_91" data-name="Group 91" transform="translate(75.742)">
          <path id="Path_92" data-name="Path 92" d="M300.355,163.435a20.332,20.332,0,0,1-8.237-.431,9.45,9.45,0,0,1-6.126-5.2c-1.027-2.573-.306-5.891,2.018-7.4,1.1-.714,2.575-1.11,3.087-2.32.572-1.349-.412-2.794-1.054-4.112A9.186,9.186,0,0,1,302.9,132.006a12.4,12.4,0,0,1,24.676-.429c.213,1.776.067,3.685.968,5.229,1.027,1.761,3.13,2.563,4.553,4.022,2.776,2.846,2.4,7.5,1.134,11.263s-3.266,7.448-3.148,11.422" transform="translate(-285.535 -120.65)" fill="#263238"/>
          <path id="Path_93" data-name="Path 93" d="M309.386,184.095c-.269-3.936-.564-7.516-.564-7.516s-8.182-.666-8.874-8.747-.649-26.76-.649-26.76l14.69-7.627,14.825,12.011.269,37.9a9.859,9.859,0,0,1-9.15,9.9h0A9.861,9.861,0,0,1,309.386,184.095Z" transform="translate(-283.962 -119.187)" fill="#e5baab"/>
          <g id="Group_86" data-name="Group 86" transform="translate(16.241 33.037)">
            <path id="Path_94" data-name="Path 94" d="M301.052,152.572a1.037,1.037,0,1,0,1.012-1.061A1.038,1.038,0,0,0,301.052,152.572Z" transform="translate(-300.003 -150.16)" fill="#263238"/>
            <g id="Group_85" data-name="Group 85">
              <path id="Path_95" data-name="Path 95" d="M300.13,151.606c.137.13.886-.538,2-.625,1.112-.1,1.965.429,2.077.277.056-.068-.089-.312-.462-.554a2.749,2.749,0,0,0-3.254.277C300.165,151.284,300.063,151.548,300.13,151.606Z" transform="translate(-300.111 -150.298)" fill="#263238"/>
            </g>
          </g>
          <g id="Group_88" data-name="Group 88" transform="translate(28.605 32.738)">
            <path id="Path_96" data-name="Path 96" d="M311.826,152.311a1.036,1.036,0,1,0,1.011-1.061A1.037,1.037,0,0,0,311.826,152.311Z" transform="translate(-311.135 -149.89)" fill="#263238"/>
            <g id="Group_87" data-name="Group 87">
              <path id="Path_97" data-name="Path 97" d="M311.225,151.337c.137.13.887-.538,2-.625,1.113-.1,1.965.429,2.077.277.056-.068-.089-.312-.461-.554a2.754,2.754,0,0,0-3.254.277C311.261,151.015,311.159,151.279,311.225,151.337Z" transform="translate(-311.206 -150.03)" fill="#263238"/>
            </g>
          </g>
          <g id="Group_89" data-name="Group 89" transform="translate(21.939 33.83)">
            <path id="Path_98" data-name="Path 98" d="M308.115,160.743a7.069,7.069,0,0,1-1.835.145,1.916,1.916,0,0,1-.488-.031.708.708,0,0,1-.493-.4,1.807,1.807,0,0,1,.08-1.178l.673-2.341a40.778,40.778,0,0,1,2.008-5.931,40.946,40.946,0,0,1-1.547,6.068l-.709,2.33a1.576,1.576,0,0,0-.138.895c.059.2.331.236.617.244A6.993,6.993,0,0,1,308.115,160.743Z" transform="translate(-305.224 -151.01)" fill="#263238"/>
          </g>
          <path id="Path_99" data-name="Path 99" d="M311.842,160.563c.077-.094-3.218,1.987-5.494,2.041a3.087,3.087,0,0,0,3.723.959C312.427,162.5,311.842,160.563,311.842,160.563Z" transform="translate(-283.156 -116.088)" fill="#fff"/>
          <path id="Path_100" data-name="Path 100" d="M307.845,172.552a20.215,20.215,0,0,0,10.636-3.881s-2.287,6-10.411,5.862Z" transform="translate(-282.985 -115.161)" fill="#d78776"/>
          <path id="Path_101" data-name="Path 101" d="M296.02,143.781c2.542,2.366,6.525,2.7,9.782,1.491a18.77,18.77,0,0,0,8-6.458,11.858,11.858,0,0,0,10.889,3.081c.584,7.374,1.86,11.866,4.622,19.257,0,0-.642,3.223.339,2.776.947-5.106,1.843-10.538,2.791-15.644.344-1.852.675-3.832-.066-5.565-.792-1.853-2.624-3-4.251-4.188-2.022-1.481-3.868-3.195-5.924-4.629a14.106,14.106,0,0,0-6.886-2.781c-2.544-.185-5.038.656-7.45,1.485-2.746.944-5.557,1.924-7.792,3.776s-3.809,4.79-3.225,7.634" transform="translate(-284.337 -119.456)" fill="#263238"/>
          <path id="Path_102" data-name="Path 102" d="M325.786,151.2a7.794,7.794,0,0,1,2.592-.691,2.64,2.64,0,0,1,2.337,1.083,2.561,2.561,0,0,1,.233,1.94,3.633,3.633,0,0,1-5.1,2.425" transform="translate(-280.935 -117.237)" fill="#e5baab"/>
          <g id="Group_90" data-name="Group 90" transform="translate(32.08 31.991)">
            <path id="Path_103" data-name="Path 103" d="M315.562,149.359c.134-.018.22.556-.227,1.022s-1.021.411-1.01.277c-.01-.136.357-.276.661-.61S315.426,149.356,315.562,149.359Z" transform="translate(-314.325 -149.359)" fill="#263238"/>
          </g>
        </g>
        <path id="Path_104" data-name="Path 104" d="M292.377,265.256,278.361,476.662c-1.034.193-14.187,2.685-13.837,4.6.365,1.992,33.688.8,33.688.8l19.6-183.665,30.525-36.025Z" transform="translate(-212.196 -104.45)" fill="#e5baab"/>
        <g id="Group_99" data-name="Group 99" transform="translate(51.417 359.462)">
          <g id="Group_92" data-name="Group 92" transform="translate(0 15.814)">
            <path id="Path_105" data-name="Path 105" d="M297.944,458.165c0,.321-7.67.519-17.123.442s-17.118-.4-17.115-.719,7.668-.518,17.125-.441S297.947,457.846,297.944,458.165Z" transform="translate(-263.706 -457.431)" fill="#263238"/>
          </g>
          <g id="Group_93" data-name="Group 93" transform="translate(7.793 12.276)">
            <path id="Path_106" data-name="Path 106" d="M274.092,458.889c-.169.029-.438-1.269-1.384-2.532-.924-1.279-2.083-1.923-2-2.076a4.722,4.722,0,0,1,3.389,4.608Z" transform="translate(-270.7 -454.256)" fill="#263238"/>
          </g>
          <g id="Group_94" data-name="Group 94" transform="translate(18.588 10.729)">
            <path id="Path_107" data-name="Path 107" d="M296.7,453.177c0,.2-4-.313-8.608,1.2-4.627,1.452-7.59,4.2-7.7,4.035a7.81,7.81,0,0,1,1.921-1.751,19.923,19.923,0,0,1,11.806-3.79A7.758,7.758,0,0,1,296.7,453.177Z" transform="translate(-280.387 -452.868)" fill="#263238"/>
          </g>
          <g id="Group_95" data-name="Group 95" transform="translate(14.379 8.052)">
            <path id="Path_108" data-name="Path 108" d="M297.21,451.14a91.534,91.534,0,0,1-10.307.014,91.544,91.544,0,0,1-10.293-.565,92.177,92.177,0,0,1,10.308-.014A91.581,91.581,0,0,1,297.21,451.14Z" transform="translate(-276.61 -450.466)" fill="#263238"/>
          </g>
          <g id="Group_96" data-name="Group 96" transform="translate(14.379 4.944)">
            <path id="Path_109" data-name="Path 109" d="M297.423,447.8a93.571,93.571,0,0,1-10.4.56,93.476,93.476,0,0,1-10.414-.02,93.531,93.531,0,0,1,10.4-.56A93.46,93.46,0,0,1,297.423,447.8Z" transform="translate(-276.61 -447.677)" fill="#263238"/>
          </g>
          <path id="Path_110" data-name="Path 110" d="M264.017,457.9a1.322,1.322,0,0,0,.691,1.724,3.03,3.03,0,0,0,2.044.047,8.128,8.128,0,0,1,2.039-.4c1.44.017,2.751,1.108,4.18.933.86-.106,1.612-.663,2.469-.793,1.5-.229,2.918.886,4.439.881,1.539,0,2.932-1.148,4.466-1.032,1.4.106,2.575,1.241,3.976,1.263,1.09.016,2.092-.652,3.18-.7,1.491-.062,2.9,1.045,4.368.76a1.986,1.986,0,0,0,1.407-1.014,1.483,1.483,0,0,0-.228-1.667" transform="translate(-263.685 -441.564)" fill="#263238"/>
          <g id="Group_97" data-name="Group 97" transform="translate(27.257)">
            <path id="Path_111" data-name="Path 111" d="M290.748,448.711c-.035.053-.675-.232-1.456-1.056a4.344,4.344,0,0,1-.99-1.742,3.553,3.553,0,0,1-.126-1.211,1.721,1.721,0,0,1,.583-1.292.888.888,0,0,1,.858-.106,1.462,1.462,0,0,1,.579.453,4.086,4.086,0,0,1,.585,1.063,4.338,4.338,0,0,1,.24,1.989c-.15,1.149-.647,1.707-.692,1.667-.089-.042.251-.65.282-1.7a4.364,4.364,0,0,0-.328-1.765,3.883,3.883,0,0,0-.525-.9c-.226-.271-.481-.386-.661-.24a1.239,1.239,0,0,0-.355.869,3.223,3.223,0,0,0,.078,1.03,4.41,4.41,0,0,0,.787,1.614C290.253,448.225,290.807,448.637,290.748,448.711Z" transform="translate(-288.167 -443.239)" fill="#263238"/>
          </g>
          <g id="Group_98" data-name="Group 98" transform="translate(29.438 1.972)">
            <path id="Path_112" data-name="Path 112" d="M290.493,447.827c-.064,0-.125-.578.332-1.355a3.214,3.214,0,0,1,1.114-1.09,3.064,3.064,0,0,1,.881-.347.924.924,0,0,1,.645.072.668.668,0,0,1,.28.7,2.943,2.943,0,0,1-2.231,2.493c-.889.185-1.416-.08-1.39-.139.012-.092.538,0,1.276-.255a2.7,2.7,0,0,0,1.77-2.171c.007-.15.009-.142,0-.134a.443.443,0,0,0-.245-.01,2.777,2.777,0,0,0-.729.256,3.207,3.207,0,0,0-1.035.856C290.679,447.326,290.585,447.846,290.493,447.827Z" transform="translate(-290.124 -445.009)" fill="#263238"/>
          </g>
        </g>
        <g id="Group_108" data-name="Group 108" transform="translate(108.31 161.574)">
          <path id="Path_113" data-name="Path 113" d="M358.141,468.747l-.293.069-9.163-73.948L340.028,265.65,314.8,289.533c-.624,1.169,7.926,104.222,9.741,111.431,1.706,6.77,12.4,65.393,13.69,72.484-1.509.756-12.778,6.471-11.941,8.166.9,1.815,32.616-8.465,32.616-8.465Z" transform="translate(-314.763 -265.65)" fill="#e5baab"/>
          <g id="Group_107" data-name="Group 107" transform="translate(11.278 193.256)">
            <g id="Group_100" data-name="Group 100" transform="translate(0 14.307)">
              <path id="Path_114" data-name="Path 114" d="M357.887,451.957c.086.309-7.234,2.6-16.346,5.12s-16.572,4.311-16.657,4,7.232-2.6,16.347-5.121S357.8,451.648,357.887,451.957Z" transform="translate(-324.884 -451.922)" fill="#263238"/>
            </g>
            <g id="Group_101" data-name="Group 101" transform="translate(6.41 17.447)">
              <path id="Path_115" data-name="Path 115" d="M335.159,458.3c-.154.075-.77-1.1-2.025-2.055-1.239-.977-2.531-1.278-2.5-1.446a4.716,4.716,0,0,1,4.522,3.5Z" transform="translate(-330.636 -454.74)" fill="#263238"/>
            </g>
            <g id="Group_102" data-name="Group 102" transform="translate(17.874 8.84)">
              <path id="Path_116" data-name="Path 116" d="M355.177,447.037c.058.187-3.936.8-7.949,3.513-4.052,2.664-6.148,6.118-6.3,5.992a7.761,7.761,0,0,1,1.367-2.21,19.917,19.917,0,0,1,10.315-6.882A7.745,7.745,0,0,1,355.177,447.037Z" transform="translate(-340.925 -447.015)" fill="#263238"/>
            </g>
            <g id="Group_103" data-name="Group 103" transform="translate(11.609 6.601)">
              <path id="Path_117" data-name="Path 117" d="M355.263,445.022a91.561,91.561,0,0,1-9.907,2.841,91.782,91.782,0,0,1-10.053,2.279,91.773,91.773,0,0,1,9.908-2.841A92,92,0,0,1,355.263,445.022Z" transform="translate(-335.303 -445.006)" fill="#263238"/>
            </g>
            <g id="Group_104" data-name="Group 104" transform="translate(10.906 3.03)">
              <path id="Path_118" data-name="Path 118" d="M354.538,441.814a93.735,93.735,0,0,1-9.846,3.39,93.866,93.866,0,0,1-10.02,2.837,93.158,93.158,0,0,1,9.846-3.391A93.583,93.583,0,0,1,354.538,441.814Z" transform="translate(-334.672 -441.802)" fill="#263238"/>
            </g>
            <path id="Path_119" data-name="Path 119" d="M325.19,461.041a1.322,1.322,0,0,0,1.138,1.469,3.034,3.034,0,0,0,1.978-.515,8.206,8.206,0,0,1,1.85-.948c1.39-.378,2.95.312,4.276-.248.8-.338,1.368-1.08,2.157-1.44,1.384-.632,3.049.051,4.511-.37,1.479-.426,2.5-1.908,4.013-2.216,1.372-.281,2.817.487,4.169.124,1.053-.284,1.833-1.2,2.868-1.543,1.416-.468,3.079.21,4.408-.466a1.987,1.987,0,0,0,1.075-1.362,1.482,1.482,0,0,0-.676-1.541" transform="translate(-324.853 -437.608)" fill="#263238"/>
            <g id="Group_105" data-name="Group 105" transform="translate(22.102)">
              <path id="Path_120" data-name="Path 120" d="M348.35,443.978a3.168,3.168,0,0,1-1.69-.615,4.361,4.361,0,0,1-1.429-1.4,3.571,3.571,0,0,1-.454-1.131,1.722,1.722,0,0,1,.206-1.4.892.892,0,0,1,.8-.338,1.47,1.47,0,0,1,.681.277,4.089,4.089,0,0,1,.855.864,4.315,4.315,0,0,1,.776,1.846,2.462,2.462,0,0,1-.208,1.793c-.1-.017.062-.693-.193-1.708a4.378,4.378,0,0,0-.8-1.607,3.829,3.829,0,0,0-.75-.719c-.293-.2-.569-.238-.7-.049a1.244,1.244,0,0,0-.1.933,3.218,3.218,0,0,0,.357.968,4.41,4.41,0,0,0,1.2,1.337C347.742,443.647,348.387,443.891,348.35,443.978Z" transform="translate(-344.719 -439.082)" fill="#263238"/>
            </g>
            <g id="Group_106" data-name="Group 106" transform="translate(25.255 0.8)">
              <path id="Path_121" data-name="Path 121" d="M347.811,443.25c-.06.02-.28-.521-.052-1.394a3.193,3.193,0,0,1,.772-1.354,3.056,3.056,0,0,1,.752-.575.922.922,0,0,1,.642-.107.665.665,0,0,1,.46.6,2.94,2.94,0,0,1-1.462,3.009c-.8.421-1.383.311-1.374.246-.013-.091.518-.144,1.157-.6a2.7,2.7,0,0,0,1.106-2.573c-.035-.146-.03-.137-.036-.128a.439.439,0,0,0-.238.058,2.755,2.755,0,0,0-.631.447,3.216,3.216,0,0,0-.76,1.105C347.852,442.716,347.9,443.242,347.811,443.25Z" transform="translate(-347.549 -439.8)" fill="#263238"/>
            </g>
          </g>
        </g>
        <g id="Group_130" data-name="Group 130" transform="translate(63.589 149.128)">
          <path id="Path_122" data-name="Path 122" d="M346.348,254.481l-54.186.607L274.973,328.12S270.748,346,291.891,346.81s31.089-8.387,48.731-1.581c11.456,4.419,28.053-3.823,27.237-5.7C358.081,316.984,358.307,284.641,346.348,254.481Z" transform="translate(-274.629 -254.481)" fill="#263238"/>
          <g id="Group_109" data-name="Group 109" transform="translate(67.824 1.503)">
            <path id="Path_123" data-name="Path 123" d="M355.918,344.453a5.876,5.876,0,0,1-.223-.909c-.115-.6-.332-1.475-.63-2.6a67.244,67.244,0,0,0-3.445-9.193,121.253,121.253,0,0,1-5.544-13.537,75.379,75.379,0,0,1-2.809-17.687c-.372-6.348-.386-12.4-.759-17.873a81.412,81.412,0,0,0-2.061-14.4,46.28,46.28,0,0,0-3.283-9.23c-.508-1.043-.932-1.837-1.24-2.366a5.678,5.678,0,0,1-.427-.832,5.411,5.411,0,0,1,.527.772,26.228,26.228,0,0,1,1.342,2.324,43.337,43.337,0,0,1,3.479,9.23,78.768,78.768,0,0,1,2.2,14.465c.4,5.5.432,11.55.8,17.875a76.571,76.571,0,0,0,2.741,17.569A128.387,128.387,0,0,0,352,331.591a61.051,61.051,0,0,1,3.287,9.3c.266,1.137.449,2.022.526,2.632A5.568,5.568,0,0,1,355.918,344.453Z" transform="translate(-335.496 -255.83)" fill="#455a64"/>
          </g>
          <g id="Group_110" data-name="Group 110" transform="translate(33.466 0.313)">
            <path id="Path_124" data-name="Path 124" d="M308.889,284.541c.007.013-.086.088-.293.171a1.921,1.921,0,0,1-.973.1,3.33,3.33,0,0,1-2.6-2.307c-.53-1.474-.331-3.282-.309-5.2.059-1.957.123-4.084.189-6.317.15-4.483.32-8.54.471-11.475.082-1.369.153-2.531.21-3.474a5.554,5.554,0,0,1,.155-1.271,5.4,5.4,0,0,1,.07,1.279q-.01,1.419-.024,3.481c-.047,2.938-.151,7-.3,11.479-.084,2.233-.163,4.359-.235,6.316-.057,1.94-.28,3.705.163,5.054a2.807,2.807,0,0,0,3.474,2.168Z" transform="translate(-304.662 -254.762)" fill="#455a64"/>
          </g>
          <g id="Group_111" data-name="Group 111" transform="translate(36.843 2.909)">
            <path id="Path_125" data-name="Path 125" d="M308.421,257.326c-.061-.04.452-.444,1.265-.09a1.628,1.628,0,0,1,.937,1.147,1.484,1.484,0,0,1-.9,1.59,1.435,1.435,0,0,1-1.8-.37,1.452,1.452,0,0,1-.042-1.5,1.211,1.211,0,0,1,.754-.633c.235-.049.36.012.358.041.017.086-.508.12-.739.762a1.075,1.075,0,0,0,.1,1.007.922.922,0,0,0,1.123.162.966.966,0,0,0,.62-.979,1.282,1.282,0,0,0-.6-.869C308.917,257.232,308.444,257.415,308.421,257.326Z" transform="translate(-307.693 -257.092)" fill="#455a64"/>
          </g>
          <g id="Group_112" data-name="Group 112" transform="translate(56.526 1.011)">
            <path id="Path_126" data-name="Path 126" d="M341.822,268.835a3.008,3.008,0,0,1-.965.147,20.49,20.49,0,0,1-2.657.024,16.109,16.109,0,0,1-8.339-2.617,10.555,10.555,0,0,1-4.473-7.425,7.249,7.249,0,0,1,.225-2.672,2.5,2.5,0,0,1,.38-.9,11.63,11.63,0,0,0-.2,3.529,10.6,10.6,0,0,0,4.4,7,16.989,16.989,0,0,0,8.039,2.684C340.435,268.807,341.819,268.737,341.822,268.835Z" transform="translate(-325.356 -255.389)" fill="#263238"/>
          </g>
          <g id="Group_113" data-name="Group 113" transform="translate(13.787 0.106)">
            <path id="Path_127" data-name="Path 127" d="M295.239,254.576a2.426,2.426,0,0,1,.228.812,15.475,15.475,0,0,1,.226,2.28,19.127,19.127,0,0,1-1.3,7.431c-1.078,2.756-2.679,5.066-4.371,6.139a5.039,5.039,0,0,1-2.168.832,1.66,1.66,0,0,1-.849-.041,6.673,6.673,0,0,0,2.783-1.128,13.68,13.68,0,0,0,4.065-6.013,21.413,21.413,0,0,0,1.432-7.22C295.335,255.768,295.139,254.59,295.239,254.576Z" transform="translate(-287.002 -254.576)" fill="#263238"/>
          </g>
          <g id="Group_114" data-name="Group 114" transform="translate(1.051 80.771)">
            <path id="Path_128" data-name="Path 128" d="M365.826,326.969a13.84,13.84,0,0,1-2.846,2.368,22.865,22.865,0,0,1-9.493,3.344,47.215,47.215,0,0,1-14.939-.708c-5.546-.938-11.586-2.479-18.051-2.532s-12.43,1.922-17.868,3.3a64.623,64.623,0,0,1-7.848,1.63,32.907,32.907,0,0,1-6.993.14,19.551,19.551,0,0,1-9.509-3.244,10.964,10.964,0,0,1-1.247-.987,7.7,7.7,0,0,1-.837-.808,5.751,5.751,0,0,1-.622-.729,24.6,24.6,0,0,0,2.834,2.338,19.836,19.836,0,0,0,9.418,3.022,32.982,32.982,0,0,0,6.894-.211,65.6,65.6,0,0,0,7.774-1.669c5.409-1.4,11.407-3.426,18.006-3.367,6.564.057,12.623,1.625,18.142,2.586a47.8,47.8,0,0,0,14.792.827,23.347,23.347,0,0,0,9.426-3.129A35.693,35.693,0,0,0,365.826,326.969Z" transform="translate(-275.572 -326.967)" fill="#263238"/>
          </g>
          <g id="Group_129" data-name="Group 129" transform="translate(69.361 0.388)">
            <g id="Group_115" data-name="Group 115">
              <path id="Path_129" data-name="Path 129" d="M337.834,256.251c-.137.082-.448-.162-.693-.545s-.338-.768-.205-.858.442.154.693.545S337.973,256.168,337.834,256.251Z" transform="translate(-336.875 -254.829)" fill="#455a64"/>
            </g>
            <g id="Group_116" data-name="Group 116" transform="translate(2.569 4.457)">
              <path id="Path_130" data-name="Path 130" d="M340.611,262.011c-.149.056-.578-.6-.956-1.472s-.569-1.634-.426-1.7.572.588.957,1.472S340.761,261.955,340.611,262.011Z" transform="translate(-339.181 -258.829)" fill="#455a64"/>
            </g>
            <g id="Group_117" data-name="Group 117" transform="translate(5.048 10.912)">
              <path id="Path_131" data-name="Path 131" d="M342.384,267.969c-.156.036-.482-.68-.73-1.6s-.323-1.7-.17-1.748.48.667.731,1.6S342.542,267.933,342.384,267.969Z" transform="translate(-341.405 -264.622)" fill="#455a64"/>
            </g>
            <g id="Group_118" data-name="Group 118" transform="translate(6.609 17.651)">
              <path id="Path_132" data-name="Path 132" d="M343.469,274.088c-.158.021-.408-.724-.556-1.664s-.14-1.725.017-1.754.407.715.556,1.663S343.628,274.066,343.469,274.088Z" transform="translate(-342.807 -270.669)" fill="#455a64"/>
            </g>
            <g id="Group_119" data-name="Group 119" transform="translate(7.502 24.509)">
              <path id="Path_133" data-name="Path 133" d="M344.084,280.276c-.16.011-.357-.75-.439-1.7s-.021-1.735.138-1.752.357.745.439,1.7S344.243,280.264,344.084,280.276Z" transform="translate(-343.608 -276.824)" fill="#455a64"/>
            </g>
            <g id="Group_120" data-name="Group 120" transform="translate(7.986 31.417)">
              <path id="Path_134" data-name="Path 134" d="M344.429,286.487c-.16.008-.326-.762-.373-1.717s.04-1.736.2-1.746.33.76.38,1.717S344.588,286.479,344.429,286.487Z" transform="translate(-344.042 -283.024)" fill="#455a64"/>
            </g>
            <g id="Group_121" data-name="Group 121" transform="translate(8.322 38.342)">
              <path id="Path_135" data-name="Path 135" d="M344.74,292.7c-.159.01-.331-.758-.381-1.714s.037-1.738.2-1.745.331.759.382,1.714S344.9,292.688,344.74,292.7Z" transform="translate(-344.344 -289.238)" fill="#455a64"/>
            </g>
            <g id="Group_122" data-name="Group 122" transform="translate(8.783 45.257)">
              <path id="Path_136" data-name="Path 136" d="M345.246,298.894c-.159.018-.36-.743-.448-1.7s-.03-1.739.13-1.752.36.748.448,1.7S345.406,298.876,345.246,298.894Z" transform="translate(-344.757 -295.444)" fill="#455a64"/>
            </g>
            <g id="Group_123" data-name="Group 123" transform="translate(9.585 52.144)">
              <path id="Path_137" data-name="Path 137" d="M346.172,305.04c-.157.031-.415-.711-.574-1.659s-.162-1.734,0-1.756.416.72.574,1.659S346.329,305.009,346.172,305.04Z" transform="translate(-345.477 -301.625)" fill="#455a64"/>
            </g>
            <g id="Group_124" data-name="Group 124" transform="translate(10.959 58.94)">
              <path id="Path_138" data-name="Path 138" d="M347.751,311.052c-.152.051-.492-.657-.76-1.582s-.36-1.706-.2-1.745.5.67.761,1.583S347.9,311,347.751,311.052Z" transform="translate(-346.711 -307.724)" fill="#455a64"/>
            </g>
            <g id="Group_125" data-name="Group 125" transform="translate(13.151 65.515)">
              <path id="Path_139" data-name="Path 139" d="M350.185,316.775c-.139.071-.611-.565-1.02-1.439-.391-.884-.586-1.649-.438-1.709s.581.6.964,1.465C350.094,315.953,350.329,316.7,350.185,316.775Z" transform="translate(-348.678 -313.624)" fill="#455a64"/>
            </g>
            <g id="Group_126" data-name="Group 126" transform="translate(16.257 71.712)">
              <path id="Path_140" data-name="Path 140" d="M353.174,322.227c-.14.076-.63-.542-1.09-1.378s-.721-1.579-.582-1.657.628.539,1.091,1.378S353.316,322.151,353.174,322.227Z" transform="translate(-351.465 -319.185)" fill="#455a64"/>
            </g>
            <g id="Group_127" data-name="Group 127" transform="translate(19.472 77.843)">
              <path id="Path_141" data-name="Path 141" d="M355.678,327.914c-.153.048-.559-.626-.908-1.505s-.513-1.647-.368-1.716.552.605.908,1.505S355.831,327.866,355.678,327.914Z" transform="translate(-354.35 -324.688)" fill="#455a64"/>
            </g>
            <g id="Group_128" data-name="Group 128" transform="translate(21.368 84.45)">
              <path id="Path_142" data-name="Path 142" d="M356.424,332.283c-.16,0-.323-.357-.363-.807s.057-.833.216-.858.321.338.362.807S356.585,332.278,356.424,332.283Z" transform="translate(-356.052 -330.617)" fill="#455a64"/>
            </g>
          </g>
        </g>
        <path id="Path_143" data-name="Path 143" d="M302.129,179.289s30.848,99.35,50.683,114.2l-1.561-8.724c-11.937-20.859-26.24-61.241-42.2-106C307.722,177.733,302.721,178.11,302.129,179.289Z" transform="translate(-207.897 -114.076)" fill="#e8505b"/>
        <path id="Path_144" data-name="Path 144" d="M343.541,213.22,354.22,237c-15.47-.1-32.409-3.66-39.522-5.589-.545-.518-1.141-1.107-1.793-1.794a9.814,9.814,0,0,1-1.812-2.713,15.068,15.068,0,0,1-1.306-3.854c-.114-1.245-1.654-1.732-2.228-.771s-.34,4.4,1.64,7.914-3.835,1.151-5.969.328-8.846-3.063-9.6-2.6c-1.108.676-.575,2.022,1.573,2.8,2.175.783,8.441,3.55,7.981,4.666-.452,1.1-11.261-3.247-11.261-3.247s-2.171-1.306-2.743-.036c-1.036,2.291,10.771,6.057,11.9,6.388.787.228.331,1.461-.5,1.168-.858-.3-10.687-4.588-11.764-2.266-.826,1.782,9.685,3.19,11.262,5.22s-7.883-1.889-8.6-.153c-.267.646-.379,1.169,5.355,2.63a130.809,130.809,0,0,0,14.107,2.106c9.115,2.664,31.507,7.847,47.8,7.329,0,0,23.106.394,19.1-13.58-4.293-14.967-16.6-37.827-16.6-37.827Z" transform="translate(-209.424 -111.224)" fill="#e5baab"/>
        <path id="Path_145" data-name="Path 145" d="M327.125,154.984a.813.813,0,0,0-.922.7.792.792,0,0,0,.791.829.772.772,0,0,0,.685-.909.754.754,0,0,0-1.025-.477" transform="translate(-205.146 -116.726)" fill="#e8505b"/>
      </g>
    </g>
    <g id="Plants" transform="translate(59.55 232.08)">
      <g id="Group_135" data-name="Group 135" transform="translate(345.088 202.198)">
        <path id="Path_146" data-name="Path 146" d="M391.559,396.707a9.973,9.973,0,0,0-6.92,3.619,17.6,17.6,0,0,0-3.477,7.161c-1.3,5.014-.422,10.911,1.047,15.878,5.4-1.982,8.689-7.788,10.174-10.837,2.347-4.82,3.659-14.956-.825-15.821" transform="translate(-362.54 -396.707)" fill="#e8505b"/>
        <path id="Path_147" data-name="Path 147" d="M391.559,396.707a9.973,9.973,0,0,0-6.92,3.619,17.6,17.6,0,0,0-3.477,7.161c-1.3,5.014-.422,10.911,1.047,15.878,5.4-1.982,8.689-7.788,10.174-10.837,2.347-4.82,3.659-14.956-.825-15.821" transform="translate(-362.54 -396.707)" opacity="0.2"/>
        <path id="Path_148" data-name="Path 148" d="M376.315,427.6a8.509,8.509,0,0,0,.324-8.537,11.3,11.3,0,0,0-6.852-5.412,4.757,4.757,0,0,0-4,.226,3.642,3.642,0,0,0-1.372,3.424A7.377,7.377,0,0,0,366,420.785c2.664,3.543,5.892,6.483,10.314,6.812" transform="translate(-364.385 -394.808)" fill="#e8505b"/>
        <g id="Group_132" data-name="Group 132" transform="translate(6.157 24.534)">
          <path id="Path_149" data-name="Path 149" d="M375.638,444.179a3.97,3.97,0,0,0,.266-1.055c.134-.685.308-1.68.485-2.918a36.525,36.525,0,0,0,.253-9.776,18.3,18.3,0,0,0-3.666-9.045,12.034,12.034,0,0,0-2.132-2.086,3.321,3.321,0,0,0-.93-.572,25.367,25.367,0,0,1,2.738,2.908,19.212,19.212,0,0,1,3.415,8.871,42.318,42.318,0,0,1-.086,9.65A32.826,32.826,0,0,0,375.638,444.179Z" transform="translate(-369.91 -418.725)" fill="#263238"/>
        </g>
        <g id="Group_133" data-name="Group 133" transform="translate(11.22 7.63)">
          <path id="Path_150" data-name="Path 150" d="M390.572,403.555a10.7,10.7,0,0,0-.8,1.607c-.48,1.05-1.151,2.578-1.959,4.477-1.616,3.8-3.763,9.079-5.99,14.968s-4.11,11.274-5.408,15.191c-.651,1.958-1.159,3.548-1.493,4.653a10.634,10.634,0,0,0-.464,1.734,10.747,10.747,0,0,0,.679-1.661c.428-1.18.988-2.727,1.666-4.592,1.4-3.879,3.34-9.234,5.563-15.12s4.309-11.183,5.828-15.017c.727-1.846,1.328-3.377,1.787-4.545A10.6,10.6,0,0,0,390.572,403.555Z" transform="translate(-374.454 -403.555)" fill="#263238"/>
        </g>
        <path id="Path_151" data-name="Path 151" d="M380.145,431.439a19.906,19.906,0,0,1,15.982-8.675c1.6-.022,3.511.36,4.141,1.836s-.426,3.126-1.583,4.241a17,17,0,0,1-18.624,3.024" transform="translate(-362.593 -393.729)" fill="#e8505b"/>
        <g id="Group_134" data-name="Group 134" transform="translate(11.467 32.947)">
          <path id="Path_152" data-name="Path 152" d="M393.981,426.3a3.588,3.588,0,0,0-1.042.016,8.374,8.374,0,0,0-1.213.149,13.86,13.86,0,0,0-1.589.33,21,21,0,0,0-3.97,1.446,22.39,22.39,0,0,0-7.984,6.489,21,21,0,0,0-2.227,3.59,14.135,14.135,0,0,0-.647,1.488,8.393,8.393,0,0,0-.394,1.157,3.633,3.633,0,0,0-.228,1.017c.108.036.518-1.392,1.635-3.473a23.4,23.4,0,0,1,2.284-3.448,23.634,23.634,0,0,1,7.8-6.34,23.339,23.339,0,0,1,3.841-1.53C392.513,426.522,393.994,426.413,393.981,426.3Z" transform="translate(-374.676 -426.275)" fill="#263238"/>
        </g>
      </g>
      <g id="Group_143" data-name="Group 143">
        <path id="Path_153" data-name="Path 153" d="M59.527,215.91c15.557-6.88,23.055,42.2,24.067,46.022s3.648,4.282,8.187-1.44,8.443-3.512,8.443-3.512c8.539,5.2-3.042,35.489-2.932,37.954s-1.708,6,7.162.988,16.31-7.684,17.6,0c1.179,7-7.885,27.193-7.787,30.036s9.228-4.37,13.091-6.77c4.985-3.1,10.314-2.887,11.249,3.393,1.216,8.17-15.024,32.058-15.024,32.058l-7.84,12.167-14.25-3.834S73.675,355.1,69.286,348.1c-3.373-5.379.539-9,6.34-9.891,4.5-.69,16.123-1.147,14.348-3.37s-21.79-11.671-25.445-17.756C60.514,310.407,67.9,307.6,77.9,305.64s6.317-3.464,4.8-5.408S52.686,282.8,55.794,273.3c0,0,1.53-4.217,8.7-2.821s8.87-.67,7.156-4.229-27.932-45.725-11.64-50.613" transform="translate(-54.695 -215.25)" fill="#e8505b"/>
        <g id="Group_136" data-name="Group 136" transform="translate(10.986 14.618)">
          <path id="Path_154" data-name="Path 154" d="M122.948,388.092c-.3.11-13.617-35.56-29.737-79.659-16.127-44.115-28.953-79.955-28.651-80.065S78.173,263.919,94.3,308.034,123.249,387.982,122.948,388.092Z" transform="translate(-64.554 -228.368)" fill="#fff"/>
        </g>
        <g id="Group_137" data-name="Group 137" transform="translate(32.317 56.126)">
          <path id="Path_155" data-name="Path 155" d="M83.743,282.571c-.3-.107.9-4.124,3.015-8.823s4.3-8.276,4.581-8.124-1.437,3.929-3.521,8.6S84.047,282.682,83.743,282.571Z" transform="translate(-83.697 -265.619)" fill="#fff"/>
        </g>
        <g id="Group_138" data-name="Group 138" transform="translate(13.176 64.958)">
          <path id="Path_156" data-name="Path 156" d="M66.521,273.6c.071-.3,4.591.6,9.838,2.72,5.254,2.109,9.128,4.6,8.973,4.865-.163.293-4.232-1.713-9.408-3.789C70.759,275.3,66.435,273.924,66.521,273.6Z" transform="translate(-66.52 -273.544)" fill="#fff"/>
        </g>
        <g id="Group_139" data-name="Group 139" transform="translate(44.023 87.189)">
          <path id="Path_157" data-name="Path 157" d="M94.215,311.929c-.244-.208,3.089-4.5,7.442-9.591s8.082-9.044,8.325-8.835-3.088,4.5-7.444,9.591S94.458,312.137,94.215,311.929Z" transform="translate(-94.203 -293.495)" fill="#fff"/>
        </g>
        <g id="Group_140" data-name="Group 140" transform="translate(18.183 100.313)">
          <path id="Path_158" data-name="Path 158" d="M71.013,305.36c.038-.309,6.1.2,13.443,1.644s13.152,3.252,13.071,3.551c-.085.32-5.986-.987-13.294-2.412S70.971,305.688,71.013,305.36Z" transform="translate(-71.013 -305.273)" fill="#fff"/>
        </g>
        <g id="Group_141" data-name="Group 141" transform="translate(26.202 131.49)">
          <path id="Path_159" data-name="Path 159" d="M78.21,333.331c.046-.318,6.395.352,14.179,1.494s14.058,2.327,14.012,2.644-6.395-.352-14.182-1.5S78.163,333.648,78.21,333.331Z" transform="translate(-78.21 -333.252)" fill="#fff"/>
        </g>
        <g id="Group_142" data-name="Group 142" transform="translate(55.083 116.78)">
          <path id="Path_160" data-name="Path 160" d="M104.136,338.45c-.214-.276,4.1-3.735,8.581-8.817,4.511-5.057,7.427-9.756,7.725-9.577.262.13-2.254,5.184-6.856,10.347C109.012,335.589,104.3,338.694,104.136,338.45Z" transform="translate(-104.128 -320.051)" fill="#fff"/>
        </g>
      </g>
    </g>
  </g>
</svg>
