<svg xmlns="http://www.w3.org/2000/svg" width="48.259" height="57.308" viewBox="0 0 48.259 57.308">
  <g id="bus_1_" data-name="bus (1)" transform="translate(-32)">
    <g id="Group_2220" data-name="Group 2220" transform="translate(32)">
      <path id="Path_12212" data-name="Path 12212" d="M56.13,0C42.8,0,32,1.508,32,12.065V42.227a8.982,8.982,0,0,0,3.016,6.7v5.369a3.025,3.025,0,0,0,3.016,3.016h3.016a3.015,3.015,0,0,0,3.016-3.016V51.275h24.13v3.016a3.015,3.015,0,0,0,3.016,3.016h3.016a3.025,3.025,0,0,0,3.016-3.016V48.923a8.982,8.982,0,0,0,3.016-6.7V12.065C80.259,1.508,69.461,0,56.13,0ZM42.557,45.243a4.524,4.524,0,1,1,4.524-4.524A4.518,4.518,0,0,1,42.557,45.243Zm27.146,0a4.524,4.524,0,1,1,4.524-4.524A4.518,4.518,0,0,1,69.7,45.243Zm4.524-18.1H38.032V12.065H74.227Z" transform="translate(-32 0)" fill="#1dc68c"/>
    </g>
  </g>
</svg>
