<svg xmlns="http://www.w3.org/2000/svg" width="252.072" height="287.305" viewBox="0 0 252.072 287.305">
  <g id="girl" transform="translate(0 -30.077)">
    <path id="Path_12136" data-name="Path 12136" d="M313.722,229.071l-3.246,26.253c3.985,7.8,8.206,16.665,12.231,26.228l7.645-39.587.386.353a78.675,78.675,0,0,0-17.409-13.563Z" transform="translate(-229.328 -174.895)" fill="#6c63ff"/>
    <path id="Path_12137" data-name="Path 12137" d="M289.592,247.589l3.145-25.43c-6.681-3.647-13.431-5.639-19.921-5.6-.338,0-.671.014-1,.026C273.115,218.574,280.688,230.32,289.592,247.589Z" transform="translate(-209.146 -168.526)" fill="#6c63ff"/>
    <path id="Path_12138" data-name="Path 12138" d="M392.179,356.346l.35.472q-1.743-5.3-3.842-10.383L368.971,390.6l-.168-.209q.748,3.26,1.379,6.456Z" transform="translate(-259.775 -236.323)" fill="#6c63ff"/>
    <path id="Path_12139" data-name="Path 12139" d="M362.423,280.812l.373.421a123.686,123.686,0,0,0-17.63-23.272L337.374,298.3q5.6,13.471,9.648,26.3Z" transform="translate(-243.37 -190.14)" fill="#6c63ff"/>
    <path id="Path_12140" data-name="Path 12140" d="M206.73,301.443a103.273,103.273,0,0,0,.548,20.808l68.764,19.309c-2.491-7.371-5.172-14.345-7.84-20.741l-61.389-18.795Z" transform="translate(-175.024 -212.838)" fill="#6c63ff"/>
    <path id="Path_12141" data-name="Path 12141" d="M209.511,353.6l-.094-.582,69.77,18.532q-.85-2.733-1.741-5.4l-69.018-19.38-.09-.582Q208.8,349.831,209.511,353.6Z" transform="translate(-176.013 -236.192)" fill="#6c63ff"/>
    <path id="Path_12142" data-name="Path 12142" d="M382.721,325.166l.361.449a147.707,147.707,0,0,0-8.889-17.815l-15.609,44.381q2.652,8.569,4.586,16.786Z" transform="translate(-254.441 -216.156)" fill="#6c63ff"/>
    <path id="Path_12143" data-name="Path 12143" d="M375.342,461.063a120.467,120.467,0,0,1-2.767,34.988c5.42-7.759,26.528-40.133,26.523-73.7Z" transform="translate(-261.744 -275.95)" fill="#6c63ff"/>
    <path id="Path_12144" data-name="Path 12144" d="M229.085,417.935a142.893,142.893,0,0,0,9.746,16.458l-.066-.64L299.556,457.6a177.633,177.633,0,0,0-2.664-21.122Z" transform="translate(-186.843 -273.646)" fill="#6c63ff"/>
    <path id="Path_12145" data-name="Path 12145" d="M263.451,247.968c-9.638-18.681-17.691-30.827-17.807-31l.223-.32c-9.85.515-17.657,5.809-22.951,14.508Z" transform="translate(-183.623 -168.575)" fill="#6c63ff"/>
    <path id="Path_12146" data-name="Path 12146" d="M372.348,410.6c.125.662.255,1.326.372,1.983a176.474,176.474,0,0,1,2.387,19.056l23.53-38.347.332.471a69.969,69.969,0,0,0-2.377-17.5q-.916-3.361-1.984-6.651Z" transform="translate(-261.626 -248.423)" fill="#6c63ff"/>
    <path id="Path_12147" data-name="Path 12147" d="M268.033,291.6c-3.986-9.452-8.16-18.212-12.1-25.919l-41.465-17.2-.052-.57c-3.918,6.629-6.408,15.173-7.273,25.047Z" transform="translate(-175.39 -184.895)" fill="#6c63ff"/>
    <path id="Path_12148" data-name="Path 12148" d="M310.757,477.423l-60.346-23.675c21.653,31.56,54.9,58.636,57.019,60.352A116.6,116.6,0,0,0,310.757,477.423Z" transform="translate(-197.975 -292.34)" fill="#6c63ff"/>
    <path id="Path_12149" data-name="Path 12149" d="M287.211,406.585l.021-.039a239.737,239.737,0,0,0-6.27-25.033l-69.941-18.578q.982,5.1,2.417,10.389a85.9,85.9,0,0,0,5.579,14.61Z" transform="translate(-177.414 -244.937)" fill="#6c63ff"/>
    <path id="Path_12150" data-name="Path 12150" d="M534.922,460.4l-19.245,18.149c-1.905,8.548-4.309,18.069-7.309,28l31.137-25.613.073.518a78.676,78.676,0,0,0-4.757-21.55Z" transform="translate(-332.628 -295.557)" fill="#6c63ff"/>
    <path id="Path_12151" data-name="Path 12151" d="M524.351,457.31l18.642-17.58c-2.82-7.07-6.747-12.91-11.769-17.022-.261-.214-.526-.418-.79-.62C530.167,424.454,528.508,438.331,524.351,457.31Z" transform="translate(-340.971 -275.814)" fill="#6c63ff"/>
    <path id="Path_12152" data-name="Path 12152" d="M506.7,620.334l-.032.587q2.038-5.193,3.664-10.448l-43.357,21.443,0-.269q-1.5,2.988-3.056,5.852Z" transform="translate(-309.429 -374.15)" fill="#6c63ff"/>
    <path id="Path_12153" data-name="Path 12153" d="M527.615,534.755l.019.562a123.687,123.687,0,0,0,1.265-29.169l-31.731,26.1q-4.281,13.945-9.343,26.408Z" transform="translate(-321.904 -319.693)" fill="#6c63ff"/>
    <path id="Path_12154" data-name="Path 12154" d="M419.055,446.116a103.271,103.271,0,0,0-12.849,16.376l40.646,58.731c2.783-7.266,5.166-14.348,7.19-20.975l-35.294-53.631Z" transform="translate(-279.3 -288.357)" fill="#6c63ff"/>
    <path id="Path_12155" data-name="Path 12155" d="M397.539,487.86l.3-.508,41.916,58.773q1.089-2.647,2.106-5.273l-40.8-58.947.3-.505Q399.4,484.506,397.539,487.86Z" transform="translate(-274.775 -306.775)" fill="#6c63ff"/>
    <path id="Path_12156" data-name="Path 12156" d="M514.513,587.31l-.008.576a147.7,147.7,0,0,0,4.516-19.391L478.692,592.72q-3.423,8.291-7.175,15.853Z" transform="translate(-313.392 -352.238)" fill="#6c63ff"/>
    <path id="Path_12157" data-name="Path 12157" d="M409.565,694.871a120.466,120.466,0,0,1-24.447,25.182c9.123-2.518,46.029-13.99,67.436-39.848Z" transform="translate(-268.292 -410.55)" fill="#6c63ff"/>
    <path id="Path_12158" data-name="Path 12158" d="M372.5,549.9a142.892,142.892,0,0,0-2.991,18.892l.358-.535,31.609,57.142a177.657,177.657,0,0,0,11.42-17.967Z" transform="translate(-260.141 -342.529)" fill="#6c63ff"/>
    <path id="Path_12159" data-name="Path 12159" d="M500.532,451.017c4.492-20.535,6.037-35.026,6.059-35.234l.376-.1c-7.915-5.886-17.3-6.788-26.93-3.464Z" transform="translate(-317.839 -269.659)" fill="#6c63ff"/>
    <path id="Path_12160" data-name="Path 12160" d="M449.9,651.125c-.326.59-.65,1.183-.978,1.765a176.479,176.479,0,0,1-10.316,16.2l42.581-14.527-.045.575a69.97,69.97,0,0,0,9.33-14.994q1.438-3.173,2.714-6.388Z" transform="translate(-296.211 -386.303)" fill="#6c63ff"/>
    <path id="Path_12161" data-name="Path 12161" d="M468.891,482.5c2.958-9.822,5.331-19.231,7.212-27.68l-20.965-39.694.323-.472c-7.246,2.606-14.613,7.6-21.576,14.652Z" transform="translate(-293.748 -271.934)" fill="#6c63ff"/>
    <path id="Path_12162" data-name="Path 12162" d="M399.811,647.8l-31.378-56.724c-3.453,38.118,4.881,80.174,5.423,82.85A116.579,116.579,0,0,0,399.811,647.8Z" transform="translate(-259.146 -364.027)" fill="#6c63ff"/>
    <path id="Path_12163" data-name="Path 12163" d="M417.081,578.227l.041-.016a239.741,239.741,0,0,0,11.138-23.279l-42.019-58.918q-2.5,4.556-4.765,9.543a85.9,85.9,0,0,0-5.022,14.81Z" transform="translate(-263.769 -314.403)" fill="#6c63ff"/>
    <path id="Path_12164" data-name="Path 12164" d="M227.006,462.639l5.027,25.971c6.2,6.185,12.955,13.312,19.739,21.163l-4.965-40.011.476.216a78.673,78.673,0,0,0-20.749-7.518Z" transform="translate(-185.512 -296.888)" fill="#6c63ff"/>
    <path id="Path_12165" data-name="Path 12165" d="M206.826,486.44l-4.869-25.157c-7.481-1.4-14.516-1.212-20.677.828-.321.106-.634.22-.947.335C182.188,463.938,193.02,472.768,206.826,486.44Z" transform="translate(-161.394 -295.801)" fill="#6c63ff"/>
    <path id="Path_12166" data-name="Path 12166" d="M352.835,553.681l.479.341q-3.3-4.5-6.863-8.687l-5.1,48.1-.225-.147q1.719,2.869,3.307,5.714Z" transform="translate(-245.329 -340.148)" fill="#6c63ff"/>
    <path id="Path_12167" data-name="Path 12167" d="M294.442,495.126l.484.285a123.686,123.686,0,0,0-23.96-16.683l5.059,40.773q9.487,11.081,17.3,22.029Z" transform="translate(-208.705 -305.38)" fill="#6c63ff"/>
    <path id="Path_12168" data-name="Path 12168" d="M144.958,564.776a103.273,103.273,0,0,0,6.953,19.619l71.365-2.891c-4.648-6.24-9.353-12.044-13.867-17.3l-64.193,1.1Z" transform="translate(-142.929 -349.997)" fill="#6c63ff"/>
    <path id="Path_12169" data-name="Path 12169" d="M163.425,611.65l-.269-.525,72.082-3.941q-1.653-2.337-3.326-4.6l-71.628,2.9-.265-.526Q161.587,608.284,163.425,611.65Z" transform="translate(-150.79 -370.031)" fill="#6c63ff"/>
    <path id="Path_12170" data-name="Path 12170" d="M334.345,528.4l.482.315a147.7,147.7,0,0,0-13.961-14.2l-1.127,47.032q5.171,7.33,9.55,14.547Z" transform="translate(-234.164 -324.061)" fill="#6c63ff"/>
    <path id="Path_12171" data-name="Path 12171" d="M370.294,656.235a120.463,120.463,0,0,1,8.183,34.13c2.757-9.054,12.824-46.367,2.443-78.291Z" transform="translate(-260.554 -374.986)" fill="#6c63ff"/>
    <path id="Path_12172" data-name="Path 12172" d="M201.927,665.751a142.865,142.865,0,0,0,14.356,12.64l-.26-.588,65.186,3.891a177.644,177.644,0,0,0-9.062-19.265Z" transform="translate(-172.667 -401.271)" fill="#6c63ff"/>
    <path id="Path_12173" data-name="Path 12173" d="M186.971,489.365c-14.94-14.787-26.353-23.85-26.517-23.979l.113-.373c-9.209,3.535-15,10.982-17.342,20.891Z" transform="translate(-142.024 -298.221)" fill="#6c63ff"/>
    <path id="Path_12174" data-name="Path 12174" d="M349.742,610.607c.324.591.652,1.182.967,1.771a176.5,176.5,0,0,1,8.16,17.385l10.525-43.743.461.346a69.972,69.972,0,0,0-7.67-15.907q-1.91-2.913-3.943-5.712Z" transform="translate(-249.826 -350.281)" fill="#6c63ff"/>
    <path id="Path_12175" data-name="Path 12175" d="M206.29,534.738c-6.713-7.757-13.39-14.8-19.519-20.91l-44.751-3.541-.226-.526c-1.678,7.515-1.4,16.411.826,26.068Z" transform="translate(-140.713 -321.579)" fill="#6c63ff"/>
    <path id="Path_12176" data-name="Path 12176" d="M297.986,700.709l-64.709-3.863c30.348,23.322,70.332,38.8,72.882,39.772A116.573,116.573,0,0,0,297.986,700.709Z" transform="translate(-189.031 -419.237)" fill="#6c63ff"/>
    <path id="Path_12177" data-name="Path 12177" d="M253.7,636.3l.008-.043a239.739,239.739,0,0,0-13.7-21.869l-72.259,3.951q2.511,4.549,5.51,9.133a85.907,85.907,0,0,0,9.821,12.17Z" transform="translate(-154.825 -376.196)" fill="#6c63ff"/>
    <path id="Path_12179" data-name="Path 12179" d="M396.343,712.007a31.9,31.9,0,0,0,.4,3.206s8.72,5.93,9.418-.7c.453-4.318-.572-6.268-1.346-7.1l-.012-.013a2.686,2.686,0,0,1-.734-1.819v-7.809l-7.673,2.442.349,6.628A13.516,13.516,0,0,0,396.343,712.007Z" transform="translate(-274.116 -419.72)" fill="#ffb9b9"/>
    <path id="Path_12180" data-name="Path 12180" d="M396.417,722.077a31.907,31.907,0,0,0,.4,3.206s8.72,5.93,9.418-.7c.453-4.318-.572-6.268-1.346-7.1a2.084,2.084,0,0,0-2.142-.223c-1.4-.621-2.93.415-4.2,1.755A12.332,12.332,0,0,0,396.417,722.077Z" transform="translate(-274.19 -429.789)" opacity="0.05"/>
    <path id="Path_12181" data-name="Path 12181" d="M400.106,718.719s3.837-2.093,4.535,7.325,1.046,8.372,1.046,8.372,3.488,8.372-3.837,7.325-10.813-1.744-10.464-5.93c.21-2.523.8-6.186,1.237-8.7a12.79,12.79,0,0,1,3.283-6.64C397.178,719.132,398.711,718.1,400.106,718.719Z" transform="translate(-271.551 -430.551)" fill="#2f2e41"/>
    <path id="Path_12182" data-name="Path 12182" d="M493.168,722.165l4,1.929s12.493,1.918,8.531-5.2a28.864,28.864,0,0,1-2.606-6.731,44.831,44.831,0,0,1-1.383-9.98l-10.569,1.474c3.447,4.59,3.01,12.036,2.477,15.935C493.4,721.167,493.168,722.165,493.168,722.165Z" transform="translate(-323.634 -422.024)" fill="#ffb9b9"/>
    <path id="Path_12183" data-name="Path 12183" d="M495.384,733.063l4,1.929s12.493,1.918,8.531-5.2a28.864,28.864,0,0,1-2.606-6.731c-2.427.467-4.273,3.961-4.273,3.961-1.957,6.795-3.718,5.1-5.2,3.469C495.616,732.066,495.384,733.063,495.384,733.063Z" transform="translate(-325.85 -432.923)" opacity="0.05"/>
    <path id="Path_12184" data-name="Path 12184" d="M499.5,728.343s3.115-5.891,6.57-3.4,1.741,6.042,12.932,9.523,3.8,10.867-3.052,10.3-21.447-3.224-21.447-3.224-3.8-10.867-2.034-11.113S496.661,738.2,499.5,728.343Z" transform="translate(-324.085 -433.582)" fill="#2f2e41"/>
    <path id="Path_12185" data-name="Path 12185" d="M517.739,758.1c4.446.366,9.12-2.619,8.792-5.71,2.125,3.491-3.253,7.446-8.332,7.027-6.848-.564-21.447-3.224-21.447-3.224s-.179-.512-.44-1.314C496.737,754.952,510.994,757.539,517.739,758.1Z" transform="translate(-326.334 -448.228)" fill="#fff" opacity="0.3"/>
    <path id="Path_12186" data-name="Path 12186" d="M391.4,754.272c.4,3.138,3.883,3.8,10.446,4.735,3.338.477,4.427-1,4.628-2.754.218,2.243-.419,4.751-4.628,4.149-7.325-1.046-10.813-1.744-10.464-5.93C391.391,754.407,391.4,754.338,391.4,754.272Z" transform="translate(-271.551 -449.213)" fill="#fff" opacity="0.3"/>
    <path id="Path_12187" data-name="Path 12187" d="M356.764,467.417l-1.158,17.368s-.926,17.6,6.253,18.99,0-22.463,0-22.463V465.564Z" transform="translate(-252.866 -298.508)" fill="#fbbebe"/>
    <path id="Path_12188" data-name="Path 12188" d="M361.5,337.18l-.926,2.084s.232,14.589,0,15.747-3.242,10.189-3.242,11.116-2.316,27.79-2.779,29.411-2.547,6.716-.695,7.411,5.326-2.084,6.716,0,2.547,0,2.547-.695.463-13.895,3.242-17.6,5.326-12.042,5.79-13.663,1.158-25.011,1.389-25.474-.926-6.716-.926-6.716Z" transform="translate(-251.579 -231.492)" fill="#e8505b"/>
    <path id="Path_12189" data-name="Path 12189" d="M383.556,388.534s-2.779,10.884-4.632,12.968-11.116,17.6-8.337,38.211,7.642,47.473,7.642,47.473.695,9.495-.232,12.042,4.168,43.074,4.168,43.074,7.179,5.558,11.116-1.39c0,0-.926-15.053,0-16.442s0-26.4,0-26.4.695-62.295,4.4-59.747,15.053,45.853,15.053,45.853,4.863,16.674,4.632,18.063S421.535,521,421.535,521s4.168,24.084,5.789,24.547,11.579.695,12.505-1.853l-2.779-21.768s-2.779-24.779-4.168-28.253-3.705-52.8-10.421-67.39c0,0-2.547-23.389-4.4-26.863a20.514,20.514,0,0,1,.254-9.227S386.1,390.386,383.556,388.534Z" transform="translate(-260.438 -258.299)" fill="#2f2e41"/>
    <ellipse id="Ellipse_409" data-name="Ellipse 409" cx="19.453" cy="24.663" rx="19.453" ry="24.663" transform="translate(117.445 37.487)" fill="#2f2e41"/>
    <path id="Path_12190" data-name="Path 12190" d="M438.225,281.586l-3.01,6.484-35.663,10.421s-24.779,7.179-27.326-4.4,9.726-12.737,9.726-12.737,4.632-3.242,10.421-6.484a5,5,0,0,0,2.573-4.7,9.734,9.734,0,0,0-.155-1.649,13.96,13.96,0,0,0-.463-1.857,21.289,21.289,0,0,0-1.955-4.3s15.284-6.021,15.053-2.779a9.217,9.217,0,0,0,.371,3.464,13.637,13.637,0,0,0,1.271,2.809c.259.447.549.91.871,1.4.417.637.892,1.315,1.424,2.052,3.011,4.168,12.968,4.168,12.968,4.168C432.2,272.555,438.225,281.586,438.225,281.586Z" transform="translate(-261.38 -190.489)" fill="#fbbebe"/>
    <path id="Path_12191" data-name="Path 12191" d="M582.4,384.173s16.674,12.274,19.916,12.042,22.232-1.389,17.832,3.011-24.316,1.621-24.316,1.621l-18.295-11.579Z" transform="translate(-368.733 -256.023)" fill="#fbbebe"/>
    <path id="Path_12192" data-name="Path 12192" d="M430.177,263.051a13.209,13.209,0,0,1-13.469,3.61,21.286,21.286,0,0,0-1.954-4.3s15.284-6.021,15.053-2.779A9.217,9.217,0,0,0,430.177,263.051Z" transform="translate(-283.762 -190.489)" opacity="0.1"/>
    <circle id="Ellipse_410" data-name="Ellipse 410" cx="13.2" cy="13.2" r="13.2" transform="translate(123.582 48.719)" fill="#fbbebe"/>
    <path id="Path_12193" data-name="Path 12193" d="M380.135,313.7s57.432-12.968,57.663-11.116,2.547,5.558,2.547,5.558l-13.432,15.284s1.621,7.411-1.621,9.032-3.705,13.895-6.716,14.126-38.211-.232-38.442-2.084.926-3.01,0-3.474-2.316-.463-1.158-2.779,1.158-12.042,1.158-12.042l-10.884-5.095s-1.493-4.315,1.222-5.052S380.135,313.7,380.135,313.7Z" transform="translate(-259.795 -213.339)" fill="#e8505b"/>
    <path id="Path_12194" data-name="Path 12194" d="M499.655,313.441h2.084s6.253,4.168,7.874,7.874,7.41,8.568,8.8,9.958,20.379,14.59,20.147,16.442-5.558,3.705-5.79,5.79,2.316,3.011.695,3.011-11.579-5.789-15.284-7.874-11.347-8.105-12.274-9.726-7.179-4.4-7.874-5.558-11.579-6.484-11.579-6.484Z" transform="translate(-321.189 -219.101)" fill="#e8505b"/>
    <circle id="Ellipse_411" data-name="Ellipse 411" cx="7.411" cy="7.411" r="7.411" transform="translate(110.035 39.803)" fill="#2f2e41"/>
    <circle id="Ellipse_412" data-name="Ellipse 412" cx="7.411" cy="7.411" r="7.411" transform="translate(142.687 30.077)" fill="#2f2e41"/>
    <ellipse id="Ellipse_413" data-name="Ellipse 413" cx="13.779" cy="8.453" rx="13.779" ry="8.453" transform="translate(124.856 44.898)" fill="#2f2e41"/>
    <path id="Path_12195" data-name="Path 12195" d="M434.088,273.758a34.821,34.821,0,0,1-14.277,2.659,9.736,9.736,0,0,1,.155,1.649c.338.014.7.021,1.088.021a37.432,37.432,0,0,0,13.9-2.927Z" transform="translate(-286.401 -198.386)" fill="#2f2e41"/>
  </g>
</svg>
