<svg xmlns="http://www.w3.org/2000/svg" width="31.122" height="31.125" viewBox="0 0 31.122 31.125">
  <path id="home-run" d="M30.786,13.537l0,0L18.087.839a2.865,2.865,0,0,0-4.052,0L1.345,13.529l-.013.013a2.864,2.864,0,0,0,1.907,4.882c.029,0,.059,0,.089,0h.506v9.343a3.358,3.358,0,0,0,3.354,3.354h4.967a.912.912,0,0,0,.912-.912V22.887a1.532,1.532,0,0,1,1.53-1.53h2.93a1.532,1.532,0,0,1,1.53,1.53v7.325a.912.912,0,0,0,.912.912h4.967a3.357,3.357,0,0,0,3.354-3.354V18.428h.469a2.866,2.866,0,0,0,2.028-4.89ZM29.5,16.3a1.035,1.035,0,0,1-.737.305H27.377a.912.912,0,0,0-.912.912V27.771a1.532,1.532,0,0,1-1.53,1.53H20.88V22.888a3.358,3.358,0,0,0-3.354-3.354H14.6a3.358,3.358,0,0,0-3.354,3.354V29.3H7.187a1.532,1.532,0,0,1-1.53-1.53V17.516a.912.912,0,0,0-.912-.912H3.387l-.043,0a1.04,1.04,0,0,1-.717-1.777h0l12.7-12.7a1.041,1.041,0,0,1,1.473,0L29.491,14.821l.006.006a1.044,1.044,0,0,1,0,1.472Zm0,0" transform="translate(-0.5 0.001)" fill="#fff"/>
</svg>
