<svg xmlns="http://www.w3.org/2000/svg" width="150.235" height="241.011" viewBox="0 0 150.235 241.011">
  <g id="Group_2404" data-name="Group 2404" transform="translate(-164.665 -161.872)">
    <g id="Group_2385" data-name="Group 2385" transform="translate(164.665 173.228)">
      <path id="Path_12412" data-name="Path 12412" d="M193.669,246.383a39.92,39.92,0,0,1-13.076,10.768,59.456,59.456,0,0,1-15.928-17.171c24.107,1.508,27.007-30.989,35.822-51,12.07-27.4,27.836-12.28,27.836-12.28s28.971,17.409,41.4,33.229,6.313,50.129,6.313,50.129-4.524.932-15.589,2.689a35.98,35.98,0,0,0-.484-5.44l-2.981,5.985c-6.727,1.052-16.365,2.518-30.2,4.563-18.527,2.736-32.548-1.962-42.547-8.234C192.992,254.435,193.669,246.383,193.669,246.383Z" transform="translate(-164.665 -172.537)" fill="#ff6033"/>
      <path id="Path_12413" data-name="Path 12413" d="M180.593,255.8a39.92,39.92,0,0,0,13.076-10.768s-.677,8.051-9.437,13.237c10,6.271,24.02,10.97,42.547,8.234,13.838-2.044,23.476-3.511,30.2-4.562l2.981-5.985a35.98,35.98,0,0,1,.484,5.44c11.065-1.757,15.589-2.689,15.589-2.689s6.117-34.31-6.313-50.13a76.466,76.466,0,0,0-7.631-8.181l-5.233,2.293c-2.919-9.206-13.667-9.216-13.667-9.216,3.323,7.629-.725,26.254-.725,26.254-4.472-2.883-14.135-.39-18.429,9.658s8.348,23.259-.956,27.741-23.591-2.24-23.591-2.24c5.165-8.438,3.713-24.139,3.713-24.139S186.651,246.686,182,246.95s-17.334-8.326-17.334-8.326A59.456,59.456,0,0,0,180.593,255.8Z" transform="translate(-164.665 -171.182)" fill="#e24e2b"/>
    </g>
    <g id="Group_2386" data-name="Group 2386" transform="translate(269.959 199.788)">
      <path id="Path_12414" data-name="Path 12414" d="M290.3,223.175c-3.816-2.124-7.326-4.617-7.018-9.535a42.241,42.241,0,0,0-.725-9.631c-.147-1.773,2.384-2.793,2.833-.359a20.312,20.312,0,0,0,1.569,4.987s.7-5.431,1.03-8.734c.3-2.982,3.782-2.834,3.441.385-.3,2.833-.233,7.451-.233,7.451s2.312-6.717,2.845-8.827c.588-2.324,4.293-1.648,3.839.8-.724,3.9-2.257,9.14-2.257,9.14s3.051-5.117,4.557-7.469c.868-1.358,4.134.057,3.121,2.654s-4.773,8.892-4.547,10,2.594,1.79,4.29.357,3.278-2.253,4.108-.7-3.308,5.863-6.449,7.929S293.642,225.033,290.3,223.175Z" transform="translate(-262.323 -197.481)" fill="#efb38b"/>
      <path id="Path_12415" data-name="Path 12415" d="M284.925,216.313s-16.512,29.982-17.021,33.128,10.553,9.948,14.516,6.031,14.455-32.9,14.455-32.9Z" transform="translate(-263.273 -196.262)" fill="#efb38b"/>
      <path id="Path_12416" data-name="Path 12416" d="M270.4,241.421s15.127,6.7,16.1,8.318-6.188,15.029-12.047,22.64c-3.151,4.093-13.186-11.324-10.416-18.46A71.308,71.308,0,0,1,270.4,241.421Z" transform="translate(-263.554 -194.636)" fill="#fff"/>
      <path id="Path_12417" data-name="Path 12417" d="M277.227,252.462c-2.354-4.275-6.845-5.686-9.86-6.145a70.951,70.951,0,0,0-3.335,7.285c-2.771,7.136,7.265,22.553,10.416,18.46,5.454-7.085,12.031-19.191,12.131-22.137C284.168,253.566,280,257.5,277.227,252.462Z" transform="translate(-263.554 -194.319)" fill="#ededed"/>
    </g>
    <path id="Path_12418" data-name="Path 12418" d="M281.456,344.977c-17.265,4.819-46.469,3.929-46.816-3.971s20.747-10.811,35.215-15.443,31.957-8.1,35.707-6.806C305.562,318.758,309.915,337.035,281.456,344.977Z" transform="translate(4.532 10.143)" fill="#042635"/>
    <g id="Group_2389" data-name="Group 2389" transform="translate(242.104 316.14)">
      <g id="Group_2387" data-name="Group 2387" transform="translate(8.554 0)">
        <path id="Path_12419" data-name="Path 12419" d="M265.471,317.462s7.178,21.685,5.646,25.319c-.808,1.918-25.691,16.9-25.691,16.9l3.971,11.7s34.071-13.587,39.161-18.757c3.939-4,.274-18.621-4.649-35.613-2.028-7-3.4-10.882-11.822-10.164C265.475,307.4,263.69,312.51,265.471,317.462Z" transform="translate(-245.427 -306.756)" fill="#efb38b"/>
        <path id="Path_12420" data-name="Path 12420" d="M283.91,317.005c-2.028-7-3.4-10.882-11.822-10.164-6.612.563-8.4,5.669-6.616,10.621,0,0,7.178,21.684,5.646,25.319-.808,1.918-25.691,16.9-25.691,16.9l3.971,11.7s1.86-.742,4.756-1.937c-2.011-2.2-1.631-4.349.319-4.922a73.352,73.352,0,0,0,17.753-8.839c7.722-5.211,3.628-11.444,8.094-12.467,2.473-.568,6.23-2.634,9.091-4.367C288.326,332.706,286.263,325.129,283.91,317.005Z" transform="translate(-245.427 -306.756)" fill="#efb38b" opacity="0.5" style="mix-blend-mode: multiply;isolation: isolate"/>
        <path id="Path_12421" data-name="Path 12421" d="M258.022,349.169c-6.34,4-12.6,7.763-12.6,7.763h0l3.972,11.7s6.725-2.683,14.644-6.116C262.075,358.774,259.7,353.429,258.022,349.169Z" transform="translate(-245.427 -304.01)" fill="#fff"/>
        <path id="Path_12422" data-name="Path 12422" d="M254.473,361.769a57.8,57.8,0,0,0,7.667-3.1c-1.463-3.1-2.958-6.556-4.118-9.505l-.017.011c-.769.484-1.534.965-2.289,1.436l-.059.036c-5.442,3.4-10.23,6.28-10.23,6.28l3.972,11.7s1.039-.415,2.774-1.123l.054-.022.833-.341.186-.077.73-.3.178-.075C252.142,364.49,252.523,362.343,254.473,361.769Z" transform="translate(-245.427 -304.01)" fill="#ededed"/>
      </g>
      <g id="Group_2388" data-name="Group 2388" transform="translate(0 51.579)">
        <path id="Path_12423" data-name="Path 12423" d="M239.363,357.191l6.563-1.993s1.633,8.764,8.282,13.58c0,0,9.867,16.575-2.455,20.145Z" transform="translate(-237.266 -355.198)" fill="#935a27"/>
        <path id="Path_12424" data-name="Path 12424" d="M250.042,364.524a26.157,26.157,0,0,1-4.115-9.326l-6.563,1.993,12.39,31.732c4.192-1.215,5.813-3.935,6.131-7a7.164,7.164,0,0,1-4.617,4.664c-.931.186-6.885-14.327-7.815-18.353C244.948,366.056,247.55,365.018,250.042,364.524Z" transform="translate(-237.266 -355.198)" fill="#935a27" opacity="0.5" style="mix-blend-mode: multiply;isolation: isolate"/>
        <path id="Path_12425" data-name="Path 12425" d="M239.491,357.07,251.88,388.8l-1.853.723-12.634-32.358Z" transform="translate(-237.393 -355.077)" fill="#b57948"/>
        <path id="Path_12426" data-name="Path 12426" d="M254.311,370s-4.314-7.171-5.253-4.115,6.238,3.87,8.926,4.582,1.429,4.156-.694,2.5A14.327,14.327,0,0,1,254.311,370Z" transform="translate(-236.643 -354.555)" fill="none" stroke="#6b411f" stroke-miterlimit="10" stroke-width="0.696"/>
      </g>
    </g>
    <g id="Group_2392" data-name="Group 2392" transform="translate(225.909 316.855)">
      <g id="Group_2390" data-name="Group 2390" transform="translate(8.553 0)">
        <path id="Path_12427" data-name="Path 12427" d="M250.261,318.134s7.178,21.684,5.646,25.319c-.808,1.918-25.691,16.9-25.691,16.9l3.972,11.7s34.07-13.587,39.161-18.756c3.938-4,.274-18.621-4.65-35.613-2.028-7-3.4-10.883-11.821-10.165C250.265,308.076,248.481,313.182,250.261,318.134Z" transform="translate(-230.217 -307.427)" fill="#fccbaa"/>
        <path id="Path_12428" data-name="Path 12428" d="M268.7,317.677c-2.028-7-3.4-10.883-11.821-10.165-6.613.564-8.4,5.67-6.618,10.622,0,0,7.179,21.684,5.646,25.319-.808,1.918-25.691,16.9-25.691,16.9l3.972,11.7s1.973-.787,5.024-2.048c-2.763-3.175-6.408-8.752-4.29-9.714,2.463-1.117,15.215-6.7,20.8-11.257s4.559-5.583,10.421-4.559a22.832,22.832,0,0,0,8.7-.443C274.179,337.313,271.67,327.929,268.7,317.677Z" transform="translate(-230.217 -307.427)" fill="#fccbaa" opacity="0.6" style="mix-blend-mode: multiply;isolation: isolate"/>
        <path id="Path_12429" data-name="Path 12429" d="M242.813,349.841c-6.34,4-12.6,7.763-12.6,7.763h0l3.972,11.7s6.725-2.682,14.644-6.116C246.865,359.446,244.489,354.1,242.813,349.841Z" transform="translate(-230.217 -304.681)" fill="#fff"/>
        <path id="Path_12430" data-name="Path 12430" d="M234.922,357.538c1.234-.56,5.052-2.241,9.257-4.352-.488-1.155-.949-2.285-1.366-3.345-6.34,4-12.6,7.763-12.6,7.763l3.972,11.7s1.972-.787,5.024-2.048C236.449,364.077,232.8,358.5,234.922,357.538Z" transform="translate(-230.217 -304.681)" fill="#ededed"/>
      </g>
      <g id="Group_2391" data-name="Group 2391" transform="translate(0 51.58)">
        <path id="Path_12431" data-name="Path 12431" d="M224.154,357.863l6.562-1.993s1.634,8.764,8.282,13.579c0,0,9.868,16.576-2.455,20.145Z" transform="translate(-222.056 -355.87)" fill="#935a27"/>
        <path id="Path_12432" data-name="Path 12432" d="M231.879,359.682a23.931,23.931,0,0,1-1.163-3.812l-6.562,1.993,12.389,31.731c3.451-1,5.16-3.019,5.835-5.408-2.621,3.865-4.98,3.224-5.245,2.362-.372-1.21-9.489-22.422-9.583-24.747C227.485,360.156,230.25,359.768,231.879,359.682Z" transform="translate(-222.056 -355.87)" fill="#935a27" opacity="0.5" style="mix-blend-mode: multiply;isolation: isolate"/>
        <path id="Path_12433" data-name="Path 12433" d="M224.281,357.741l12.389,31.732-1.853.723-12.634-32.358Z" transform="translate(-222.184 -355.749)" fill="#b57948"/>
        <path id="Path_12434" data-name="Path 12434" d="M239.1,370.673s-4.313-7.172-5.252-4.115,6.238,3.869,8.926,4.582,1.429,4.155-.694,2.495A14.311,14.311,0,0,1,239.1,370.673Z" transform="translate(-221.434 -355.227)" fill="none" stroke="#6b411f" stroke-miterlimit="10" stroke-width="0.696"/>
      </g>
    </g>
    <g id="Group_2393" data-name="Group 2393" transform="translate(238.681 304.238)">
      <path id="Path_12435" data-name="Path 12435" d="M234.67,342.491s4.458-4.633,17.694-3.089,26.695,2.868,37.5-5.516,15.723-13.645,15.723-13.645S287.8,305.5,285.371,295.578c0,0-29.7,4.63-40.949,4.261C244.422,299.839,231.536,329.253,234.67,342.491Z" transform="translate(-234.179 -295.578)" fill="#004b7f"/>
      <path id="Path_12436" data-name="Path 12436" d="M305.57,320.264c-6.954,4.7-19.608.913-23.064-2.659-3.722-3.846,2.977,13.025-.744,15.134s-9.056-.868-11.514-8.807,1.4,9.862-6.027,11.31c-4.438.866-7.149,1.385-8.759-6.286-1.581-7.536-1.769-6.159-3.1-.576s-8.927,8.205-12.659,5.978,3.855-24.691,8.073-23.823,13.025-.744,22.113-7.815a20.224,20.224,0,0,1,16.872-3.588,16.709,16.709,0,0,1-1.386-3.552s-29.7,4.63-40.949,4.261c0,0-12.886,29.414-9.752,42.651,0,0,4.458-4.633,17.694-3.089s26.695,2.868,37.5-5.516C300.435,325.693,305.353,320.495,305.57,320.264Z" transform="translate(-234.179 -295.578)" fill="#004b7f" opacity="0.3" style="mix-blend-mode: multiply;isolation: isolate"/>
    </g>
    <g id="Group_2398" data-name="Group 2398" transform="translate(226.849 249.95)">
      <g id="Group_2394" data-name="Group 2394">
        <path id="Path_12437" data-name="Path 12437" d="M236.135,249.956c-2.426,2.338-15.026,8.811-12.808,23.88,2.229,15.14,9.186,34.428,27.025,26.75S236.135,249.956,236.135,249.956Z" transform="translate(-223.066 -244.245)" fill="#fc0"/>
        <path id="Path_12438" data-name="Path 12438" d="M228,272.014c.76,13.082,7.334,27.847,25.338,26.517s17.87-11.733,19.2-20.688-5.266-38.252-26.552-32.51C230.41,249.534,227.372,261.185,228,272.014Z" transform="translate(-222.752 -244.593)" fill="#ff9f00"/>
      </g>
      <g id="Group_2395" data-name="Group 2395" transform="translate(8.339 5.344)">
        <path id="Path_12439" data-name="Path 12439" d="M233.739,255.442a97.4,97.4,0,0,1,20.2-5.192c8.72-1.256,13.731-.269,18.162-.27,2.282,0,4.42,5.086,6.888,16.538l7.772,33.719s-11.79-3.111-21.776,4.154c-7.943,5.78-19.059,5.687-23,4.278l-7.338-33.784S226.855,258.025,233.739,255.442Z" transform="translate(-230.898 -249.611)" fill="#fff"/>
        <path id="Path_12440" data-name="Path 12440" d="M262.724,299.245c-4.3,4.466-9.561,6.606-15.421,5.675s-8.374-18.7-3.981-22.514,4.074-18.168,4.074-18.168l9.769,1.33c-.652,5.119,2.137,10.232,2.137,10.232,8.464-2.884,7.825-9.769,7.825-9.769,1.285,3.235,7.254,3.014,7.254,3.014,1.4-7.219-5.355-12.335-5.355-12.335l.223-6.731c-.021-.035-.045-.067-.066-.1a67.241,67.241,0,0,0-15.245.373,97.4,97.4,0,0,0-20.2,5.192c-6.884,2.583.906,19.443.906,19.443l7.338,33.784c3.941,1.409,15.057,1.5,23-4.278,8.1-5.89,17.378-4.96,20.6-4.4C278.309,295.749,266.428,295.4,262.724,299.245Z" transform="translate(-230.898 -249.611)" fill="#ededed"/>
      </g>
      <g id="Group_2396" data-name="Group 2396" transform="translate(36.743 10.391)">
        <path id="Path_12441" data-name="Path 12441" d="M261.921,257.483s-7.781,6.1-2.524,15.3C259.4,272.782,268.756,266.421,261.921,257.483Z" transform="translate(-257.574 -254.149)" fill="#c33"/>
        <path id="Path_12442" data-name="Path 12442" d="M260.908,256.935s2.757,9.4,10.819,9.028C271.727,265.963,272.31,254.163,260.908,256.935Z" transform="translate(-257.358 -254.212)" fill="#c33"/>
        <path id="Path_12443" data-name="Path 12443" d="M266.234,260.576c.832-.8-.729-4.767-.729-4.767l-4.567-1.457-2.46,4.6a3.426,3.426,0,0,0,2.752,3.13A4.707,4.707,0,0,0,266.234,260.576Z" transform="translate(-257.515 -254.352)" fill="#c33"/>
      </g>
      <path id="Path_12444" data-name="Path 12444" d="M277.384,269.262s-2.68-13.959-10.841-19.548c0,0,1.306-1.3,4.214.376C270.757,250.09,279.032,253.858,277.384,269.262Z" transform="translate(-220.25 -244.292)" fill="#fc0"/>
      <path id="Path_12445" data-name="Path 12445" d="M232.312,254.905c5.409,2.451,11.4,8.3,11.246,14.238s-1.294,9.995-6.826,12.154c0,0-2.5,4.025,2.385,7.2,0,0,10.239-3.411,10.625-17.227s-9.307-19.018-9.307-19.018S233.266,251.1,232.312,254.905Z" transform="translate(-222.467 -244.107)" fill="#fc0"/>
      <g id="Group_2397" data-name="Group 2397" transform="translate(16.105 4.372)">
        <path id="Path_12446" data-name="Path 12446" d="M262.251,254.778l-4.425,9.406s-16.025-3.813-18.522-5.157-.985-7.91,6.489-8.585l.568,2.454Z" transform="translate(-238.191 -248.586)" fill="#fff"/>
        <path id="Path_12447" data-name="Path 12447" d="M269.011,257.341l-8.223-2.45,1.727-4.741-.21-1.447s6.506-.128,7.1,1.265S269.011,257.341,269.011,257.341Z" transform="translate(-236.728 -248.699)" fill="#fff"/>
      </g>
    </g>
    <g id="Group_2402" data-name="Group 2402" transform="translate(179.953 161.872)">
      <path id="Path_12448" data-name="Path 12448" d="M242.022,234.816s3.151,15.164,3.995,18.723S262,255.79,262,255.79s2.327-1.482,1.623-5.567-1.69-11.671-1.69-11.671Z" transform="translate(-174.943 -157.147)" fill="#fccbaa"/>
      <path id="Path_12449" data-name="Path 12449" d="M262,255.79s2.105-1.351,1.7-5.01l-2.976,3.139s-12.281-1.909-12.653-3.432c-.216-.882-1.792-8.692-3.08-15.114l-2.969-.557s3.151,15.164,3.995,18.723S262,255.79,262,255.79Z" transform="translate(-174.943 -157.147)" fill="#fccbaa" opacity="0.6" style="mix-blend-mode: multiply;isolation: isolate"/>
      <path id="Path_12450" data-name="Path 12450" d="M249.959,242.107s-20.655,3.224-37.124-6.35-24.072-46.27,5.489-63.819,52.325.384,59.122,11.168c3.67,5.822,4,15,4.639,17.235,3.139,10.883,6.644,7,8.084,8.431,1.3,1.3-.631,3.133.033,5.665,1.992,7.6,5.447,20.591-3.473,27.666C275.165,251.273,257.166,250.282,249.959,242.107Z" transform="translate(-177.774 -161.697)" fill="#fccbaa"/>
      <path id="Path_12451" data-name="Path 12451" d="M253.018,241.979c8.667,3.568,21.3,2.514,30.167-4.514a15.012,15.012,0,0,0,1.43-1.3C273.006,243.127,258.179,242.471,253.018,241.979Z" transform="translate(-174.231 -157.06)" fill="#fccbaa" opacity="0.6" style="mix-blend-mode: multiply;isolation: isolate"/>
      <path id="Path_12452" data-name="Path 12452" d="M212.835,235.757c13.688,7.958,30.257,7.075,35.466,6.549-1.133-5.632-2.2-10.992-2.2-10.992,2.206-3.688,6.707-19.847,6.707-19.847a89.088,89.088,0,0,0,28.737-14.385c-.541-3.826-1.445-9.771-4.1-13.976-6.8-10.784-29.561-28.717-59.122-11.168S196.364,226.181,212.835,235.757Z" transform="translate(-177.774 -161.697)" fill="#fccbaa" opacity="0.6" style="mix-blend-mode: multiply;isolation: isolate"/>
      <path id="Path_12453" data-name="Path 12453" d="M224.237,172.868A46.122,46.122,0,0,0,206,196.788c-4.188,13.338-4.652,30.687-15.444,37.385" transform="translate(-178.276 -161.159)" fill="none" stroke="#c94223" stroke-miterlimit="10" stroke-width="1"/>
      <path id="Path_12454" data-name="Path 12454" d="M236.054,162.714c-18.611,3.068-29.9,11.917-36.064,22.574,13.587-16.2,40.07-29.579,75.022-13.038C267.135,165.468,254.692,159.641,236.054,162.714Z" transform="translate(-177.665 -161.872)" fill="#fff" opacity="0.4" style="mix-blend-mode: overlay;isolation: isolate"/>
      <g id="Group_2399" data-name="Group 2399" transform="translate(16.159)">
        <path id="Path_12455" data-name="Path 12455" d="M236.429,162.714c-38.268,6.309-45.628,37.032-41,57.737s23.873,38.419,51.579,28.091l-5.965-18.558s9.186-3.706,4.078-30.861c0,0,6.7,4.18,7.1,9.227a129.4,129.4,0,0,0,16.1-7.163,24.4,24.4,0,0,0-5.684-12,30.457,30.457,0,0,1,9.552,9.845c2.141-1.251,4.281-2.61,6.328-4.067a25.25,25.25,0,0,0-5.684-10.987s5.858,3.326,8.17,9.129a44.392,44.392,0,0,0,5.9-5.508S274.7,156.4,236.429,162.714Z" transform="translate(-194.199 -161.872)" fill="#ff6033"/>
        <path id="Path_12456" data-name="Path 12456" d="M270.553,197.84c2.141-1.251,4.281-2.61,6.328-4.067a25.25,25.25,0,0,0-5.684-10.987s5.858,3.326,8.17,9.129a44.392,44.392,0,0,0,5.9-5.508v0l-5.783,2.709c-2.481-6.575-11.2-8.808-11.2-8.808,4.3,3.35,6.24,12.654,6.24,12.654l-3.5,1.737c-3.877-6.823-13.614-9.552-13.614-9.552,4.589,4.714,6.055,13.944,6.055,13.944l-10.154,4.451c-2.919-9.206-13.667-9.216-13.667-9.216,3.323,7.629-.725,26.254-.725,26.254-4.472-2.883-14.135-.39-18.429,9.658-3.246,7.6,2.885,14.554,2.053,19.435,6.706,1.361,14.369.832,22.828-2.321L239.4,228.79s9.186-3.706,4.078-30.861c0,0,6.7,4.18,7.1,9.227a129.405,129.405,0,0,0,16.1-7.163,24.4,24.4,0,0,0-5.684-12A30.457,30.457,0,0,1,270.553,197.84Z" transform="translate(-192.559 -160.678)" fill="#e24e2b"/>
      </g>
      <g id="Group_2400" data-name="Group 2400" transform="translate(88.562 40.101)">
        <path id="Path_12457" data-name="Path 12457" d="M264.268,205.051s3.062-8,9.819-4.734" transform="translate(-262.064 -199.533)" fill="none" stroke="#ff6033" stroke-linecap="round" stroke-linejoin="round" stroke-width="1.695"/>
        <path id="Path_12458" data-name="Path 12458" d="M279.279,217.179c-2.062-.778-6.072-3.272-9.16,0s-.235,11.931,6.626,13.092,9.292-3.4,9.4-7.349-.739-5.321-2.745-5.954C282.248,216.606,280.634,217.691,279.279,217.179Z" transform="translate(-261.765 -198.497)" fill="#872e41"/>
        <path id="Path_12459" data-name="Path 12459" d="M269.063,222.136a9.784,9.784,0,0,0,7.67,7.708,12.122,12.122,0,0,0,2.387.178C278.194,222.987,272.106,222.119,269.063,222.136Z" transform="translate(-261.753 -198.069)" fill="#e57a91"/>
        <path id="Path_12460" data-name="Path 12460" d="M284.857,217.761a3.845,3.845,0,0,0-1.463-.793c-1.148-.362-2.762.723-4.117.211-2.062-.778-6.072-3.272-9.16,0a4.914,4.914,0,0,0-1.213,3.032C273.344,221.113,282.341,222.291,284.857,217.761Z" transform="translate(-261.763 -198.497)" fill="#fff"/>
        <path id="Path_12461" data-name="Path 12461" d="M277.872,205.817s-1.225-1.837-5.221-1.577c-3.96.258-6.526,4.11-6.526,4.11l-2.769-.4L267,210.09a18.448,18.448,0,0,1,4.5-3.589A9.114,9.114,0,0,1,277.872,205.817Z" transform="translate(-262.123 -199.23)" fill="#603e28"/>
        <path id="Path_12462" data-name="Path 12462" d="M264.472,214.4c-2.884,1.884-3.576,5.784,1.208,2.629S269.625,211.04,264.472,214.4Z" transform="translate(-262.198 -198.668)" fill="#f9b5aa" opacity="0.5" style="mix-blend-mode: multiply;isolation: isolate"/>
      </g>
      <g id="Group_2401" data-name="Group 2401" transform="translate(47.813 64.167)">
        <path id="Path_12463" data-name="Path 12463" d="M244.438,238.406s-2.9-9.27-3.641-11.97-6.018-6.052-11.086-3.229a11.174,11.174,0,0,0-2.85,17.315C231.082,244.744,237.088,244.45,244.438,238.406Z" transform="translate(-223.926 -222.136)" fill="#fccbaa"/>
        <path id="Path_12464" data-name="Path 12464" d="M244.438,238.406s-2.9-9.27-3.641-11.97-6.018-6.052-11.086-3.229a11.174,11.174,0,0,0-2.85,17.315C231.082,244.744,237.088,244.45,244.438,238.406Z" transform="translate(-223.926 -222.136)" fill="#fccbaa" opacity="0.6" style="mix-blend-mode: multiply;isolation: isolate"/>
        <path id="Path_12465" data-name="Path 12465" d="M240.8,226.43c-.738-2.7-6.267-5.841-11.086-3.229a11.141,11.141,0,0,0-2.85,17.315c4.223,4.223,10.649,3.977,18.22-2.8" transform="translate(-223.927 -222.13)" fill="none" stroke="#c1845b" stroke-miterlimit="10" stroke-width="0.696"/>
        <path id="Path_12466" data-name="Path 12466" d="M227.24,235.382s-2.576-4.823,1.9-8.063c5.008-3.627,7.339,1.813,7.339,1.813s-3.232,6.25,3.919,5.095" transform="translate(-223.761 -221.881)" fill="none" stroke="#c1845b" stroke-miterlimit="10" stroke-width="0.696"/>
        <path id="Path_12467" data-name="Path 12467" d="M241.5,236.8a1.54,1.54,0,1,1-1.54-1.541A1.539,1.539,0,0,1,241.5,236.8Z" transform="translate(-222.989 -221.286)" fill="#fff"/>
      </g>
      <path id="Path_12468" data-name="Path 12468" d="M179.023,238.013s14.323-1.508,20.605-34.661c3.737-19.716,14.643-30.2,29.949-34.931" transform="translate(-179.023 -161.447)" fill="none" stroke="#c94223" stroke-miterlimit="10" stroke-width="1"/>
    </g>
    <g id="Group_2403" data-name="Group 2403" transform="translate(193.977 224.21)">
      <path id="Path_12469" data-name="Path 12469" d="M241.929,263.581c-1.831-5.264-23.477-27.206-23.478-27.207a15.351,15.351,0,0,0,.1-5.248c-.514-3.725-2.627-9.315-4.384-9.234s-1.7,1.861-1.133,4.01-1.073,3.99-2.169,3.719-5.16-6.375-7.068-8.407-4.591.308-3.741,1.675c1.476,2.372,4.782,7.328,4.782,7.328s-4.07-3.638-7.279-5.97c-2.019-1.466-4.224,1.588-2.378,3.119,1.675,1.39,6.742,6.366,6.742,6.366s-4.2-1.927-6.625-3.417c-2.76-1.693-4.392,1.387-1.828,2.941,2.839,1.72,7.441,4.687,7.441,4.687a20.31,20.31,0,0,1-5.177-.729c-2.39-.641-2.56,2.082-.9,2.713a42.177,42.177,0,0,1,9.007,3.489,7.814,7.814,0,0,0,3.815,1.049l-.005,0s19.959,27.807,22.579,29.621S243.761,268.845,241.929,263.581Z" transform="translate(-192.194 -220.418)" fill="#fccbaa"/>
      <path id="Path_12470" data-name="Path 12470" d="M229.3,272.627c2.62,1.814,13.521-5.245,11.69-10.508-.7-2.008-4.281-6.443-8.445-11.161-2.832,1.174-9.1,4.2-11.229,8.694l-14.6-16.646S226.678,270.813,229.3,272.627Z" transform="translate(-191.254 -218.955)" fill="#fccbaa" opacity="0.6" style="mix-blend-mode: multiply;isolation: isolate"/>
      <path id="Path_12471" data-name="Path 12471" d="M200.947,237.7s-1.262-8.438,5.836-9.227C206.783,228.476,201.262,232.814,200.947,237.7Z" transform="translate(-191.633 -219.896)" fill="#fccbaa" opacity="0.5" style="mix-blend-mode: multiply;isolation: isolate"/>
      <path id="Path_12472" data-name="Path 12472" d="M244.328,269.2c-.083,4.455-2.5,13.006-9.551,9.934s-14.35-16.532-14.35-16.532a23.889,23.889,0,0,1,13.278-11.46S244.459,262.24,244.328,269.2Z" transform="translate(-190.366 -218.428)" fill="#fff"/>
      <path id="Path_12473" data-name="Path 12473" d="M232.378,273.558c-2.865-3.109-8.431-10.759-10.586-13.757a24.026,24.026,0,0,0-1.365,2.246s7.3,13.46,14.35,16.532c2.431,1.058,4.309.737,5.733-.32A18.583,18.583,0,0,1,232.378,273.558Z" transform="translate(-190.366 -217.868)" fill="#ededed"/>
    </g>
  </g>
</svg>
