<svg id="phone" xmlns="http://www.w3.org/2000/svg" width="25.115" height="25.115" viewBox="0 0 25.115 25.115">
  <g id="Group_2207" data-name="Group 2207">
    <path id="Path_12205" data-name="Path 12205" d="M23.1,16.485a14.26,14.26,0,0,1-4.478-.713,2.047,2.047,0,0,0-1.991.42l-2.824,2.132A15.606,15.606,0,0,1,6.79,11.308L8.86,8.558a2.03,2.03,0,0,0,.5-2.057,14.281,14.281,0,0,1-.716-4.486A2.018,2.018,0,0,0,6.628,0H2.015A2.018,2.018,0,0,0,0,2.015a23.126,23.126,0,0,0,23.1,23.1A2.018,2.018,0,0,0,25.115,23.1V18.5A2.018,2.018,0,0,0,23.1,16.485Z" fill="#fff"/>
  </g>
</svg>
