<svg xmlns="http://www.w3.org/2000/svg" width="28.327" height="25.967" viewBox="0 0 28.327 25.967">
  <g id="source-code" transform="translate(0 -1)">
    <path id="Path_12200" data-name="Path 12200" d="M25.082,26.967H3.246A3.249,3.249,0,0,1,0,23.721V4.246A3.249,3.249,0,0,1,3.246,1H25.082a3.249,3.249,0,0,1,3.246,3.246V23.721A3.249,3.249,0,0,1,25.082,26.967ZM3.246,2.77A1.477,1.477,0,0,0,1.77,4.246V23.721A1.477,1.477,0,0,0,3.246,25.2H25.082a1.477,1.477,0,0,0,1.475-1.475V4.246A1.477,1.477,0,0,0,25.082,2.77Z" transform="translate(0 0)" fill="#fff"/>
    <path id="Path_12201" data-name="Path 12201" d="M27.442,6.27H.885a.885.885,0,0,1,0-1.77H27.442a.885.885,0,1,1,0,1.77Z" transform="translate(0 0.631)" fill="#fff"/>
    <path id="Path_12202" data-name="Path 12202" d="M15.385,17.4a.886.886,0,0,1-.672-1.462l1.276-1.488-1.277-1.49a.886.886,0,1,1,1.344-1.153l1.77,2.066a.886.886,0,0,1,0,1.153l-1.77,2.066a.882.882,0,0,1-.672.309Z" transform="translate(2.614 1.893)" fill="#fff"/>
    <path id="Path_12203" data-name="Path 12203" d="M9.156,17.4a.886.886,0,0,1-.673-.309l-1.77-2.066a.886.886,0,0,1,0-1.153l1.77-2.066a.886.886,0,1,1,1.344,1.153l-1.276,1.49,1.277,1.49A.885.885,0,0,1,9.156,17.4Z" transform="translate(1.172 1.893)" fill="#fff"/>
    <path id="Path_12204" data-name="Path 12204" d="M11.385,19.442a.885.885,0,0,1-.864-1.084l1.77-7.672a.885.885,0,0,1,1.726.4l-1.77,7.672a.883.883,0,0,1-.862.687Z" transform="translate(1.893 1.623)" fill="#fff"/>
  </g>
</svg>
