<svg id="student" xmlns="http://www.w3.org/2000/svg" width="51.975" height="51.975" viewBox="0 0 51.975 51.975">
  <g id="Group_2209" data-name="Group 2209" transform="translate(16.851)">
    <g id="Group_2208" data-name="Group 2208">
      <path id="Path_12206" data-name="Path 12206" d="M175.136,0a9.187,9.187,0,1,0,9.136,9.238A9.233,9.233,0,0,0,175.136,0Z" transform="translate(-166)" fill="#1dc68c"/>
    </g>
  </g>
  <g id="Group_2211" data-name="Group 2211" transform="translate(16.832 18.374)">
    <g id="Group_2210" data-name="Group 2210">
      <path id="Path_12207" data-name="Path 12207" d="M178.011,181H171.92a13.654,13.654,0,0,0-6.11,1.5,38.208,38.208,0,0,1,9.155,3.794,38.21,38.21,0,0,1,9.155-3.794A13.654,13.654,0,0,0,178.011,181Z" transform="translate(-165.81 -181)" fill="#1dc68c"/>
    </g>
  </g>
  <g id="Group_2213" data-name="Group 2213" transform="translate(45.884 27.51)">
    <g id="Group_2212" data-name="Group 2212">
      <path id="Path_12208" data-name="Path 12208" d="M455.045,271A3.045,3.045,0,0,0,452,274.045v6.091a3.045,3.045,0,1,0,6.091,0v-6.091A3.045,3.045,0,0,0,455.045,271Z" transform="translate(-452 -271)" fill="#1dc68c"/>
    </g>
  </g>
  <g id="Group_2215" data-name="Group 2215" transform="translate(0 27.51)">
    <g id="Group_2214" data-name="Group 2214">
      <path id="Path_12209" data-name="Path 12209" d="M3.045,271A3.045,3.045,0,0,0,0,274.045v6.091a3.045,3.045,0,1,0,6.091,0v-6.091A3.045,3.045,0,0,0,3.045,271Z" transform="translate(0 -271)" fill="#1dc68c"/>
    </g>
  </g>
  <g id="Group_2217" data-name="Group 2217" transform="translate(3.045 21.419)">
    <g id="Group_2216" data-name="Group 2216">
      <path id="Path_12210" data-name="Path 12210" d="M31.523,211A1.522,1.522,0,0,0,30,212.523v1.523a6.1,6.1,0,0,1,6.091,6.091v6.091A6.1,6.1,0,0,1,30,232.318v1.523a1.522,1.522,0,0,0,1.523,1.523c7.806,0,14.048,2.465,19.9,6.192V215.933C45.545,212.565,39.228,211,31.523,211Z" transform="translate(-30 -211)" fill="#1dc68c"/>
    </g>
  </g>
  <g id="Group_2219" data-name="Group 2219" transform="translate(27.51 21.419)">
    <g id="Group_2218" data-name="Group 2218">
      <path id="Path_12211" data-name="Path 12211" d="M292.419,214.045v-1.523A1.522,1.522,0,0,0,290.9,211c-7.705,0-14.022,1.565-19.9,4.933v25.623c5.848-3.727,12.09-6.192,19.9-6.192a1.522,1.522,0,0,0,1.523-1.523v-1.523a6.1,6.1,0,0,1-6.091-6.091v-6.091A6.1,6.1,0,0,1,292.419,214.045Z" transform="translate(-271 -211)" fill="#1dc68c"/>
    </g>
  </g>
</svg>
