<svg xmlns="http://www.w3.org/2000/svg" width="50.589" height="60.637" viewBox="0 0 50.589 60.637">
  <g id="user" transform="translate(0 0)">
    <path id="Path_12213" data-name="Path 12213" d="M101.637,29.209a14.131,14.131,0,0,0,10.327-4.279A14.131,14.131,0,0,0,116.242,14.6a14.133,14.133,0,0,0-4.279-10.326,14.6,14.6,0,0,0-20.652,0A14.132,14.132,0,0,0,87.032,14.6a14.131,14.131,0,0,0,4.279,10.327A14.135,14.135,0,0,0,101.637,29.209Zm0,0" transform="translate(-76.725)" fill="#1dc68c"/>
    <path id="Path_12214" data-name="Path 12214" d="M50.467,264.653a36.072,36.072,0,0,0-.491-3.831,30.189,30.189,0,0,0-.942-3.852,19.028,19.028,0,0,0-1.584-3.593,13.557,13.557,0,0,0-2.388-3.112,10.529,10.529,0,0,0-3.43-2.155,11.855,11.855,0,0,0-4.379-.792,4.445,4.445,0,0,0-2.374,1.007c-.712.464-1.544,1-2.473,1.594a14.17,14.17,0,0,1-3.2,1.41,12.424,12.424,0,0,1-7.827,0,14.136,14.136,0,0,1-3.2-1.409c-.92-.588-1.753-1.125-2.475-1.6a4.439,4.439,0,0,0-2.373-1.007,11.84,11.84,0,0,0-4.379.793,10.52,10.52,0,0,0-3.431,2.155,13.56,13.56,0,0,0-2.387,3.112,19.065,19.065,0,0,0-1.584,3.593,30.26,30.26,0,0,0-.942,3.852,35.946,35.946,0,0,0-.491,3.833c-.08,1.16-.121,2.364-.121,3.581a10.069,10.069,0,0,0,2.99,7.618,10.765,10.765,0,0,0,7.706,2.811h29.2a10.763,10.763,0,0,0,7.705-2.811,10.064,10.064,0,0,0,2.991-7.618c0-1.222-.042-2.427-.123-3.582Zm0,0" transform="translate(0 -218.026)" fill="#1dc68c"/>
  </g>
</svg>
